<svg xmlns="http://www.w3.org/2000/svg" xmlns:xlink="http://www.w3.org/1999/xlink" width="414" zoomAndPan="magnify" viewBox="0 0 310.5 671.999985" height="896" preserveAspectRatio="xMidYMid meet" version="1.0"><defs><filter x="0%" y="0%" width="100%" height="100%" id="a648923586"><feColorMatrix values="0 0 0 0 1 0 0 0 0 1 0 0 0 0 1 0 0 0 1 0" color-interpolation-filters="sRGB"/></filter><clipPath id="dbb2564d7d"><path d="M 0 0.539062 L 310 0.539062 L 310 671.457031 L 0 671.457031 Z M 0 0.539062 " clip-rule="nonzero"/></clipPath><clipPath id="df6860ab19"><path d="M 60 481 L 310 481 L 310 671.457031 L 60 671.457031 Z M 60 481 " clip-rule="nonzero"/></clipPath><mask id="9241277124"><g filter="url(#a648923586)"><rect x="-31.05" width="372.6" fill="#000000" y="-67.199999" height="806.399982" fill-opacity="0.1"/></g></mask><clipPath id="dc8ae5208d"><path d="M 1 0.535156 L 250 0.535156 L 250 190.457031 L 1 190.457031 Z M 1 0.535156 " clip-rule="nonzero"/></clipPath><clipPath id="f868d0c08c"><path d="M 20 13 L 250 13 L 250 190.457031 L 20 190.457031 Z M 20 13 " clip-rule="nonzero"/></clipPath><clipPath id="63aa11d635"><path d="M 43 25 L 250 25 L 250 190.457031 L 43 190.457031 Z M 43 25 " clip-rule="nonzero"/></clipPath><clipPath id="a37af56ac4"><path d="M 70 35 L 250 35 L 250 190.457031 L 70 190.457031 Z M 70 35 " clip-rule="nonzero"/></clipPath><clipPath id="cca0e0d57c"><path d="M 101 43 L 250 43 L 250 190.457031 L 101 190.457031 Z M 101 43 " clip-rule="nonzero"/></clipPath><clipPath id="7d698e6f39"><path d="M 129 51 L 250 51 L 250 190.457031 L 129 190.457031 Z M 129 51 " clip-rule="nonzero"/></clipPath><clipPath id="e301459ff6"><path d="M 145 57 L 250 57 L 250 190.457031 L 145 190.457031 Z M 145 57 " clip-rule="nonzero"/></clipPath><clipPath id="b940bfc5b6"><path d="M 156 64 L 250 64 L 250 190.457031 L 156 190.457031 Z M 156 64 " clip-rule="nonzero"/></clipPath><clipPath id="60136fd216"><path d="M 167 71 L 250 71 L 250 190.457031 L 167 190.457031 Z M 167 71 " clip-rule="nonzero"/></clipPath><clipPath id="f0d549368a"><path d="M 177 78 L 250 78 L 250 190.457031 L 177 190.457031 Z M 177 78 " clip-rule="nonzero"/></clipPath><clipPath id="3a9e7ec51b"><path d="M 188 86 L 250 86 L 250 190.457031 L 188 190.457031 Z M 188 86 " clip-rule="nonzero"/></clipPath><clipPath id="a028f834ff"><path d="M 197 94 L 250 94 L 250 190.457031 L 197 190.457031 Z M 197 94 " clip-rule="nonzero"/></clipPath><clipPath id="729aaf53a5"><rect x="0" width="250" y="0" height="191"/></clipPath><clipPath id="b710e62de0"><path d="M 0 0.539062 L 310 0.539062 L 310 365 L 0 365 Z M 0 0.539062 " clip-rule="nonzero"/></clipPath><mask id="0caeb12428"><g filter="url(#a648923586)"><rect x="-31.05" width="372.6" fill="#000000" y="-67.199999" height="806.399982" fill-opacity="0.1"/></g></mask><clipPath id="931c53b4fb"><path d="M 0 0.539062 L 310 0.539062 L 310 232 L 0 232 Z M 0 0.539062 " clip-rule="nonzero"/></clipPath><clipPath id="e050701d10"><path d="M 424.046875 74.453125 L 40.523438 364.292969 L -114.328125 159.390625 L 269.195312 -130.449219 Z M 424.046875 74.453125 " clip-rule="nonzero"/></clipPath><clipPath id="1dd7b43e54"><path d="M 424.046875 74.453125 L 40.523438 364.292969 L -114.328125 159.390625 L 269.195312 -130.449219 Z M 424.046875 74.453125 " clip-rule="nonzero"/></clipPath><clipPath id="f5ac2e0534"><path d="M 0 0.539062 L 303 0.539062 L 303 218 L 0 218 Z M 0 0.539062 " clip-rule="nonzero"/></clipPath><clipPath id="1960705e28"><path d="M 424.046875 74.453125 L 40.523438 364.292969 L -114.328125 159.390625 L 269.195312 -130.449219 Z M 424.046875 74.453125 " clip-rule="nonzero"/></clipPath><clipPath id="e070066467"><path d="M 424.046875 74.453125 L 40.523438 364.292969 L -114.328125 159.390625 L 269.195312 -130.449219 Z M 424.046875 74.453125 " clip-rule="nonzero"/></clipPath><clipPath id="897e2ed31f"><path d="M 0 0.539062 L 291 0.539062 L 291 204 L 0 204 Z M 0 0.539062 " clip-rule="nonzero"/></clipPath><clipPath id="8467fce72c"><path d="M 424.046875 74.453125 L 40.523438 364.292969 L -114.328125 159.390625 L 269.195312 -130.449219 Z M 424.046875 74.453125 " clip-rule="nonzero"/></clipPath><clipPath id="b99e05aaed"><path d="M 424.046875 74.453125 L 40.523438 364.292969 L -114.328125 159.390625 L 269.195312 -130.449219 Z M 424.046875 74.453125 " clip-rule="nonzero"/></clipPath><clipPath id="a216fae123"><path d="M 0 0.539062 L 280 0.539062 L 280 193 L 0 193 Z M 0 0.539062 " clip-rule="nonzero"/></clipPath><clipPath id="e427f0b9ef"><path d="M 424.046875 74.453125 L 40.523438 364.292969 L -114.328125 159.390625 L 269.195312 -130.449219 Z M 424.046875 74.453125 " clip-rule="nonzero"/></clipPath><clipPath id="104d0ab35b"><path d="M 424.046875 74.453125 L 40.523438 364.292969 L -114.328125 159.390625 L 269.195312 -130.449219 Z M 424.046875 74.453125 " clip-rule="nonzero"/></clipPath><clipPath id="e7cf39561f"><path d="M 0 0.539062 L 270 0.539062 L 270 185 L 0 185 Z M 0 0.539062 " clip-rule="nonzero"/></clipPath><clipPath id="f9c08b925a"><path d="M 424.046875 74.453125 L 40.523438 364.292969 L -114.328125 159.390625 L 269.195312 -130.449219 Z M 424.046875 74.453125 " clip-rule="nonzero"/></clipPath><clipPath id="f8418d59dc"><path d="M 424.046875 74.453125 L 40.523438 364.292969 L -114.328125 159.390625 L 269.195312 -130.449219 Z M 424.046875 74.453125 " clip-rule="nonzero"/></clipPath><clipPath id="1bd72850be"><path d="M 0 0.539062 L 260 0.539062 L 260 176 L 0 176 Z M 0 0.539062 " clip-rule="nonzero"/></clipPath><clipPath id="50d7713b29"><path d="M 424.046875 74.453125 L 40.523438 364.292969 L -114.328125 159.390625 L 269.195312 -130.449219 Z M 424.046875 74.453125 " clip-rule="nonzero"/></clipPath><clipPath id="340636d000"><path d="M 424.046875 74.453125 L 40.523438 364.292969 L -114.328125 159.390625 L 269.195312 -130.449219 Z M 424.046875 74.453125 " clip-rule="nonzero"/></clipPath><clipPath id="72322085c0"><path d="M 0 0.539062 L 251 0.539062 L 251 169 L 0 169 Z M 0 0.539062 " clip-rule="nonzero"/></clipPath><clipPath id="d095852296"><path d="M 424.046875 74.453125 L 40.523438 364.292969 L -114.328125 159.390625 L 269.195312 -130.449219 Z M 424.046875 74.453125 " clip-rule="nonzero"/></clipPath><clipPath id="2481f07c87"><path d="M 424.046875 74.453125 L 40.523438 364.292969 L -114.328125 159.390625 L 269.195312 -130.449219 Z M 424.046875 74.453125 " clip-rule="nonzero"/></clipPath><clipPath id="e751414d62"><path d="M 0 0.539062 L 241 0.539062 L 241 162 L 0 162 Z M 0 0.539062 " clip-rule="nonzero"/></clipPath><clipPath id="a611d31470"><path d="M 424.046875 74.453125 L 40.523438 364.292969 L -114.328125 159.390625 L 269.195312 -130.449219 Z M 424.046875 74.453125 " clip-rule="nonzero"/></clipPath><clipPath id="8444f9c5cc"><path d="M 424.046875 74.453125 L 40.523438 364.292969 L -114.328125 159.390625 L 269.195312 -130.449219 Z M 424.046875 74.453125 " clip-rule="nonzero"/></clipPath><clipPath id="f5a2b46348"><path d="M 0 0.539062 L 232 0.539062 L 232 156 L 0 156 Z M 0 0.539062 " clip-rule="nonzero"/></clipPath><clipPath id="539e9da574"><path d="M 424.046875 74.453125 L 40.523438 364.292969 L -114.328125 159.390625 L 269.195312 -130.449219 Z M 424.046875 74.453125 " clip-rule="nonzero"/></clipPath><clipPath id="e5dc11882c"><path d="M 424.046875 74.453125 L 40.523438 364.292969 L -114.328125 159.390625 L 269.195312 -130.449219 Z M 424.046875 74.453125 " clip-rule="nonzero"/></clipPath><clipPath id="9e5ed00bd4"><path d="M 0 0.539062 L 222 0.539062 L 222 149 L 0 149 Z M 0 0.539062 " clip-rule="nonzero"/></clipPath><clipPath id="49204ff843"><path d="M 424.046875 74.453125 L 40.523438 364.292969 L -114.328125 159.390625 L 269.195312 -130.449219 Z M 424.046875 74.453125 " clip-rule="nonzero"/></clipPath><clipPath id="6a99380518"><path d="M 424.046875 74.453125 L 40.523438 364.292969 L -114.328125 159.390625 L 269.195312 -130.449219 Z M 424.046875 74.453125 " clip-rule="nonzero"/></clipPath><clipPath id="6dbb489fa4"><path d="M 0 0.539062 L 211 0.539062 L 211 142 L 0 142 Z M 0 0.539062 " clip-rule="nonzero"/></clipPath><clipPath id="cf3ff9b76c"><path d="M 424.046875 74.453125 L 40.523438 364.292969 L -114.328125 159.390625 L 269.195312 -130.449219 Z M 424.046875 74.453125 " clip-rule="nonzero"/></clipPath><clipPath id="beb68822b7"><path d="M 424.046875 74.453125 L 40.523438 364.292969 L -114.328125 159.390625 L 269.195312 -130.449219 Z M 424.046875 74.453125 " clip-rule="nonzero"/></clipPath><clipPath id="4af9b77e44"><path d="M 0 0.539062 L 202 0.539062 L 202 135 L 0 135 Z M 0 0.539062 " clip-rule="nonzero"/></clipPath><clipPath id="45ba026e6a"><path d="M 424.046875 74.453125 L 40.523438 364.292969 L -114.328125 159.390625 L 269.195312 -130.449219 Z M 424.046875 74.453125 " clip-rule="nonzero"/></clipPath><clipPath id="223e01b513"><path d="M 424.046875 74.453125 L 40.523438 364.292969 L -114.328125 159.390625 L 269.195312 -130.449219 Z M 424.046875 74.453125 " clip-rule="nonzero"/></clipPath><clipPath id="fde8ca82d2"><rect x="0" width="310" y="0" height="365"/></clipPath></defs><g clip-path="url(#dbb2564d7d)"><path fill="#ffffff" d="M 0 0.539062 L 310 0.539062 L 310 671.460938 L 0 671.460938 Z M 0 0.539062 " fill-opacity="1" fill-rule="nonzero"/><path fill="#e5e2dd" d="M 0 0.539062 L 310 0.539062 L 310 671.460938 L 0 671.460938 Z M 0 0.539062 " fill-opacity="1" fill-rule="nonzero"/></g><g clip-path="url(#df6860ab19)"><g mask="url(#9241277124)"><g transform="matrix(1, 0, 0, 1, 60, 481)"><g clip-path="url(#729aaf53a5)"><g clip-path="url(#dc8ae5208d)"><path fill="#b4aaa0" d="M 471.527344 256.375 C 471.878906 253.601562 472.246094 251.085938 472.503906 248.570312 C 472.855469 245.121094 473.265625 241.675781 473.417969 238.214844 C 473.570312 234.753906 473.570312 231.277344 473.402344 227.8125 C 473.160156 223.027344 472.929688 218.207031 472.289062 213.464844 C 470.566406 200.6875 466.464844 188.625 459.601562 177.71875 C 456.292969 172.457031 452.070312 167.746094 448.027344 162.988281 C 445.847656 160.410156 443.195312 158.214844 440.695312 155.914062 C 436.515625 152.070312 431.878906 148.867188 426.800781 146.304688 C 423.660156 144.71875 420.566406 142.996094 417.316406 141.671875 C 413.902344 140.28125 410.363281 139.015625 406.777344 138.207031 C 400.96875 136.914062 395.113281 135.585938 389.210938 135.082031 C 377.011719 134.03125 364.902344 135.171875 352.839844 137.324219 C 345.125 138.695312 337.289062 139.535156 329.480469 140.25 C 324.570312 140.695312 319.566406 140.3125 314.929688 138.390625 C 307.414062 135.28125 303.328125 129.425781 302.214844 121.433594 C 300.734375 110.851562 301.496094 100.269531 302.015625 89.667969 C 302.5625 78.597656 303.691406 67.527344 302.214844 56.425781 C 300.488281 43.507812 294.816406 33.125 283.441406 26.1875 C 276.367188 21.871094 268.664062 19.050781 260.855469 16.441406 C 256.296875 14.917969 251.722656 13.421875 247.085938 12.171875 C 242.679688 10.980469 238.226562 9.960938 233.726562 9.199219 C 228.222656 8.253906 222.671875 7.382812 217.105469 6.957031 C 211.585938 6.527344 206.035156 6.804688 200.5 6.574219 C 192.707031 6.253906 185.128906 7.871094 177.457031 8.800781 C 167.546875 10.007812 158.273438 13.359375 149.140625 16.976562 C 143.191406 19.339844 137.519531 22.617188 132.105469 26.078125 C 124.40625 30.972656 117.34375 36.753906 111.0625 43.464844 C 103.984375 51.011719 97.808594 59.230469 92.914062 68.304688 C 85.457031 82.058594 80.914062 96.820312 79.28125 112.40625 C 78.246094 122.378906 78.152344 132.382812 79.28125 142.355469 C 80.164062 150.042969 81.1875 157.710938 82.117188 165.382812 C 82.773438 170.75 83.640625 176.117188 82.941406 181.578125 C 82.238281 187.007812 79.371094 190.878906 74.171875 192.3125 C 69.109375 193.714844 63.832031 194.433594 58.632812 195.363281 C 52.351562 196.476562 45.976562 197.207031 39.769531 198.625 C 33.929688 199.96875 28.773438 202.882812 24.09375 206.785156 C 20.371094 209.882812 17.550781 213.617188 15.460938 217.78125 C 13.769531 221.164062 12.898438 224.992188 11.773438 228.652344 C 9.074219 237.359375 9.957031 246.21875 9.515625 255.035156 C 9.453125 256.375 9.058594 256.878906 7.683594 256.804688 C 6.039062 256.695312 4.390625 256.726562 2.742188 256.804688 C 1.570312 256.847656 1.082031 256.453125 1.097656 255.25 C 1.15625 247.625 0.945312 239.984375 1.296875 232.375 C 1.476562 228.5625 2.667969 224.796875 3.414062 221.011719 C 3.84375 218.894531 4.175781 216.742188 4.773438 214.667969 C 5.230469 213.066406 5.929688 211.542969 6.632812 210.035156 C 7.609375 207.976562 8.570312 205.886719 9.757812 203.949219 C 13.113281 198.503906 17.535156 194.175781 23.054688 190.820312 C 29.386719 186.960938 36.429688 185.480469 43.445312 183.804688 C 48.171875 182.675781 53.023438 182.066406 57.765625 180.96875 C 65.3125 179.246094 69.476562 174.183594 70.207031 166.664062 C 70.800781 160.503906 70.789062 154.265625 70.863281 148.042969 C 70.96875 138.132812 70.328125 128.21875 71.398438 118.292969 C 73.011719 103.300781 76.671875 88.890625 82.742188 75.121094 C 85.960938 67.816406 89.820312 60.800781 94.714844 54.457031 C 98.984375 48.921875 103.253906 43.339844 108.070312 38.308594 C 112.203125 33.976562 116.960938 30.179688 121.71875 26.535156 C 125.960938 23.289062 130.429688 20.285156 135.078125 17.675781 C 139.730469 15.070312 144.6875 12.996094 149.597656 10.84375 C 164.859375 4.179688 181.117188 2.078125 197.511719 0.933594 C 203.425781 0.519531 209.421875 1.085938 215.367188 1.390625 C 219.683594 1.605469 224 1.9375 228.269531 2.5625 C 233.132812 3.265625 237.984375 4.179688 242.769531 5.308594 C 248.335938 6.621094 253.871094 8.085938 259.316406 9.808594 C 269.714844 13.085938 279.996094 16.792969 289.464844 22.265625 C 299.636719 28.152344 305.859375 37.105469 308.617188 48.511719 C 310.828125 57.628906 310.554688 66.886719 310.371094 76.160156 C 310.171875 85.476562 310.203125 94.777344 310.144531 104.09375 C 310.113281 108.503906 310.585938 112.832031 312.050781 117.042969 C 313.40625 120.960938 316.105469 123.675781 319.535156 125.65625 C 325.867188 129.316406 332.894531 129.5 339.894531 129.121094 C 349.074219 128.632812 358.238281 127.609375 367.421875 127.230469 C 378.0625 126.785156 388.679688 127.183594 399.214844 129.304688 C 406.125 130.691406 412.847656 132.535156 419.269531 135.3125 C 424.148438 137.429688 428.859375 140.039062 433.390625 142.84375 C 437.550781 145.421875 441.625 148.273438 445.316406 151.476562 C 448.792969 154.480469 451.671875 158.171875 454.90625 161.480469 C 459.253906 165.933594 462.058594 171.453125 465.460938 176.5625 C 470.035156 183.4375 472.855469 191.003906 474.988281 198.808594 C 476.636719 204.832031 477.8125 211.070312 478.46875 217.292969 C 479.382812 225.894531 479.535156 234.554688 478.757812 243.203125 C 478.390625 247.257812 477.765625 251.296875 477.1875 255.324219 C 477.125 255.722656 476.574219 256.316406 476.226562 256.332031 C 474.714844 256.4375 473.207031 256.375 471.527344 256.375 Z M 471.527344 256.375 " fill-opacity="1" fill-rule="nonzero"/></g><g clip-path="url(#f868d0c08c)"><path fill="#b4aaa0" d="M 459.222656 256.375 C 459.601562 253.707031 459.9375 251.296875 460.273438 248.90625 C 461.601562 239.375 461.691406 229.8125 460.488281 220.28125 C 459.9375 215.949219 458.917969 211.648438 457.851562 207.410156 C 455.699219 198.886719 452.160156 190.925781 447.207031 183.667969 C 441.945312 175.964844 435.570312 169.410156 427.824219 164.085938 C 419.511719 158.367188 410.453125 154.480469 400.648438 152.527344 C 391.789062 150.757812 382.761719 149.980469 373.765625 151.582031 C 365.847656 152.984375 357.980469 154.585938 350.113281 156.203125 C 341.769531 157.925781 333.519531 160.167969 325.101562 161.433594 C 316.960938 162.667969 308.984375 161.507812 302.199219 156.234375 C 297.089844 152.269531 293.8125 147.007812 291.859375 140.832031 C 290.015625 134.992188 289.464844 128.96875 289.464844 122.945312 C 289.480469 111.796875 289.800781 100.632812 290.089844 89.488281 C 290.320312 81.007812 290.851562 72.542969 289.722656 64.097656 C 288.136719 52.308594 283.65625 42.03125 273.4375 35.257812 C 269.214844 32.46875 264.457031 30.347656 259.699219 28.535156 C 250.867188 25.179688 241.824219 22.328125 232.460938 20.910156 C 225.433594 19.84375 218.324219 18.925781 211.234375 18.605469 C 204.328125 18.285156 197.375 18.636719 190.449219 18.957031 C 181.253906 19.398438 172.332031 21.703125 163.65625 24.449219 C 155.085938 27.144531 146.761719 30.777344 139.273438 35.945312 C 135.765625 38.355469 132.121094 40.640625 128.949219 43.449219 C 124.542969 47.335938 120.347656 51.515625 116.335938 55.847656 C 111.089844 61.503906 106.835938 67.910156 103.390625 74.800781 C 97.976562 85.613281 94.226562 96.929688 92.882812 109.035156 C 91.070312 125.398438 93.113281 141.304688 98.328125 156.796875 C 101.40625 165.976562 105.023438 174.960938 108.238281 184.09375 C 110.070312 189.265625 111.746094 194.496094 111.503906 200.121094 C 111.304688 204.894531 107.324219 210.09375 102.917969 211.878906 C 97.0625 214.242188 90.871094 214.835938 84.753906 215.875 C 77.742188 217.0625 70.632812 217.824219 63.652344 219.152344 C 55.980469 220.617188 48.460938 222.765625 42.378906 228.042969 C 39.359375 230.652344 36.703125 233.53125 34.644531 237.132812 C 31.550781 242.546875 30.910156 248.507812 29.613281 254.347656 C 29.203125 256.179688 28.621094 257 26.671875 256.773438 C 25.28125 256.605469 23.863281 256.679688 22.460938 256.757812 C 21.273438 256.820312 20.722656 256.347656 20.890625 255.171875 C 21.746094 249.070312 21.972656 242.804688 23.621094 236.933594 C 26.226562 227.648438 31.929688 220.144531 40.578125 215.691406 C 45.199219 213.3125 50.519531 212.121094 55.644531 210.886719 C 60.476562 209.726562 65.464844 209.164062 70.390625 208.433594 C 73.882812 207.914062 77.390625 207.609375 80.882812 207.089844 C 86.203125 206.3125 91.496094 205.335938 95.71875 201.632812 C 97.703125 199.890625 98.664062 197.574219 99.089844 194.96875 C 99.882812 190.316406 98.953125 185.894531 97.734375 181.457031 C 94.941406 171.359375 92.03125 161.296875 89.511719 151.125 C 86.160156 137.554688 85.5625 123.765625 87.210938 109.890625 C 88.980469 94.898438 93.707031 80.839844 101.46875 67.9375 C 104.808594 62.386719 108.789062 57.128906 113.074219 52.261719 C 117.527344 47.214844 122.4375 42.503906 127.605469 38.1875 C 131.601562 34.863281 136.222656 32.253906 140.707031 29.554688 C 154.460938 21.246094 169.710938 17.144531 185.402344 14.855469 C 195.757812 13.34375 206.234375 13.179688 216.738281 14.125 C 227.277344 15.070312 237.691406 16.714844 247.789062 19.71875 C 256.175781 22.222656 264.578125 25.011719 272.492188 28.71875 C 286.171875 35.105469 292.972656 46.636719 294.785156 61.457031 C 295.808594 69.875 295.273438 78.261719 294.910156 86.664062 C 294.300781 100.785156 292.988281 114.9375 294.785156 129.042969 C 295.746094 136.515625 298.523438 143.378906 305.019531 147.96875 C 309.351562 151.035156 314.246094 152.496094 319.566406 152.664062 C 327.925781 152.925781 336.050781 151.476562 344.164062 149.675781 C 355.832031 147.082031 367.527344 144.796875 379.542969 144.445312 C 388.449219 144.1875 397.203125 144.933594 405.757812 147.328125 C 413.398438 149.460938 420.625 152.589844 427.394531 156.84375 C 435.8125 162.148438 442.644531 168.9375 448.652344 176.835938 C 453.183594 182.78125 456.949219 189.097656 459.390625 196.066406 C 461.738281 202.757812 463.875 209.5625 464.910156 216.699219 C 466.253906 225.9375 466.207031 235.148438 465.429688 244.40625 C 465.152344 247.625 464.589844 250.8125 464.300781 254.027344 C 464.117188 255.949219 463.261719 256.710938 461.371094 256.40625 C 460.792969 256.300781 460.183594 256.375 459.222656 256.375 Z M 459.222656 256.375 " fill-opacity="1" fill-rule="nonzero"/></g><g clip-path="url(#63aa11d635)"><path fill="#b4aaa0" d="M 447.984375 256.195312 C 448.425781 252.761719 448.972656 249.46875 449.25 246.144531 C 449.828125 239.28125 449.90625 232.433594 448.835938 225.558594 C 447.859375 219.335938 446.183594 213.375 444.140625 207.410156 C 441.730469 200.320312 437.980469 194.097656 433.238281 188.5625 C 429.714844 184.445312 425.519531 180.738281 421.082031 177.628906 C 413.761719 172.519531 405.511719 169.5625 396.5625 168.128906 C 385.644531 166.390625 375.058594 167.578125 364.539062 170.125 C 356.484375 172.078125 348.570312 174.546875 340.550781 176.589844 C 333.445312 178.40625 326.261719 179.671875 318.867188 179.015625 C 303.082031 177.613281 292.316406 169.347656 285.988281 155.027344 C 282.722656 147.664062 281.335938 139.824219 281.0625 131.894531 C 280.542969 116.660156 280.5 101.410156 280.207031 86.175781 C 280.054688 78.355469 279.414062 70.59375 277.097656 63.058594 C 273.726562 52.0625 266.742188 44.316406 256.28125 39.667969 C 248.277344 36.097656 239.859375 33.855469 231.226562 32.5 C 224.378906 31.417969 217.503906 30.472656 210.59375 30.027344 C 203.246094 29.554688 195.878906 30.027344 188.558594 31.082031 C 178.496094 32.515625 168.839844 35.214844 159.433594 39.101562 C 151.503906 42.367188 144.410156 46.925781 137.730469 52.078125 C 131.816406 56.640625 126.570312 62.097656 122.207031 68.214844 C 117.632812 74.617188 113.867188 81.433594 111.199219 88.921875 C 108.101562 97.613281 106.257812 106.488281 106.152344 115.699219 C 106.042969 125.839844 107.644531 135.722656 111.03125 145.316406 C 114.75 155.882812 119.800781 165.78125 125.546875 175.386719 C 129.164062 181.441406 132.578125 187.648438 135.644531 194.007812 C 138.402344 199.726562 139.394531 205.871094 137.425781 212.136719 C 136.085938 216.40625 133.292969 219.671875 129.789062 222.371094 C 124.9375 226.105469 119.203125 227.859375 113.425781 229.355469 C 102.949219 232.085938 92.363281 234.449219 81.902344 237.253906 C 77.375 238.472656 72.90625 240.152344 68.667969 242.148438 C 66.015625 243.398438 63.984375 245.886719 61.425781 247.394531 C 58.070312 249.378906 56.941406 252.855469 54.941406 255.765625 C 54.636719 256.207031 54.042969 256.695312 53.554688 256.710938 C 50.398438 256.789062 47.242188 256.757812 43.796875 256.757812 C 43.992188 256.011719 44.070312 255.429688 44.285156 254.914062 C 45.425781 252.152344 46.449219 249.316406 47.851562 246.691406 C 48.738281 245.03125 50.078125 243.535156 51.464844 242.242188 C 53.371094 240.441406 55.414062 238.734375 57.597656 237.269531 C 61.714844 234.523438 66.304688 232.710938 71.09375 231.625 C 81.890625 229.203125 92.777344 227.097656 103.589844 224.703125 C 108.863281 223.542969 114.203125 222.386719 118.945312 219.5625 C 124.25 216.421875 127.667969 211.910156 128.09375 205.671875 C 128.382812 201.449219 127.667969 197.222656 125.898438 193.351562 C 122.878906 186.761719 119.738281 180.234375 116.460938 173.769531 C 111.152344 163.324219 106.027344 152.832031 103.359375 141.304688 C 100.324219 128.25 99.667969 115.121094 102.261719 101.929688 C 104.078125 92.671875 107.140625 83.84375 111.839844 75.625 C 116.460938 67.542969 122.054688 60.3125 128.796875 53.832031 C 140.386719 42.714844 154.15625 35.609375 169.238281 30.777344 C 178.507812 27.800781 188.070312 26.492188 197.769531 25.851562 C 207.605469 25.195312 217.378906 25.699219 227.078125 27.238281 C 238.59375 29.066406 249.921875 31.828125 260.597656 36.585938 C 273.164062 42.199219 280.148438 52.261719 282.617188 65.636719 C 284.449219 75.546875 284.171875 85.550781 283.960938 95.539062 C 283.65625 110.589844 282.90625 125.6875 285.621094 140.617188 C 287.574219 151.367188 292.253906 160.65625 301.648438 166.878906 C 307.65625 170.859375 314.398438 172.472656 321.59375 172.367188 C 328.304688 172.277344 334.769531 170.84375 341.191406 169.148438 C 347.320312 167.53125 353.40625 165.75 359.550781 164.207031 C 370.242188 161.523438 381.070312 159.9375 392.125 160.945312 C 398.484375 161.523438 404.707031 162.867188 410.714844 165.230469 C 417.101562 167.746094 423.050781 170.949219 428.066406 175.644531 C 431.117188 178.496094 433.832031 181.699219 436.882812 184.550781 C 440.722656 188.121094 443.421875 192.527344 445.4375 197.179688 C 448 203.0625 449.964844 209.226562 451.796875 215.386719 C 452.910156 219.152344 453.566406 223.117188 453.886719 227.035156 C 454.265625 231.75 454.234375 236.523438 454.082031 241.265625 C 453.976562 244.96875 453.503906 248.675781 453.03125 252.351562 C 452.421875 256.988281 452.679688 256.589844 447.984375 256.195312 Z M 447.984375 256.195312 " fill-opacity="1" fill-rule="nonzero"/></g><g clip-path="url(#a37af56ac4)"><path fill="#b4aaa0" d="M 70.800781 256.164062 C 72.054688 255.097656 73.257812 253.953125 74.570312 252.976562 C 76.0625 251.863281 77.589844 250.78125 79.234375 249.910156 C 82.332031 248.277344 85.410156 246.570312 88.675781 245.351562 C 93.339844 243.597656 98.160156 242.253906 102.917969 240.730469 C 110.921875 238.183594 118.960938 235.714844 126.949219 233.074219 C 134.363281 230.621094 140.722656 226.5625 145.3125 220.113281 C 149.398438 214.363281 150.390625 207.960938 148.894531 201.128906 C 147.460938 194.523438 144.273438 188.730469 140.613281 183.148438 C 135.992188 176.117188 131.296875 169.148438 126.796875 162.042969 C 119.996094 151.292969 115.390625 139.613281 113.667969 127.015625 C 111.65625 112.332031 113.457031 98.117188 119.875 84.5625 C 123.414062 77.105469 127.835938 70.332031 133.449219 64.339844 C 143.285156 53.863281 155.285156 46.605469 168.644531 41.664062 C 177.335938 38.445312 186.394531 36.539062 195.710938 35.855469 C 205.242188 35.136719 214.726562 35.257812 224.152344 36.664062 C 234.171875 38.140625 244.113281 40.078125 253.355469 44.484375 C 262.472656 48.832031 268.558594 55.921875 271.988281 65.332031 C 274.320312 71.75 275.40625 78.445312 275.617188 85.230469 C 276 96.683594 276.121094 108.152344 276.519531 119.621094 C 276.851562 129.378906 277.523438 139.125 279.765625 148.667969 C 282.542969 160.457031 287.957031 170.707031 298.019531 177.996094 C 304.761719 182.875 312.355469 185.359375 320.648438 185.96875 C 330.972656 186.730469 340.855469 184.429688 350.78125 182.097656 C 359.492188 180.054688 368.242188 178.117188 377.074219 176.667969 C 385.246094 175.324219 393.449219 175.828125 401.503906 178.148438 C 406.917969 179.703125 412.023438 181.882812 416.738281 184.949219 C 418.519531 186.105469 420.289062 187.34375 421.800781 188.804688 C 426.878906 193.746094 431.847656 198.855469 434.945312 205.304688 C 438.238281 212.167969 441.03125 219.230469 442.128906 226.898438 C 443.421875 235.957031 443.378906 244.984375 441.988281 254.011719 C 441.578125 256.695312 441.53125 256.683594 437.84375 256.164062 C 437.980469 254.59375 438.207031 252.992188 438.253906 251.390625 C 438.375 245.246094 438.847656 239.082031 438.40625 232.96875 C 437.996094 227.296875 436.53125 221.730469 434.53125 216.300781 C 432.382812 210.507812 429.578125 205.125 425.582031 200.488281 C 422.882812 197.347656 419.632812 194.632812 416.433594 191.964844 C 410.148438 186.703125 402.644531 184.019531 394.714844 182.753906 C 388.21875 181.714844 381.585938 181.5625 375.058594 182.8125 C 363.882812 184.964844 352.75 187.449219 341.558594 189.539062 C 331.15625 191.492188 320.710938 191.917969 310.433594 188.699219 C 296.144531 184.230469 286.6875 174.546875 280.894531 160.992188 C 277.433594 152.878906 275.816406 144.277344 275.191406 135.570312 C 274.292969 122.804688 274 109.996094 273.132812 97.21875 C 272.597656 89.457031 272.050781 81.601562 270.496094 73.992188 C 267.140625 57.691406 256.632812 47.886719 240.726562 43.691406 C 228.160156 40.382812 215.414062 38.492188 202.390625 39.070312 C 192.449219 39.527344 182.703125 41.039062 173.140625 44.074219 C 166.554688 46.164062 160.394531 49.089844 154.550781 52.523438 C 148.347656 56.179688 142.6875 60.742188 137.625 66.046875 C 131.785156 72.179688 127.257812 79.101562 123.808594 86.742188 C 120.851562 93.3125 118.976562 100.207031 118.289062 107.480469 C 117.726562 113.550781 117.726562 119.496094 118.699219 125.503906 C 120.164062 134.441406 123.046875 142.875 127.257812 150.867188 C 132.226562 160.273438 138.359375 168.890625 144.5625 177.507812 C 147.933594 182.1875 151.046875 187.144531 153.605469 192.296875 C 157.464844 200.089844 158.824219 208.371094 155.117188 216.683594 C 151.914062 223.863281 146.699219 229.445312 139.59375 232.832031 C 133.21875 235.867188 126.660156 238.519531 120.074219 241.050781 C 113.941406 243.414062 107.628906 245.304688 101.46875 247.59375 C 97.566406 249.042969 93.738281 250.765625 89.957031 252.535156 C 87.605469 253.632812 85.425781 255.066406 83.167969 256.332031 C 82.910156 256.484375 82.621094 256.652344 82.332031 256.652344 C 78.578125 256.667969 74.828125 256.667969 71.078125 256.667969 C 71 256.527344 70.910156 256.347656 70.800781 256.164062 Z M 70.800781 256.164062 " fill-opacity="1" fill-rule="nonzero"/></g><g clip-path="url(#cca0e0d57c)"><path fill="#b4aaa0" d="M 101.027344 256.148438 C 106.332031 253.859375 111.65625 251.574219 116.960938 249.269531 C 125.882812 245.382812 134.957031 241.796875 143.679688 237.496094 C 150.511719 234.144531 156.304688 229.261719 160.515625 222.707031 C 165.5625 214.867188 166.445312 206.511719 163.929688 197.652344 C 161.75 189.949219 157.632812 183.300781 152.953125 176.941406 C 147.066406 168.953125 140.828125 161.175781 135.476562 152.832031 C 126.355469 138.621094 122.179688 122.957031 124.191406 105.972656 C 124.921875 99.78125 126.660156 93.847656 129.222656 88.128906 C 132.195312 81.511719 136.191406 75.671875 140.996094 70.257812 C 148.773438 61.503906 158.304688 55.207031 168.886719 50.660156 C 179.226562 46.207031 190.175781 43.921875 201.503906 43.449219 C 215.152344 42.867188 228.511719 44.316406 241.550781 48.34375 C 253.734375 52.109375 261.910156 60.160156 266.101562 72.238281 C 268.359375 78.75 269.351562 85.507812 269.808594 92.324219 C 270.554688 103.453125 270.921875 114.601562 271.730469 125.71875 C 272.582031 137.507812 273.804688 149.28125 277.9375 160.488281 C 283.746094 176.269531 294.175781 187.539062 310.402344 192.832031 C 319.292969 195.730469 328.503906 196.203125 337.714844 194.90625 C 347.535156 193.519531 357.324219 191.78125 367.113281 190.164062 C 375.683594 188.746094 384.300781 188.027344 392.933594 189.371094 C 398.941406 190.300781 404.675781 192.085938 409.890625 195.5 C 413.582031 197.925781 416.78125 200.746094 419.878906 203.871094 C 422.851562 206.875 425.367188 210.15625 427.089844 213.890625 C 429.773438 219.730469 432.109375 225.695312 433.113281 232.175781 C 434.242188 239.402344 434.167969 246.554688 433.449219 253.769531 C 433.191406 256.4375 433.007812 256.574219 429.074219 256.269531 C 429.074219 255.660156 429.011719 255.003906 429.089844 254.378906 C 429.835938 248.066406 429.898438 241.78125 428.859375 235.46875 C 427.335938 226.242188 424.347656 217.613281 418.308594 210.382812 C 415.304688 206.785156 411.75 203.660156 407.648438 201.171875 C 397.09375 194.785156 385.566406 193.761719 373.703125 194.875 C 366.488281 195.5625 359.339844 196.765625 352.15625 197.742188 C 341.023438 199.265625 329.90625 200.609375 318.683594 198.671875 C 301.800781 195.773438 289.175781 186.855469 280.636719 172.0625 C 275.90625 163.875 273.527344 154.90625 271.929688 145.664062 C 269.671875 132.734375 269.03125 119.648438 268.191406 106.582031 C 267.550781 96.609375 266.910156 86.648438 263.984375 76.964844 C 259.878906 63.347656 251.050781 54.625 237.449219 50.675781 C 229.992188 48.511719 222.335938 47.519531 214.605469 46.957031 C 206.234375 46.34375 197.90625 46.757812 189.703125 48.296875 C 185.003906 49.183594 180.414062 50.738281 175.808594 52.0625 C 169.054688 54 162.984375 57.523438 157.296875 61.410156 C 152.128906 64.933594 147.15625 68.976562 143.421875 74.222656 C 141.941406 76.296875 140.234375 78.203125 138.800781 80.320312 C 133.980469 87.414062 131.082031 95.21875 129.648438 103.714844 C 127.851562 114.296875 129.175781 124.46875 132.761719 134.441406 C 135.246094 141.363281 138.738281 147.800781 143.054688 153.746094 C 147.875 160.394531 152.980469 166.832031 157.890625 173.417969 C 163.976562 181.59375 169.175781 190.210938 171.097656 200.441406 C 173.035156 210.765625 170.703125 219.898438 163.746094 227.8125 C 158.105469 234.234375 151.214844 238.992188 143.589844 242.714844 C 136.757812 246.039062 129.816406 249.132812 122.941406 252.367188 C 120.257812 253.632812 117.617188 255.019531 114.964844 256.332031 C 114.644531 256.484375 114.292969 256.695312 113.957031 256.695312 C 109.71875 256.726562 105.464844 256.710938 101.226562 256.710938 C 101.117188 256.527344 101.074219 256.347656 101.027344 256.148438 Z M 101.027344 256.148438 " fill-opacity="1" fill-rule="nonzero"/></g><g clip-path="url(#7d698e6f39)"><path fill="#b4aaa0" d="M 129.679688 256.742188 C 137.761719 252.230469 145.722656 248.003906 153.4375 243.382812 C 160.988281 238.855469 168.003906 233.578125 173.21875 226.273438 C 177.609375 220.160156 179.300781 213.25 178.675781 205.871094 C 177.535156 192.296875 171.511719 180.679688 163.488281 169.972656 C 157.496094 161.980469 150.9375 154.359375 145.539062 145.984375 C 136.023438 131.238281 132.394531 115.121094 137.273438 97.78125 C 139.304688 90.570312 142.796875 84.101562 147.523438 78.203125 C 153.578125 70.621094 161.050781 64.828125 169.496094 60.359375 C 179.578125 55.023438 190.464844 52.261719 201.871094 51.5 C 211.921875 50.828125 221.832031 51.574219 231.652344 53.742188 C 247.027344 57.140625 257 66.429688 261.039062 81.585938 C 262.871094 88.433594 263.875 95.570312 264.625 102.632812 C 266.316406 118.6875 266.878906 134.855469 270.1875 150.726562 C 272.722656 162.882812 276.992188 174.257812 285.148438 183.867188 C 295.472656 196.035156 308.863281 202.195312 324.539062 203.933594 C 335.167969 205.109375 345.71875 203.902344 356.273438 202.941406 C 364.949219 202.148438 373.613281 201.25 382.363281 201.953125 C 389.394531 202.5 396.089844 204.332031 402.203125 207.683594 C 405.390625 209.421875 408.210938 212.03125 410.773438 214.652344 C 413.261719 217.199219 415.59375 220.050781 417.269531 223.164062 C 420.6875 229.460938 422.957031 236.21875 423.140625 243.492188 C 423.234375 247.011719 423.019531 250.550781 423.140625 254.058594 C 423.203125 256.042969 422.457031 256.710938 420.59375 256.40625 C 420.183594 256.347656 419.757812 256.363281 419.238281 256.347656 C 419.238281 254.410156 419.222656 252.535156 419.238281 250.671875 C 419.285156 244.542969 418.339844 238.609375 416.355469 232.769531 C 414.953125 228.636719 412.953125 224.902344 410.285156 221.609375 C 407.710938 218.421875 404.613281 215.691406 401.046875 213.464844 C 396.121094 210.382812 390.796875 208.371094 385.15625 207.347656 C 377.210938 205.902344 369.160156 206.054688 361.105469 206.554688 C 350.339844 207.226562 339.605469 208.234375 328.792969 207.546875 C 301.664062 205.808594 281.183594 190.421875 272.21875 164.742188 C 269 155.546875 267.183594 146.03125 266.027344 136.410156 C 264.425781 123.15625 263.203125 109.875 261.542969 96.625 C 260.964844 91.988281 259.867188 87.367188 258.492188 82.898438 C 253.84375 67.679688 243.394531 58.851562 227.855469 55.953125 C 216.558594 53.847656 205.210938 53.527344 193.882812 55.664062 C 187.597656 56.835938 181.347656 58.332031 175.640625 61.367188 C 170.976562 63.851562 166.113281 66.15625 161.980469 69.371094 C 157.753906 72.667969 154.09375 76.785156 150.601562 80.886719 C 145.386719 87.03125 142.382812 94.398438 140.828125 102.234375 C 138.3125 114.832031 140.828125 126.742188 146.761719 137.949219 C 151.394531 146.71875 157.496094 154.496094 163.703125 162.195312 C 170.730469 170.949219 176.527344 180.464844 180.234375 191.125 C 182.945312 198.933594 184.457031 206.875 183.175781 215.203125 C 182.261719 221.148438 179.53125 226.152344 175.613281 230.558594 C 169.800781 237.101562 162.664062 242.011719 155.285156 246.570312 C 149.902344 249.894531 144.410156 253.050781 138.96875 256.269531 C 138.554688 256.515625 138.066406 256.726562 137.625 256.742188 C 135.035156 256.757812 132.425781 256.742188 129.679688 256.742188 Z M 129.679688 256.742188 " fill-opacity="1" fill-rule="nonzero"/></g><g clip-path="url(#e301459ff6)"><path fill="#b4aaa0" d="M 148.863281 256.347656 C 150.710938 255.109375 152.554688 253.859375 154.398438 252.625 C 162.636719 247.105469 171.113281 241.949219 178.449219 235.210938 C 187.828125 226.59375 190.710938 215.917969 188.605469 203.644531 C 186.105469 189.003906 180.066406 175.84375 171.570312 163.78125 C 166.875 157.101562 161.6875 150.773438 156.976562 144.125 C 152.402344 137.660156 148.925781 130.582031 147.09375 122.851562 C 144.960938 113.855469 145.144531 104.886719 148.347656 96.089844 C 150.144531 91.148438 152.738281 86.695312 155.925781 82.488281 C 161.171875 75.578125 167.820312 70.378906 175.308594 66.398438 C 184.867188 61.320312 195.207031 58.683594 206.082031 58.132812 C 214.039062 57.722656 221.894531 58.164062 229.640625 60.054688 C 242.222656 63.136719 250.578125 70.941406 255.230469 82.929688 C 258.003906 90.082031 259.316406 97.570312 260.277344 105.132812 C 262.289062 120.992188 263.386719 136.972656 266.863281 152.621094 C 269.761719 165.671875 274.367188 177.933594 283.167969 188.273438 C 292.210938 198.871094 303.585938 205.535156 317.128906 208.78125 C 328.65625 211.542969 340.320312 211.421875 352.019531 211.070312 C 362.675781 210.734375 373.351562 210.261719 383.859375 212.71875 C 390.308594 214.226562 396.242188 216.789062 401.242188 221.347656 C 404.828125 224.613281 408.121094 228.121094 410.089844 232.542969 C 412.605469 238.214844 414.464844 244.117188 414.449219 250.445312 C 414.449219 251.953125 414.554688 253.464844 414.648438 254.972656 C 414.707031 255.964844 414.34375 256.375 413.304688 256.421875 C 410.285156 256.558594 410.410156 256.453125 410.195312 253.355469 C 409.964844 249.988281 409.371094 246.617188 408.640625 243.324219 C 408.121094 240.976562 407.34375 238.625 406.277344 236.476562 C 401.242188 226.273438 392.933594 220.191406 382.042969 217.214844 C 373.351562 214.851562 364.507812 214.683594 355.617188 214.578125 C 347.886719 214.472656 340.125 214.5 332.421875 213.953125 C 312.902344 212.566406 295.777344 205.824219 282.695312 190.636719 C 275.953125 182.8125 271.316406 173.816406 268.285156 163.996094 C 264.730469 152.464844 262.761719 140.601562 261.207031 128.664062 C 259.652344 116.78125 258.765625 104.796875 255.734375 93.144531 C 253.871094 86.023438 251.203125 79.253906 246.277344 73.582031 C 240.269531 66.640625 232.445312 63.136719 223.570312 61.824219 C 213.71875 60.359375 203.945312 60.773438 194.214844 63.121094 C 186.089844 65.085938 178.617188 68.320312 171.648438 73 C 167.53125 75.761719 164.023438 79.117188 160.957031 82.820312 C 155.359375 89.5625 151.808594 97.308594 150.878906 106.214844 C 149.597656 118.507812 153.453125 129.332031 159.996094 139.351562 C 164.617188 146.441406 169.773438 153.183594 174.46875 160.230469 C 183.449219 173.710938 190.023438 188.242188 192.78125 204.332031 C 193.851562 210.566406 193.972656 216.804688 192.035156 222.980469 C 190.296875 228.515625 186.957031 232.984375 182.6875 236.703125 C 178.9375 239.96875 174.910156 242.925781 170.871094 245.839844 C 165.988281 249.347656 160.972656 252.6875 155.972656 256.027344 C 155.269531 256.5 154.308594 256.695312 153.453125 256.757812 C 152.007812 256.878906 150.542969 256.789062 149.078125 256.789062 C 149 256.621094 148.925781 256.484375 148.863281 256.347656 Z M 148.863281 256.347656 " fill-opacity="1" fill-rule="nonzero"/></g><g clip-path="url(#b940bfc5b6)"><path fill="#b4aaa0" d="M 163.839844 256.285156 C 166.082031 254.667969 168.351562 253.066406 170.578125 251.449219 C 176.175781 247.363281 181.941406 243.476562 187.339844 239.144531 C 197.207031 231.214844 199.949219 220.601562 198.121094 208.476562 C 195.496094 191.09375 189.0625 175.082031 180.109375 160.089844 C 175.519531 152.40625 170.183594 145.175781 165.394531 137.613281 C 159.464844 128.234375 155.773438 118.125 156.945312 106.808594 C 157.710938 99.476562 160.300781 92.824219 164.847656 86.878906 C 169.34375 80.992188 174.878906 76.371094 181.238281 72.832031 C 190.097656 67.894531 199.78125 65.621094 209.910156 65.054688 C 216.601562 64.675781 223.207031 65.101562 229.59375 67.207031 C 240.773438 70.882812 247.453125 79.039062 251.464844 89.730469 C 254.175781 96.957031 255.441406 104.539062 256.679688 112.117188 C 258.964844 126.160156 260.980469 140.265625 263.722656 154.234375 C 266.101562 166.3125 270.480469 177.75 277.753906 187.875 C 288.839844 203.308594 304.042969 212.199219 322.449219 215.980469 C 333.0625 218.160156 343.859375 218.40625 354.640625 218.9375 C 361.945312 219.304688 369.25 219.839844 376.339844 221.777344 C 383.371094 223.683594 389.882812 226.746094 394.824219 232.222656 C 398.148438 235.910156 401.136719 239.96875 402.160156 245.09375 C 402.660156 247.59375 403.410156 250.03125 403.914062 252.535156 C 404.140625 253.691406 404.066406 254.929688 404.140625 256.253906 C 403.394531 256.316406 402.859375 256.316406 402.339844 256.390625 C 400.449219 256.710938 400.054688 255.707031 399.855469 254.027344 C 399.183594 248.277344 397.445312 242.972656 393.878906 238.199219 C 387.824219 230.085938 379.511719 225.894531 369.9375 224.183594 C 362.097656 222.796875 354.136719 222.050781 346.191406 221.332031 C 334.589844 220.28125 323.011719 219.246094 311.910156 215.308594 C 290.667969 207.777344 276.257812 193.199219 267.886719 172.457031 C 263.722656 162.136719 261.34375 151.324219 259.4375 140.402344 C 257.195312 127.578125 255.167969 114.707031 252.789062 101.898438 C 251.644531 95.769531 249.496094 89.914062 246.308594 84.5 C 240.847656 75.226562 232.78125 69.90625 222.152344 68.273438 C 213.1875 66.902344 204.464844 68.03125 195.773438 70.316406 C 188.757812 72.164062 182.398438 75.378906 176.785156 79.789062 C 171.921875 83.613281 167.867188 88.265625 165.105469 94.046875 C 161.660156 101.242188 160.453125 108.671875 161.734375 116.433594 C 162.878906 123.371094 165.820312 129.652344 169.453125 135.660156 C 175.902344 146.289062 182.933594 156.585938 188.132812 167.929688 C 194.003906 180.722656 198.898438 193.824219 201.230469 207.777344 C 202.054688 212.671875 202.421875 217.582031 201.65625 222.523438 C 200.546875 229.644531 197.191406 235.589844 191.578125 240.015625 C 186.058594 244.375 180.203125 248.324219 174.484375 252.457031 C 173.050781 253.496094 171.523438 254.410156 170.183594 255.539062 C 168.277344 257.167969 166.125 256.636719 164.039062 256.710938 C 163.976562 256.589844 163.902344 256.4375 163.839844 256.285156 Z M 163.839844 256.285156 " fill-opacity="1" fill-rule="nonzero"/></g><g clip-path="url(#60136fd216)"><path fill="#b4aaa0" d="M 175.933594 256.527344 C 179.515625 254.148438 182.917969 251.9375 186.273438 249.667969 C 192.296875 245.582031 198.332031 241.492188 202.390625 235.210938 C 205.714844 230.054688 206.613281 224.324219 206.460938 218.296875 C 206.261719 210.246094 204.328125 202.53125 202.101562 194.875 C 198.027344 180.816406 192.691406 167.242188 185.84375 154.296875 C 182.71875 148.378906 179.195312 142.675781 175.933594 136.820312 C 172.457031 130.597656 169.117188 124.300781 167.820312 117.164062 C 166.265625 108.546875 167.5 100.449219 172.058594 92.839844 C 175.976562 86.300781 181.621094 81.617188 188.117188 78.066406 C 197.753906 72.773438 208.261719 70.59375 219.195312 71.554688 C 232.25 72.695312 241.335938 79.664062 246.707031 91.589844 C 249.753906 98.390625 251.539062 105.558594 252.910156 112.816406 C 254.496094 121.207031 255.914062 129.609375 257.289062 138.027344 C 259.027344 148.746094 261.496094 159.285156 265.050781 169.53125 C 269.257812 181.667969 275.710938 192.449219 285.058594 201.355469 C 295.246094 211.070312 307.414062 217.09375 321.015625 220.402344 C 331.019531 222.84375 341.253906 223.683594 351.4375 224.839844 C 358.789062 225.664062 366.140625 226.640625 373.125 229.203125 C 378.550781 231.199219 383.523438 233.945312 387.457031 238.382812 C 390.234375 241.507812 392.597656 244.847656 393.878906 248.828125 C 394.640625 251.160156 395.050781 253.617188 395.691406 256.363281 C 394.304688 256.363281 393.117188 256.4375 391.941406 256.316406 C 391.605469 256.269531 391.132812 255.644531 391.070312 255.234375 C 390.234375 249.773438 387.6875 245.199219 384.011719 241.171875 C 376.738281 233.167969 367.007812 230.453125 356.914062 228.605469 C 344.742188 226.382812 332.347656 225.542969 320.34375 222.371094 C 304.347656 218.132812 290.53125 210.308594 279.628906 197.726562 C 271.164062 187.984375 265.765625 176.574219 262.0625 164.300781 C 258.601562 152.816406 256.34375 141.058594 254.253906 129.257812 C 252.453125 119.054688 250.867188 108.792969 247.316406 99.003906 C 244.632812 91.558594 240.925781 84.789062 234.292969 80.0625 C 229.382812 76.554688 223.832031 74.832031 217.824219 74.480469 C 209.632812 74.007812 201.796875 75.410156 194.398438 78.980469 C 191.347656 80.445312 188.132812 81.816406 185.539062 83.921875 C 175.445312 92.140625 169.269531 103.316406 172.972656 118.550781 C 174.589844 125.199219 177.730469 131.179688 180.859375 137.140625 C 189.109375 152.910156 196.535156 169.027344 202.039062 185.984375 C 205.058594 195.300781 207.878906 204.664062 209.269531 214.378906 C 210.257812 221.363281 210.242188 228.363281 206.902344 234.890625 C 204.386719 239.816406 200.5 243.535156 196.0625 246.679688 C 192.355469 249.300781 188.359375 251.527344 184.777344 254.316406 C 182.183594 256.390625 179.5 257.261719 175.933594 256.527344 Z M 175.933594 256.527344 " fill-opacity="1" fill-rule="nonzero"/></g><g clip-path="url(#f0d549368a)"><path fill="#b4aaa0" d="M 188.484375 256.667969 C 191.746094 254.5 194.644531 252.640625 197.480469 250.671875 C 202.144531 247.441406 206.707031 244.117188 209.769531 239.160156 C 213.429688 233.226562 214.164062 226.714844 213.492188 219.976562 C 212.347656 208.492188 208.902344 197.558594 205.410156 186.65625 C 200.332031 170.796875 194.15625 155.363281 187.09375 140.265625 C 184.378906 134.488281 181.820312 128.601562 179.621094 122.609375 C 176.464844 113.945312 176.542969 105.269531 181.011719 96.957031 C 183.113281 93.039062 186.132812 89.929688 189.640625 87.214844 C 197.921875 80.777344 207.332031 77.835938 217.761719 78.386719 C 229.121094 78.980469 237.144531 84.820312 242.449219 94.6875 C 246.324219 101.898438 248.382812 109.722656 250.042969 117.667969 C 252.4375 129.011719 254.511719 140.417969 257.074219 151.71875 C 259.699219 163.355469 263.191406 174.746094 269 185.269531 C 280.558594 206.191406 298.292969 219.183594 321.199219 225.101562 C 330.777344 227.570312 340.613281 229.109375 350.324219 231.046875 C 357.917969 232.558594 365.4375 234.3125 372.191406 238.351562 C 376.433594 240.882812 379.957031 244.054688 382.488281 248.417969 C 383.90625 250.871094 385.046875 253.328125 385.75 256.042969 C 382.777344 256.925781 382.257812 256.683594 381.265625 254.121094 C 378.476562 246.890625 373.015625 242.242188 366.335938 238.855469 C 360.023438 235.652344 353.207031 234.082031 346.34375 232.664062 C 334.863281 230.269531 323.273438 228.257812 312.246094 224.046875 C 287.070312 214.425781 270.632812 196.429688 261.679688 171.253906 C 257.210938 158.6875 254.421875 145.695312 251.769531 132.671875 C 249.785156 122.972656 248.03125 113.199219 244.449219 103.914062 C 241.917969 97.355469 238.652344 91.238281 232.917969 86.863281 C 227.09375 82.425781 220.492188 80.886719 213.1875 81.375 C 206.082031 81.847656 199.628906 84.117188 194.003906 88.160156 C 184.976562 94.640625 179.972656 104.660156 182.414062 117.269531 C 184.136719 126.144531 187.949219 134.304688 191.363281 142.570312 C 200.957031 165.792969 209.542969 189.371094 215.046875 213.953125 C 216.648438 221.121094 217.394531 228.410156 215.078125 235.636719 C 213.445312 240.746094 210.289062 244.789062 206.097656 247.988281 C 202.816406 250.492188 199.234375 252.609375 196.015625 255.203125 C 193.789062 256.894531 191.472656 256.820312 188.484375 256.667969 Z M 188.484375 256.667969 " fill-opacity="1" fill-rule="nonzero"/></g><g clip-path="url(#3a9e7ec51b)"><path fill="#b4aaa0" d="M 203.457031 256.605469 C 206.691406 254.027344 210.0625 251.527344 213.203125 248.765625 C 219.714844 243.046875 221.773438 235.5625 221.175781 227.203125 C 220.398438 216.117188 217.183594 205.566406 213.8125 195.089844 C 207.941406 176.851562 201.75 158.703125 195.789062 140.496094 C 193.667969 134.03125 191.472656 127.550781 189.886719 120.929688 C 188.300781 114.390625 188.4375 107.769531 191.546875 101.519531 C 194.765625 95.066406 200.132812 91.164062 206.660156 88.539062 C 212.179688 86.3125 217.839844 86.070312 223.480469 87.640625 C 230.554688 89.609375 235.480469 94.382812 239.050781 100.632812 C 243.015625 107.558594 245.273438 115.136719 247.132812 122.835938 C 249.96875 134.609375 252.546875 146.457031 255.609375 158.171875 C 258.933594 170.828125 263.449219 183.042969 270.785156 194.035156 C 281.945312 210.765625 297.316406 222.066406 316.273438 228.332031 C 325.878906 231.519531 335.792969 233.808594 345.566406 236.492188 C 353.453125 238.65625 361.273438 240.976562 367.695312 246.34375 C 369.523438 247.882812 371.09375 249.789062 372.574219 251.679688 C 373.597656 252.992188 374.296875 254.5625 375.152344 256.054688 C 372.359375 256.742188 371.78125 256.695312 370.378906 254.347656 C 366.398438 247.699219 360.269531 243.828125 353.269531 241.417969 C 344.484375 238.398438 335.503906 235.957031 326.566406 233.335938 C 314.777344 229.875 303.480469 225.390625 293.292969 218.359375 C 276.945312 207.074219 266.210938 191.597656 259.421875 173.113281 C 254.710938 160.289062 251.628906 147.023438 248.488281 133.769531 C 246.234375 124.253906 244.050781 114.707031 239.644531 105.894531 C 236.457031 99.519531 232.171875 94.136719 225.339844 91.4375 C 220.582031 89.5625 215.640625 89.242188 210.714844 90.78125 C 208.308594 91.546875 205.730469 92.230469 203.6875 93.617188 C 199.265625 96.621094 195.832031 100.589844 194.15625 105.847656 C 191.824219 113.183594 192.707031 120.503906 194.839844 127.609375 C 199.78125 144.15625 205.121094 160.59375 210.105469 177.125 C 214.238281 190.851562 218.296875 204.621094 222.015625 218.464844 C 223.738281 224.871094 224.5625 231.519531 223.023438 238.152344 C 221.621094 244.222656 218.15625 248.917969 213.171875 252.550781 C 212.441406 253.082031 211.691406 253.632812 211.019531 254.257812 C 208.824219 256.253906 206.402344 257.398438 203.457031 256.605469 Z M 203.457031 256.605469 " fill-opacity="1" fill-rule="nonzero"/></g><g clip-path="url(#a028f834ff)"><path fill="#b4aaa0" d="M 214.40625 256.46875 C 215.671875 255.371094 216.9375 254.273438 218.21875 253.175781 C 223.34375 248.765625 226.40625 243.308594 226.820312 236.460938 C 227.277344 229.035156 225.769531 221.882812 223.722656 214.851562 C 219.378906 199.894531 214.710938 185.023438 210.335938 170.066406 C 206.417969 156.675781 202.589844 143.257812 198.972656 129.789062 C 197.554688 124.5 196.992188 119.007812 197.601562 113.472656 C 198.5625 104.8125 202.953125 98.574219 211.113281 95.539062 C 218.433594 92.8125 225.25 94.304688 231.179688 99.488281 C 235.96875 103.667969 238.988281 109.082031 240.910156 114.953125 C 243.882812 124.070312 246.476562 133.328125 248.917969 142.601562 C 252.453125 156.050781 255.960938 169.5 261.726562 182.21875 C 272.140625 205.199219 289.191406 221.316406 312.550781 230.542969 C 322.160156 234.339844 332.132812 237.175781 341.921875 240.457031 C 348.648438 242.714844 355.234375 245.246094 360.785156 249.820312 C 362.890625 251.542969 364.8125 253.464844 366.015625 256.164062 C 364.234375 256.589844 363.148438 256.285156 361.992188 254.835938 C 358.179688 250.0625 353.132812 246.816406 347.519531 244.664062 C 339.40625 241.554688 331.140625 238.792969 322.9375 235.925781 C 310.738281 231.671875 299.117188 226.320312 288.855469 218.328125 C 274.566406 207.210938 264.851562 192.832031 258.308594 176.089844 C 253.230469 163.09375 249.847656 149.613281 246.277344 136.179688 C 243.992188 127.59375 241.640625 119.007812 237.433594 111.09375 C 235.527344 107.511719 233.226562 104.1875 229.976562 101.714844 C 224.667969 97.675781 218.890625 96.164062 212.378906 98.773438 C 205.195312 101.65625 201.949219 107.359375 200.894531 114.570312 C 199.875 121.570312 201.199219 128.433594 202.726562 135.21875 C 207.957031 158.414062 215.183594 181.042969 222.078125 203.75 C 224.746094 212.550781 227.628906 221.304688 228.695312 230.484375 C 229.441406 236.949219 229.398438 243.367188 225.324219 248.890625 C 223.390625 251.511719 221.054688 253.890625 218.601562 256.042969 C 217.699219 256.835938 215.945312 256.667969 214.574219 256.941406 C 214.511719 256.804688 214.46875 256.636719 214.40625 256.46875 Z M 214.40625 256.46875 " fill-opacity="1" fill-rule="nonzero"/></g></g></g></g></g><g clip-path="url(#b710e62de0)"><g mask="url(#0caeb12428)"><g transform="matrix(1, 0, 0, 1, 0, -0.000000000000001776)"><g clip-path="url(#fde8ca82d2)"><g clip-path="url(#931c53b4fb)"><g clip-path="url(#e050701d10)"><g clip-path="url(#1dd7b43e54)"><path fill="#b4aaa0" d="M -106.386719 154.636719 C -104.992188 157.0625 -103.769531 159.292969 -102.457031 161.457031 C -100.660156 164.417969 -98.910156 167.414062 -96.945312 170.269531 C -94.980469 173.121094 -92.882812 175.894531 -90.664062 178.554688 C -87.582031 182.230469 -84.492188 185.933594 -81.121094 189.332031 C -72.042969 198.488281 -61.496094 205.640625 -49.449219 210.199219 C -43.636719 212.402344 -37.425781 213.613281 -31.332031 214.972656 C -28.039062 215.714844 -24.597656 215.867188 -21.214844 216.195312 C -15.566406 216.742188 -9.933594 216.503906 -4.339844 215.484375 C -0.878906 214.855469 2.632812 214.363281 6.023438 213.464844 C 9.585938 212.511719 13.171875 211.390625 16.515625 209.875 C 21.933594 207.40625 27.40625 204.933594 32.417969 201.777344 C 42.785156 195.257812 51.753906 187.046875 60.082031 178.058594 C 65.410156 172.3125 71.15625 166.917969 76.953125 161.636719 C 80.605469 158.324219 84.824219 155.613281 89.683594 154.351562 C 97.554688 152.300781 104.347656 154.507812 110.050781 160.210938 C 117.613281 167.761719 123.386719 176.664062 129.363281 185.433594 C 135.601562 194.597656 141.375 204.109375 149.25 212.074219 C 158.410156 221.339844 169.199219 226.203125 182.457031 224.882812 C 190.703125 224.058594 198.546875 221.664062 206.351562 219.039062 C 210.90625 217.503906 215.457031 215.941406 219.910156 214.140625 C 224.144531 212.433594 228.3125 210.566406 232.359375 208.460938 C 237.324219 205.894531 242.273438 203.242188 246.972656 200.226562 C 251.632812 197.238281 255.898438 193.671875 260.453125 190.519531 C 266.863281 186.074219 271.933594 180.214844 277.492188 174.851562 C 284.671875 167.914062 290.046875 159.644531 295.15625 151.253906 C 298.476562 145.785156 301.023438 139.746094 303.257812 133.722656 C 306.449219 125.171875 308.597656 116.304688 309.5625 107.164062 C 310.65625 96.875 310.628906 86.59375 309.0625 76.40625 C 306.71875 60.933594 301.445312 46.417969 293.351562 33 C 288.164062 24.417969 282.207031 16.382812 275.292969 9.105469 C 269.953125 3.507812 264.511719 -1.996094 259.144531 -7.554688 C 255.386719 -11.441406 251.457031 -15.199219 248.726562 -19.976562 C 246.011719 -24.730469 245.964844 -29.550781 249.246094 -33.828125 C 252.441406 -38 256.21875 -41.753906 259.804688 -45.632812 C 264.148438 -50.308594 268.792969 -54.734375 272.886719 -59.609375 C 276.738281 -64.199219 279.09375 -69.632812 280.476562 -75.570312 C 281.578125 -80.28125 281.574219 -84.964844 280.730469 -89.542969 C 280.042969 -93.265625 278.425781 -96.84375 277.121094 -100.445312 C 274.023438 -109.019531 267.976562 -115.554688 263.015625 -122.851562 C 262.253906 -123.957031 262.269531 -124.597656 263.410156 -125.367188 C 264.785156 -126.273438 266.082031 -127.292969 267.351562 -128.34375 C 268.257812 -129.089844 268.886719 -129.066406 269.601562 -128.097656 C 274.152344 -121.976562 278.925781 -116.011719 283.234375 -109.730469 C 285.386719 -106.578125 286.710938 -102.855469 288.394531 -99.386719 C 289.332031 -97.4375 290.359375 -95.519531 291.136719 -93.507812 C 291.738281 -91.953125 292.097656 -90.316406 292.445312 -88.6875 C 292.910156 -86.457031 293.402344 -84.210938 293.621094 -81.949219 C 294.226562 -75.582031 293.308594 -69.460938 290.929688 -63.457031 C 288.207031 -56.5625 283.476562 -51.132812 278.890625 -45.566406 C 275.800781 -41.816406 272.300781 -38.40625 269.179688 -34.671875 C 264.195312 -28.746094 263.925781 -22.195312 267.875 -15.757812 C 271.117188 -10.484375 274.886719 -5.515625 278.578125 -0.507812 C 284.46875 7.464844 290.957031 14.988281 296.089844 23.550781 C 303.839844 36.484375 309.609375 50.1875 313.070312 64.832031 C 314.90625 72.601562 316.058594 80.523438 315.976562 88.535156 C 315.90625 95.527344 315.867188 102.554688 315.054688 109.472656 C 314.371094 115.421875 312.863281 121.320312 311.265625 127.09375 C 309.839844 132.242188 308.089844 137.332031 305.949219 142.21875 C 303.8125 147.101562 301.109375 151.746094 298.488281 156.421875 C 290.328125 170.941406 278.625 182.421875 266.238281 193.21875 C 261.765625 197.113281 256.644531 200.277344 251.714844 203.621094 C 248.144531 206.050781 244.5 208.386719 240.714844 210.460938 C 236.410156 212.835938 231.992188 215.027344 227.492188 217.015625 C 222.257812 219.324219 216.960938 221.496094 211.578125 223.402344 C 201.304688 227.058594 190.871094 230.296875 180.015625 231.640625 C 168.351562 233.074219 157.988281 229.6875 148.910156 222.25 C 141.648438 216.308594 136.285156 208.757812 130.839844 201.25 C 125.382812 193.695312 119.75 186.292969 114.179688 178.824219 C 111.546875 175.289062 108.558594 172.121094 104.855469 169.644531 C 101.40625 167.335938 97.617188 166.796875 93.683594 167.285156 C 86.429688 168.179688 80.710938 172.273438 75.355469 176.796875 C 68.328125 182.722656 61.632812 189.0625 54.535156 194.902344 C 46.3125 201.671875 37.605469 207.753906 27.921875 212.417969 C 21.574219 215.476562 15.09375 218.058594 8.300781 219.714844 C 3.128906 220.964844 -2.203125 221.726562 -7.507812 222.21875 C -12.382812 222.671875 -17.351562 222.851562 -22.226562 222.523438 C -26.8125 222.222656 -31.335938 221.015625 -35.910156 220.324219 C -42.0625 219.394531 -47.628906 216.679688 -53.421875 214.65625 C -61.21875 211.925781 -68.03125 207.59375 -74.441406 202.652344 C -79.386719 198.839844 -84.082031 194.570312 -88.355469 190.003906 C -94.273438 183.691406 -99.617188 176.875 -104.210938 169.507812 C -106.363281 166.050781 -108.300781 162.449219 -110.265625 158.886719 C -110.457031 158.535156 -110.378906 157.730469 -110.105469 157.507812 C -108.964844 156.511719 -107.726562 155.648438 -106.386719 154.636719 Z M -106.386719 154.636719 " fill-opacity="1" fill-rule="nonzero"/></g></g></g><g clip-path="url(#f5ac2e0534)"><g clip-path="url(#1960705e28)"><g clip-path="url(#e070066467)"><path fill="#b4aaa0" d="M -96.570312 147.21875 C -95.265625 149.578125 -94.078125 151.703125 -92.902344 153.8125 C -88.214844 162.21875 -82.523438 169.902344 -75.816406 176.777344 C -72.765625 179.902344 -69.359375 182.71875 -65.949219 185.457031 C -59.097656 190.960938 -51.472656 195.179688 -43.144531 197.980469 C -34.304688 200.953125 -25.265625 202.339844 -15.875 201.914062 C -5.796875 201.46875 3.773438 199.109375 12.773438 194.753906 C 20.910156 190.824219 28.582031 186 34.792969 179.296875 C 40.261719 173.40625 45.574219 167.386719 50.875 161.351562 C 56.492188 154.945312 61.722656 148.183594 67.675781 142.101562 C 73.425781 136.203125 80.488281 132.320312 89.082031 132.4375 C 95.550781 132.523438 101.335938 134.742188 106.617188 138.492188 C 111.613281 142.039062 115.679688 146.515625 119.3125 151.320312 C 126.023438 160.222656 132.496094 169.320312 138.988281 178.390625 C 143.917969 185.289062 148.59375 192.363281 154.585938 198.425781 C 162.960938 206.871094 172.734375 212.371094 184.96875 211.609375 C 190.019531 211.289062 195.09375 210.113281 199.984375 208.691406 C 209.050781 206.042969 217.984375 202.867188 226.308594 198.355469 C 232.5625 194.96875 238.78125 191.414062 244.632812 187.390625 C 250.335938 183.484375 255.671875 179.011719 261.003906 174.582031 C 268.074219 168.683594 273.800781 161.46875 279.070312 154.046875 C 284.277344 146.726562 288.734375 138.808594 291.589844 130.171875 C 292.933594 126.132812 294.464844 122.113281 295.300781 117.960938 C 296.472656 112.203125 297.300781 106.339844 297.890625 100.464844 C 298.664062 92.789062 298.195312 85.117188 296.789062 77.539062 C 294.589844 65.648438 290.761719 54.359375 284.53125 43.890625 C 276.113281 29.742188 264.890625 18.285156 251.390625 9.070312 C 243.398438 3.601562 235.097656 -1.382812 227.023438 -6.730469 C 222.449219 -9.753906 217.957031 -12.914062 214.757812 -17.550781 C 212.039062 -21.476562 212.078125 -28.027344 214.519531 -32.105469 C 217.765625 -37.523438 222.347656 -41.730469 226.597656 -46.246094 C 231.476562 -51.421875 236.6875 -56.316406 241.460938 -61.585938 C 246.695312 -67.378906 251.398438 -73.625 253.070312 -81.503906 C 253.90625 -85.40625 254.289062 -89.304688 253.761719 -93.417969 C 252.964844 -99.601562 249.882812 -104.746094 247.394531 -110.1875 C 246.621094 -111.894531 246.585938 -112.902344 248.28125 -113.894531 C 249.488281 -114.597656 250.574219 -115.511719 251.648438 -116.421875 C 252.558594 -117.1875 253.28125 -117.140625 253.855469 -116.101562 C 256.851562 -110.722656 260.449219 -105.582031 262.675781 -99.90625 C 266.195312 -90.925781 266.167969 -81.5 261.953125 -72.734375 C 259.703125 -68.050781 256.171875 -63.894531 252.832031 -59.816406 C 249.671875 -55.980469 246.035156 -52.523438 242.546875 -48.96875 C 240.074219 -46.449219 237.457031 -44.089844 234.984375 -41.570312 C 231.207031 -37.742188 227.574219 -33.773438 226.4375 -28.269531 C 225.90625 -25.6875 226.535156 -23.261719 227.769531 -20.921875 C 229.941406 -16.734375 233.347656 -13.765625 236.996094 -10.960938 C 245.3125 -4.589844 253.703125 1.683594 261.84375 8.28125 C 272.703125 17.085938 281.488281 27.726562 288.542969 39.789062 C 296.167969 52.816406 300.875 66.882812 302.460938 81.855469 C 303.140625 88.296875 303.136719 94.894531 302.652344 101.359375 C 302.144531 108.070312 301.066406 114.789062 299.546875 121.347656 C 298.363281 126.410156 296.246094 131.277344 294.296875 136.132812 C 288.335938 151.058594 278.644531 163.523438 267.503906 174.808594 C 260.152344 182.257812 251.894531 188.707031 242.945312 194.289062 C 233.964844 199.886719 224.664062 204.851562 214.800781 208.542969 C 206.601562 211.605469 198.214844 214.445312 189.664062 216.261719 C 174.898438 219.410156 162.523438 214.3125 152.140625 203.582031 C 146.25 197.480469 141.617188 190.46875 136.84375 183.542969 C 128.816406 171.910156 121.328125 159.832031 111.390625 149.660156 C 106.117188 144.28125 99.765625 140.480469 91.816406 140.734375 C 86.511719 140.898438 81.726562 142.683594 77.378906 145.757812 C 70.554688 150.589844 64.945312 156.644531 59.554688 162.972656 C 51.8125 172.074219 43.859375 180.953125 34.484375 188.476562 C 27.535156 194.050781 20.101562 198.734375 11.832031 201.980469 C 4.453125 204.886719 -3.199219 206.75 -11.167969 207.4375 C -21.082031 208.277344 -30.625 206.984375 -40.179688 204.304688 C -47.378906 202.289062 -54.191406 199.523438 -60.339844 195.4375 C -66.25 191.511719 -72.054688 187.371094 -77.183594 182.304688 C -83.824219 175.742188 -89.34375 168.363281 -94.304688 160.511719 C -96.023438 157.777344 -97.496094 154.894531 -99.203125 152.152344 C -100.214844 150.511719 -99.996094 149.386719 -98.300781 148.492188 C -97.777344 148.226562 -97.335938 147.796875 -96.570312 147.21875 Z M -96.570312 147.21875 " fill-opacity="1" fill-rule="nonzero"/></g></g></g><g clip-path="url(#897e2ed31f)"><g clip-path="url(#8467fce72c)"><g clip-path="url(#b99e05aaed)"><path fill="#b4aaa0" d="M -87.492188 140.589844 C -85.777344 143.59375 -84.226562 146.550781 -82.441406 149.367188 C -78.769531 155.191406 -74.699219 160.699219 -69.703125 165.542969 C -65.171875 169.917969 -60.238281 173.664062 -55.015625 177.191406 C -48.816406 181.394531 -42.070312 184.097656 -34.949219 185.652344 C -29.65625 186.8125 -24.078125 187.242188 -18.664062 187.046875 C -9.742188 186.710938 -1.378906 184.097656 6.628906 179.84375 C 16.386719 174.648438 24.113281 167.316406 30.972656 158.941406 C 36.21875 152.53125 41.042969 145.785156 46.210938 139.320312 C 50.785156 133.589844 55.753906 128.246094 62.050781 124.3125 C 75.488281 115.914062 89.058594 116.019531 102.742188 123.625 C 109.785156 127.535156 115.621094 132.953125 120.621094 139.113281 C 130.21875 150.953125 139.449219 163.089844 148.867188 175.070312 C 153.703125 181.21875 158.894531 187.027344 165.285156 191.640625 C 174.605469 198.378906 184.847656 200.347656 195.996094 197.75 C 204.535156 195.769531 212.601562 192.484375 220.304688 188.363281 C 226.421875 185.097656 232.480469 181.707031 238.257812 177.894531 C 244.40625 173.839844 249.996094 169.019531 255.203125 163.769531 C 262.367188 156.558594 268.441406 148.582031 273.601562 139.808594 C 277.960938 132.421875 280.871094 124.511719 283.089844 116.371094 C 285.0625 109.167969 285.957031 101.648438 285.75 94.140625 C 285.535156 86.273438 284.429688 78.5625 282.046875 70.980469 C 279.273438 62.179688 275.394531 53.984375 269.929688 46.574219 C 263.898438 38.417969 256.664062 31.5 248.179688 25.890625 C 238.839844 19.703125 228.84375 14.847656 218.464844 10.652344 C 211.933594 8 205.464844 5.109375 199.1875 1.882812 C 193.535156 -1.015625 189.039062 -5.320312 186.832031 -11.507812 C 185.328125 -15.722656 185.585938 -20.007812 186.757812 -24.277344 C 188.371094 -30.179688 191.890625 -35.035156 195.597656 -39.714844 C 202.3125 -48.207031 209.328125 -56.476562 215.984375 -65.019531 C 218.863281 -68.722656 221.414062 -72.757812 223.59375 -76.90625 C 224.957031 -79.503906 225.074219 -82.710938 226.207031 -85.457031 C 227.691406 -89.0625 226.492188 -92.515625 226.332031 -96.046875 C 226.308594 -96.582031 226.488281 -97.332031 226.867188 -97.636719 C 229.339844 -99.601562 231.878906 -101.480469 234.628906 -103.558594 C 234.917969 -102.839844 235.207031 -102.332031 235.351562 -101.792969 C 236.101562 -98.898438 236.996094 -96.019531 237.460938 -93.082031 C 237.753906 -91.222656 237.585938 -89.222656 237.261719 -87.351562 C 236.824219 -84.765625 236.222656 -82.171875 235.367188 -79.6875 C 233.738281 -75.015625 231.167969 -70.800781 228.003906 -67.050781 C 220.851562 -58.605469 213.433594 -50.363281 206.25 -41.933594 C 202.738281 -37.828125 199.179688 -33.683594 197.097656 -28.574219 C 194.757812 -22.867188 194.753906 -17.207031 198.175781 -11.976562 C 200.488281 -8.429688 203.609375 -5.492188 207.355469 -3.46875 C 213.734375 -0.0351562 220.175781 3.28125 226.691406 6.460938 C 237.222656 11.59375 247.636719 16.875 256.71875 24.464844 C 267.007812 33.046875 275.449219 43.128906 281.332031 55.214844 C 285.464844 63.695312 288.34375 72.585938 289.550781 81.976562 C 290.738281 91.210938 290.632812 100.351562 289.164062 109.585938 C 286.621094 125.441406 279.917969 139.414062 270.800781 152.363281 C 265.195312 160.324219 258.359375 167.136719 251.007812 173.496094 C 243.554688 179.949219 235.453125 185.441406 226.789062 190.058594 C 216.5 195.542969 205.796875 200.171875 194.410156 202.8125 C 181.003906 205.910156 169.363281 202.089844 159.328125 192.910156 C 151.890625 186.105469 146.078125 177.960938 140.226562 169.863281 C 131.394531 157.671875 122.890625 145.175781 111.722656 134.902344 C 103.683594 127.503906 94.347656 122.914062 83.105469 123.617188 C 75.910156 124.0625 69.558594 126.835938 63.878906 131.261719 C 58.582031 135.378906 54.289062 140.421875 50.1875 145.644531 C 46.269531 150.628906 42.492188 155.722656 38.519531 160.65625 C 31.609375 169.242188 23.925781 177.035156 14.5 182.898438 C 9.078125 186.269531 3.304688 188.949219 -2.914062 190.6875 C -9.527344 192.53125 -16.203125 193.5625 -23.039062 192.839844 C -27.191406 192.40625 -31.289062 191.488281 -35.441406 191.050781 C -40.65625 190.519531 -45.46875 188.632812 -49.878906 186.136719 C -55.472656 182.984375 -60.753906 179.253906 -65.929688 175.441406 C -69.089844 173.109375 -72.003906 170.339844 -74.621094 167.40625 C -77.765625 163.878906 -80.621094 160.050781 -83.355469 156.175781 C -85.507812 153.15625 -87.363281 149.914062 -89.203125 146.699219 C -91.511719 142.632812 -91.476562 143.105469 -87.492188 140.589844 Z M -87.492188 140.589844 " fill-opacity="1" fill-rule="nonzero"/></g></g></g><g clip-path="url(#a216fae123)"><g clip-path="url(#e427f0b9ef)"><g clip-path="url(#104d0ab35b)"><path fill="#b4aaa0" d="M 213.441406 -86.800781 C 213.085938 -85.195312 212.8125 -83.554688 212.355469 -81.984375 C 211.835938 -80.195312 211.269531 -78.414062 210.480469 -76.726562 C 208.996094 -73.558594 207.566406 -70.339844 205.699219 -67.398438 C 203.035156 -63.1875 200 -59.210938 197.121094 -55.125 C 192.269531 -48.265625 187.347656 -41.449219 182.566406 -34.527344 C 178.132812 -28.101562 175.503906 -21.03125 175.730469 -13.117188 C 175.9375 -6.066406 179.007812 -0.359375 184.320312 4.191406 C 189.445312 8.59375 195.480469 11.296875 201.765625 13.542969 C 209.691406 16.363281 217.640625 19.09375 225.511719 22.050781 C 237.421875 26.527344 248.136719 33.070312 257.109375 42.078125 C 267.566406 52.582031 274.703125 65.003906 277.753906 79.691406 C 279.425781 87.773438 279.980469 95.839844 279.117188 104.007812 C 277.585938 118.292969 272.386719 131.320312 264.710938 143.316406 C 259.714844 151.125 253.636719 158.109375 246.617188 164.273438 C 239.445312 170.589844 231.804688 176.210938 223.441406 180.777344 C 214.554688 185.636719 205.457031 190.085938 195.425781 192.140625 C 185.53125 194.171875 176.402344 192.183594 167.992188 186.746094 C 162.257812 183.03125 157.359375 178.34375 153.097656 173.058594 C 145.886719 164.152344 138.875 155.074219 131.644531 146.164062 C 125.496094 138.582031 119.082031 131.210938 111.539062 124.949219 C 102.21875 117.21875 91.722656 112.304688 79.296875 112.558594 C 70.976562 112.730469 63.417969 115.324219 56.433594 119.839844 C 47.738281 125.457031 41.242188 133.25 34.730469 141.097656 C 29.015625 147.976562 23.199219 154.800781 17.027344 161.28125 C 11.316406 167.277344 4.46875 171.824219 -3.355469 174.828125 C -8.609375 176.851562 -14 178.191406 -19.609375 178.589844 C -21.730469 178.738281 -23.886719 178.820312 -25.972656 178.5625 C -33.003906 177.683594 -40.050781 176.605469 -46.410156 173.324219 C -53.175781 169.835938 -59.65625 165.886719 -65.15625 160.429688 C -71.652344 153.984375 -77.058594 146.753906 -81.394531 138.714844 C -82.6875 136.324219 -82.640625 136.308594 -79.382812 134.5 C -78.546875 135.832031 -77.761719 137.25 -76.835938 138.554688 C -73.226562 143.53125 -69.890625 148.730469 -65.847656 153.34375 C -62.101562 157.621094 -57.578125 161.179688 -52.710938 164.304688 C -47.5 167.632812 -42.015625 170.234375 -36.035156 171.523438 C -31.984375 172.402344 -27.757812 172.609375 -23.59375 172.808594 C -15.410156 173.21875 -7.804688 170.835938 -0.714844 167.0625 C 5.089844 163.972656 10.476562 160.097656 14.929688 155.164062 C 22.550781 146.707031 29.933594 138.015625 37.601562 129.597656 C 44.722656 121.769531 52.800781 115.132812 62.9375 111.5 C 77.03125 106.453125 90.414062 108.476562 103.210938 115.796875 C 110.863281 120.183594 117.339844 126.070312 123.085938 132.640625 C 131.5 142.28125 139.457031 152.324219 147.855469 161.996094 C 152.960938 167.867188 158.132812 173.800781 163.960938 178.933594 C 176.464844 189.917969 190.761719 191.40625 205.980469 185.160156 C 218 180.226562 229.308594 174.046875 239.351562 165.734375 C 247.007812 159.375 253.871094 152.292969 259.667969 144.109375 C 263.664062 138.46875 266.8125 132.417969 269.40625 126.160156 C 272.148438 119.496094 273.914062 112.449219 274.753906 105.164062 C 275.71875 96.75 275.15625 88.496094 273.300781 80.324219 C 271.695312 73.296875 269.039062 66.667969 265.199219 60.449219 C 261.988281 55.265625 258.40625 50.523438 254.003906 46.316406 C 247.449219 40.070312 240.0625 35.082031 231.886719 31.242188 C 222.25 26.734375 212.164062 23.558594 202.015625 20.425781 C 196.503906 18.722656 191.035156 16.644531 185.882812 14.078125 C 178.109375 10.1875 172.03125 4.398438 169.976562 -4.46875 C 168.203125 -12.128906 168.996094 -19.726562 172.625 -26.710938 C 175.882812 -32.976562 179.511719 -39.046875 183.242188 -45.035156 C 186.707031 -50.617188 190.605469 -55.933594 194.140625 -61.472656 C 196.382812 -64.984375 198.398438 -68.664062 200.347656 -72.355469 C 201.558594 -74.648438 202.433594 -77.105469 203.472656 -79.476562 C 203.585938 -79.753906 203.71875 -80.0625 203.949219 -80.238281 C 206.929688 -82.511719 209.925781 -84.773438 212.917969 -87.035156 C 213.0625 -86.972656 213.246094 -86.882812 213.441406 -86.800781 Z M 213.441406 -86.800781 " fill-opacity="1" fill-rule="nonzero"/></g></g></g><g clip-path="url(#e7cf39561f)"><g clip-path="url(#f9c08b925a)"><g clip-path="url(#f8418d59dc)"><path fill="#b4aaa0" d="M 189.335938 -68.566406 C 186.480469 -63.539062 183.613281 -58.507812 180.769531 -53.46875 C 175.996094 -44.988281 170.917969 -36.660156 166.550781 -27.96875 C 163.125 -21.171875 161.445312 -13.785156 162.039062 -6.015625 C 162.738281 3.277344 167.070312 10.480469 174.421875 16.03125 C 180.804688 20.859375 188.097656 23.683594 195.667969 25.933594 C 205.179688 28.757812 214.84375 31.203125 224.144531 34.628906 C 239.988281 40.46875 252.765625 50.445312 261.402344 65.210938 C 264.550781 70.59375 266.738281 76.375 268.144531 82.480469 C 269.761719 89.554688 270.097656 96.621094 269.527344 103.835938 C 268.601562 115.507812 264.792969 126.28125 259.089844 136.285156 C 253.527344 146.074219 246.171875 154.5 237.417969 161.707031 C 226.878906 170.398438 215.347656 177.296875 202.515625 181.945312 C 190.527344 186.289062 179.148438 184.792969 168.523438 177.6875 C 162.796875 173.851562 157.933594 169.058594 153.457031 163.898438 C 146.148438 155.464844 139.136719 146.792969 131.789062 138.414062 C 124 129.523438 115.929688 120.867188 105.875 114.414062 C 91.722656 105.328125 76.605469 102.625 60.472656 108.1875 C 51.632812 111.234375 44 116.410156 37.433594 123 C 30.433594 130.027344 23.671875 137.316406 16.835938 144.507812 C 10.851562 150.808594 4.410156 156.574219 -3.285156 160.707031 C -8.636719 163.589844 -14.289062 165.621094 -20.507812 166.042969 C -24.914062 166.332031 -29.171875 166.011719 -33.523438 165.382812 C -37.707031 164.78125 -41.691406 163.683594 -45.320312 161.742188 C -50.980469 158.699219 -56.4375 155.347656 -61.148438 150.785156 C -66.40625 145.699219 -70.660156 139.945312 -74.4375 133.761719 C -75.839844 131.476562 -75.773438 131.253906 -72.453125 129.125 C -72.085938 129.613281 -71.640625 130.097656 -71.324219 130.644531 C -68.113281 136.132812 -64.375 141.179688 -59.742188 145.59375 C -52.960938 152.03125 -45.375 157.117188 -36.199219 159.242188 C -31.632812 160.300781 -26.910156 160.652344 -22.140625 160.164062 C -9.867188 158.898438 -0.0546875 152.761719 8.738281 144.722656 C 14.078125 139.824219 19.058594 134.550781 24.199219 129.441406 C 32.164062 121.515625 40.222656 113.742188 50.34375 108.519531 C 65.558594 100.652344 81.011719 100.15625 96.742188 106.808594 C 105.453125 110.492188 112.753906 116.210938 119.605469 122.617188 C 129.203125 131.574219 137.601562 141.628906 146.148438 151.546875 C 152.675781 159.117188 159.1875 166.675781 167.363281 172.636719 C 178.847656 181.027344 191.148438 182.664062 204.382812 177.613281 C 211.636719 174.84375 218.34375 171.019531 224.851562 166.808594 C 231.898438 162.246094 238.292969 156.898438 243.910156 150.722656 C 247.125 147.183594 249.847656 143.175781 252.722656 139.34375 C 256.945312 133.722656 259.660156 127.253906 261.855469 120.722656 C 263.855469 114.796875 265.386719 108.574219 265.203125 102.136719 C 265.132812 99.589844 265.347656 97.039062 265.210938 94.484375 C 264.78125 85.921875 262.382812 77.945312 258.40625 70.304688 C 253.460938 60.777344 246.269531 53.460938 237.398438 47.664062 C 231.242188 43.640625 224.574219 40.613281 217.546875 38.46875 C 209.691406 36.070312 201.738281 34.015625 193.847656 31.722656 C 184.066406 28.867188 174.722656 25.128906 167.019531 18.125 C 159.25 11.058594 155.605469 2.363281 156.378906 -8.144531 C 157.011719 -16.667969 159.640625 -24.621094 163.480469 -32.183594 C 166.925781 -38.957031 170.597656 -45.609375 174.132812 -52.335938 C 175.511719 -54.964844 176.78125 -57.660156 178.105469 -60.308594 C 178.269531 -60.621094 178.421875 -61.003906 178.6875 -61.207031 C 182.050781 -63.785156 185.457031 -66.339844 188.835938 -68.894531 C 189.03125 -68.8125 189.179688 -68.695312 189.335938 -68.566406 Z M 189.335938 -68.566406 " fill-opacity="1" fill-rule="nonzero"/></g></g></g><g clip-path="url(#1bd72850be)"><g clip-path="url(#50d7713b29)"><g clip-path="url(#340636d000)"><path fill="#b4aaa0" d="M 166.117188 -51.761719 C 162.390625 -43.289062 158.585938 -35.121094 155.21875 -26.78125 C 151.925781 -18.617188 149.511719 -10.175781 149.753906 -1.207031 C 149.9375 6.320312 152.75 12.851562 157.699219 18.363281 C 166.796875 28.503906 178.609375 34.140625 191.460938 37.84375 C 201.058594 40.605469 210.890625 42.738281 220.242188 46.160156 C 236.726562 52.1875 249.339844 62.859375 255.902344 79.632812 C 258.632812 86.613281 259.742188 93.875 259.53125 101.433594 C 259.269531 111.128906 256.800781 120.257812 252.757812 128.917969 C 247.933594 139.253906 240.910156 148.019531 232.269531 155.503906 C 224.65625 162.097656 216.296875 167.480469 207.160156 171.671875 C 192.84375 178.226562 179.289062 176.832031 166.925781 167.175781 C 161.335938 162.816406 156.230469 157.730469 151.378906 152.546875 C 140.347656 140.757812 130.148438 128.199219 117.9375 117.53125 C 108.589844 109.363281 98.324219 102.859375 86.023438 100.113281 C 70.453125 96.628906 56.054688 99.789062 42.5 107.851562 C 33.3125 113.324219 25.621094 120.648438 17.78125 127.777344 C 11.335938 133.640625 4.96875 139.582031 -2.4375 144.300781 C -8.378906 148.101562 -14.820312 150.675781 -21.722656 151.6875 C -25.3125 152.222656 -29.136719 151.84375 -32.761719 151.292969 C -36.28125 150.761719 -39.859375 149.894531 -43.074219 148.421875 C -49.597656 145.457031 -55.484375 141.4375 -60.015625 135.746094 C -62.210938 132.988281 -64.175781 130.039062 -66.386719 127.3125 C -67.628906 125.769531 -67.4375 124.78125 -65.769531 123.90625 C -65.40625 123.707031 -65.074219 123.4375 -64.652344 123.136719 C -63.484375 124.679688 -62.339844 126.167969 -61.230469 127.660156 C -57.570312 132.578125 -53.242188 136.742188 -48.136719 140.207031 C -44.527344 142.65625 -40.679688 144.433594 -36.566406 145.453125 C -32.585938 146.441406 -28.472656 146.753906 -24.28125 146.378906 C -18.496094 145.863281 -13.035156 144.261719 -7.917969 141.675781 C -0.707031 138.039062 5.625 133.0625 11.746094 127.808594 C 19.929688 120.78125 27.886719 113.507812 36.925781 107.535156 C 59.617188 92.566406 85.234375 92.492188 107.871094 107.574219 C 115.984375 112.96875 123.167969 119.46875 129.894531 126.445312 C 139.160156 136.050781 148.144531 145.914062 157.457031 155.484375 C 160.714844 158.832031 164.378906 161.855469 168.167969 164.59375 C 181.054688 173.929688 194.710938 174.675781 208.855469 167.621094 C 219.136719 162.484375 228.382812 155.902344 236.136719 147.367188 C 240.441406 142.640625 244.527344 137.679688 247.246094 131.820312 C 249.472656 127.023438 251.964844 122.253906 253.320312 117.195312 C 254.703125 112.019531 255.140625 106.527344 255.453125 101.148438 C 255.910156 93.101562 253.867188 85.414062 250.382812 78.222656 C 244.792969 66.65625 235.605469 58.671875 224.117188 53.308594 C 215.128906 49.105469 205.574219 46.582031 195.980469 44.179688 C 185.09375 41.433594 174.734375 37.335938 165.351562 31.066406 C 158.476562 26.472656 152.484375 21.046875 148.484375 13.632812 C 145.628906 8.335938 144.789062 2.699219 145.261719 -3.179688 C 145.953125 -11.902344 148.683594 -20.125 151.824219 -28.210938 C 154.113281 -34.109375 156.589844 -39.9375 158.992188 -45.785156 C 159.175781 -46.230469 159.4375 -46.695312 159.777344 -46.972656 C 161.839844 -48.546875 163.925781 -50.109375 166.117188 -51.761719 Z M 166.117188 -51.761719 " fill-opacity="1" fill-rule="nonzero"/></g></g></g><g clip-path="url(#72322085c0)"><g clip-path="url(#d095852296)"><g clip-path="url(#2481f07c87)"><path fill="#b4aaa0" d="M 151.050781 -39.878906 C 150.324219 -37.78125 149.605469 -35.671875 148.878906 -33.574219 C 145.636719 -24.207031 141.980469 -14.980469 140.191406 -5.179688 C 137.90625 7.347656 142.042969 17.601562 151.121094 26.125 C 161.945312 36.296875 174.695312 43.15625 188.746094 47.65625 C 196.519531 50.15625 204.472656 52.078125 212.242188 54.539062 C 219.789062 56.941406 226.828125 60.488281 232.949219 65.554688 C 240.078125 71.445312 245.339844 78.710938 248.089844 87.660156 C 249.632812 92.6875 250.25 97.800781 250.242188 103.082031 C 250.222656 111.753906 248.054688 119.914062 244.480469 127.601562 C 239.914062 137.417969 233.257812 145.757812 224.914062 152.75 C 218.808594 157.878906 212.277344 162.261719 204.957031 165.421875 C 193.0625 170.550781 181.6875 169.359375 170.75 162.601562 C 164.226562 158.570312 158.664062 153.386719 153.335938 147.929688 C 142.167969 136.492188 131.660156 124.40625 119.449219 114.019531 C 109.269531 105.351562 98.203125 98.347656 84.949219 95.402344 C 71.34375 92.398438 58.25 93.941406 45.488281 99.515625 C 34.628906 104.265625 25.394531 111.394531 16.273438 118.726562 C 7.972656 125.421875 -0.257812 132.234375 -10.121094 136.609375 C -16.175781 139.296875 -22.453125 140.828125 -29.195312 140.207031 C -34.019531 139.765625 -38.761719 138.953125 -43 136.609375 C -48.425781 133.601562 -53.46875 130.015625 -57.273438 124.957031 C -58.183594 123.753906 -59.179688 122.613281 -60.160156 121.460938 C -60.808594 120.707031 -60.765625 120.160156 -59.964844 119.496094 C -57.636719 117.566406 -57.671875 117.726562 -55.632812 120.066406 C -53.421875 122.617188 -50.914062 124.949219 -48.34375 127.136719 C -46.515625 128.695312 -44.476562 130.101562 -42.328125 131.171875 C -32.164062 136.277344 -21.863281 136.121094 -11.386719 131.929688 C -3.027344 128.574219 4.132812 123.375 11.289062 118.097656 C 17.519531 113.523438 23.695312 108.820312 30.171875 104.613281 C 46.578125 93.953125 64.304688 89.003906 83.902344 93.234375 C 93.996094 95.410156 103.117188 99.792969 111.460938 105.796875 C 121.246094 112.851562 129.96875 121.132812 138.410156 129.71875 C 146.8125 138.261719 154.746094 147.289062 164.191406 154.753906 C 169.96875 159.3125 176.179688 163.105469 183.53125 164.664062 C 192.507812 166.574219 200.863281 164.65625 208.734375 160.351562 C 217.476562 155.582031 225.023438 149.359375 231.371094 141.617188 C 236.667969 135.148438 240.683594 128.066406 243.417969 120.128906 C 245.039062 115.445312 245.816406 110.652344 246.027344 105.847656 C 246.425781 97.097656 244.589844 88.773438 239.964844 81.109375 C 233.574219 70.53125 223.96875 64.21875 212.710938 60.167969 C 204.746094 57.296875 196.570312 55.027344 188.578125 52.238281 C 173.285156 46.898438 159.277344 39.269531 147.375 28.097656 C 142.761719 23.765625 138.90625 18.863281 136.726562 12.769531 C 134.777344 7.304688 134.746094 1.726562 135.910156 -3.816406 C 136.933594 -8.683594 138.363281 -13.46875 139.832031 -18.230469 C 141.609375 -23.96875 143.597656 -29.660156 145.574219 -35.339844 C 145.851562 -36.140625 146.496094 -36.878906 147.140625 -37.441406 C 148.222656 -38.410156 149.445312 -39.222656 150.613281 -40.105469 C 150.777344 -40.015625 150.921875 -39.953125 151.050781 -39.878906 Z M 151.050781 -39.878906 " fill-opacity="1" fill-rule="nonzero"/></g></g></g><g clip-path="url(#e751414d62)"><g clip-path="url(#a611d31470)"><g clip-path="url(#8444f9c5cc)"><path fill="#b4aaa0" d="M 139.140625 -30.800781 C 138.328125 -28.160156 137.480469 -25.515625 136.679688 -22.882812 C 134.679688 -16.246094 132.421875 -9.667969 130.726562 -2.960938 C 127.636719 9.316406 131.847656 19.4375 140.617188 28.007812 C 153.191406 40.292969 167.980469 49.1875 184.15625 55.75 C 192.453125 59.113281 201.070312 61.664062 209.449219 64.8125 C 219.835938 68.714844 228.878906 74.558594 234.761719 84.292969 C 238.578125 90.605469 240.519531 97.472656 240.476562 104.957031 C 240.4375 112.363281 238.808594 119.386719 235.867188 126.046875 C 231.777344 135.328125 225.421875 142.980469 217.683594 149.535156 C 212.574219 153.875 207.046875 157.515625 200.683594 159.6875 C 189.546875 163.496094 179.300781 161.015625 169.65625 154.90625 C 163.132812 150.773438 157.554688 145.492188 151.996094 140.191406 C 141.707031 130.363281 131.59375 120.324219 120.984375 110.835938 C 111.804688 102.632812 101.414062 96.148438 89.507812 92.457031 C 71.359375 86.828125 53.867188 88.902344 36.902344 96.980469 C 27.121094 101.640625 18.359375 107.957031 9.4375 114.03125 C 3.390625 118.144531 -2.761719 122.121094 -9.585938 124.851562 C -16.34375 127.570312 -23.386719 129.050781 -30.628906 127.660156 C -35.503906 126.722656 -40.335938 125.289062 -44.238281 121.816406 C -46.148438 120.125 -48.214844 118.628906 -50.125 116.9375 C -51.007812 116.148438 -51.691406 115.117188 -52.550781 114.105469 C -51.992188 113.605469 -51.566406 113.285156 -51.199219 112.910156 C -49.882812 111.515625 -48.960938 112.078125 -47.789062 113.296875 C -43.789062 117.480469 -39.203125 120.667969 -33.476562 122.324219 C -23.757812 125.144531 -14.597656 123.480469 -5.929688 119.066406 C 1.164062 115.449219 7.964844 111.246094 14.734375 107.027344 C 24.625 100.871094 34.484375 94.71875 45.714844 91.164062 C 67.203125 84.367188 87.492188 87.308594 106.675781 98.808594 C 116.21875 104.53125 124.636719 111.722656 132.742188 119.285156 C 142.261719 128.164062 151.640625 137.210938 161.261719 145.996094 C 165.871094 150.199219 171.117188 153.574219 176.921875 155.96875 C 186.867188 160.074219 196.511719 159.457031 205.976562 154.351562 C 213.957031 150.039062 220.234375 143.878906 225.789062 136.816406 C 230.273438 131.113281 233.40625 124.710938 235.226562 117.8125 C 236.800781 111.824219 237.234375 105.667969 235.949219 99.394531 C 234.359375 91.574219 230.84375 84.921875 225.140625 79.503906 C 220.046875 74.65625 213.910156 71.417969 207.390625 68.8125 C 195.835938 64.222656 184.023438 60.25 173.03125 54.332031 C 160.636719 47.667969 148.832031 40.167969 138.558594 30.441406 C 134.949219 27.03125 131.695312 23.335938 129.324219 18.933594 C 125.921875 12.582031 125.011719 5.816406 126.820312 -1.097656 C 128.597656 -7.90625 130.886719 -14.585938 132.957031 -21.332031 C 133.476562 -23.023438 134.140625 -24.671875 134.53125 -26.382812 C 135.066406 -28.832031 137.105469 -29.703125 138.726562 -31.023438 C 138.847656 -30.964844 139 -30.886719 139.140625 -30.800781 Z M 139.140625 -30.800781 " fill-opacity="1" fill-rule="nonzero"/></g></g></g><g clip-path="url(#f5a2b46348)"><g clip-path="url(#539e9da574)"><g clip-path="url(#e5dc11882c)"><path fill="#b4aaa0" d="M 129.347656 -23.707031 C 127.921875 -19.648438 126.542969 -15.832031 125.234375 -11.996094 C 122.894531 -5.105469 120.539062 1.796875 121.09375 9.253906 C 121.546875 15.371094 124.289062 20.488281 128.039062 25.199219 C 133.054688 31.503906 139.25 36.492188 145.640625 41.257812 C 157.367188 50.019531 169.808594 57.628906 183.078125 63.832031 C 189.140625 66.667969 195.386719 69.09375 201.523438 71.796875 C 208.046875 74.664062 214.507812 77.675781 219.847656 82.585938 C 226.28125 88.523438 230.179688 95.726562 231.128906 104.546875 C 231.945312 112.128906 230.269531 119.265625 227.226562 126.019531 C 222.730469 136.050781 215.660156 144.125 206.359375 149.953125 C 195.253906 156.910156 183.800781 156.828125 172.332031 150.550781 C 165.796875 146.964844 160.050781 142.324219 154.582031 137.359375 C 148.257812 131.625 142.058594 125.777344 135.890625 119.886719 C 128.039062 112.382812 119.714844 105.464844 110.703125 99.433594 C 100.027344 92.285156 88.378906 87.574219 75.550781 86.105469 C 61.570312 84.496094 48.226562 87.027344 35.382812 92.589844 C 25.929688 96.675781 17.261719 102.175781 8.433594 107.390625 C 2.074219 111.167969 -4.378906 114.820312 -11.496094 116.988281 C -17.03125 118.667969 -22.652344 119.472656 -28.464844 118.304688 C -32.566406 117.484375 -36.464844 116.246094 -39.886719 113.84375 C -41.902344 112.441406 -43.710938 110.730469 -45.875 108.925781 C -44.769531 108.089844 -43.867188 107.3125 -42.855469 106.703125 C -42.558594 106.535156 -41.804688 106.75 -41.507812 107.042969 C -37.546875 110.890625 -32.757812 113.003906 -27.398438 114 C -16.769531 116.003906 -7.371094 112.300781 1.796875 107.6875 C 12.847656 102.128906 23.242188 95.320312 34.730469 90.617188 C 50.046875 84.351562 65.789062 82.265625 82.070312 85.726562 C 94.699219 88.398438 105.882812 94.242188 116.242188 101.804688 C 125.925781 108.878906 134.816406 116.894531 143.597656 125.054688 C 151.183594 132.105469 158.636719 139.339844 167.375 145.007812 C 174.003906 149.324219 181.042969 152.492188 189.183594 152.265625 C 195.214844 152.101562 200.683594 150.132812 205.6875 146.789062 C 212.507812 142.226562 217.914062 136.382812 221.664062 129.078125 C 223.214844 126.070312 224.953125 123.035156 225.753906 119.792969 C 228.851562 107.148438 227.039062 94.507812 214.898438 84.589844 C 209.597656 80.257812 203.488281 77.382812 197.398438 74.511719 C 181.3125 66.90625 165.667969 58.523438 151.050781 48.3125 C 143.023438 42.703125 135.128906 36.933594 128.164062 30.019531 C 123.164062 25.046875 118.957031 19.453125 117.683594 12.230469 C 116.722656 6.785156 117.582031 1.472656 119.226562 -3.710938 C 120.601562 -8.039062 122.449219 -12.222656 123.625 -16.609375 C 124.441406 -19.828125 126.058594 -22.140625 129.347656 -23.707031 Z M 129.347656 -23.707031 " fill-opacity="1" fill-rule="nonzero"/></g></g></g><g clip-path="url(#9e5ed00bd4)"><g clip-path="url(#49204ff843)"><g clip-path="url(#6a99380518)"><path fill="#b4aaa0" d="M 119.25 -16.25 C 117.953125 -12.554688 116.761719 -9.324219 115.6875 -6.042969 C 113.914062 -0.648438 112.28125 4.75 112.824219 10.554688 C 113.480469 17.492188 116.820312 23.128906 121.421875 28.101562 C 129.257812 36.574219 138.597656 43.21875 147.957031 49.8125 C 161.570312 59.402344 175.804688 67.988281 190.539062 75.777344 C 196.1875 78.75 201.78125 81.902344 207.148438 85.359375 C 214.886719 90.367188 220.058594 97.335938 221.503906 106.660156 C 222.1875 111.054688 221.65625 115.359375 220.492188 119.636719 C 217.769531 129.765625 212.035156 137.785156 203.382812 143.636719 C 193.960938 150.011719 184.039062 150.1875 173.859375 145.515625 C 166.417969 142.097656 160.058594 137.097656 153.945312 131.761719 C 145.191406 124.152344 136.660156 116.304688 127.804688 108.832031 C 118.695312 101.132812 109.042969 94.148438 98.0625 89.257812 C 76.226562 79.535156 54.242188 79.863281 32.402344 88.953125 C 23.273438 92.757812 14.496094 97.457031 5.582031 101.769531 C -1.390625 105.144531 -8.445312 108.277344 -16.269531 109.125 C -21.179688 109.664062 -25.902344 109.257812 -30.550781 107.304688 C -33.160156 106.199219 -35.554688 104.929688 -37.75 103.1875 C -35.910156 100.6875 -35.351562 100.570312 -33.015625 102.015625 C -26.429688 106.101562 -19.273438 106.519531 -11.902344 105.195312 C -4.933594 103.941406 1.449219 101.085938 7.78125 98.078125 C 18.386719 93.066406 28.84375 87.683594 40.179688 84.394531 C 66.066406 76.890625 90.03125 81.335938 112.351562 96.027344 C 123.492188 103.355469 133.550781 112.039062 143.519531 120.828125 C 150.949219 127.371094 158.242188 134.113281 166.703125 139.359375 C 172.675781 143.066406 178.964844 145.976562 186.179688 146.011719 C 193.5 146.039062 199.699219 143.289062 205.230469 138.492188 C 210.617188 133.832031 214.390625 128.128906 216.445312 121.515625 C 219.738281 110.898438 217.6875 99.890625 208.136719 91.300781 C 201.414062 85.257812 193.453125 81.050781 185.742188 76.515625 C 164.089844 63.769531 143.023438 50.136719 123.8125 33.84375 C 118.210938 29.09375 113.222656 23.726562 110.710938 16.5625 C 108.933594 11.503906 109.015625 6.375 110.429688 1.292969 C 111.539062 -2.679688 113.121094 -6.53125 114.125 -10.539062 C 114.878906 -13.230469 116.773438 -14.570312 119.25 -16.25 Z M 119.25 -16.25 " fill-opacity="1" fill-rule="nonzero"/></g></g></g><g clip-path="url(#6dbb489fa4)"><g clip-path="url(#cf3ff9b76c)"><g clip-path="url(#beb68822b7)"><path fill="#b4aaa0" d="M 107.339844 -7.171875 C 106.316406 -3.167969 105.136719 0.859375 104.292969 4.957031 C 102.546875 13.445312 105.417969 20.660156 110.929688 26.96875 C 118.234375 35.34375 127.164062 41.824219 136.171875 48.148438 C 151.851562 59.160156 167.730469 69.90625 183.464844 80.835938 C 189.054688 84.714844 194.714844 88.5625 199.972656 92.886719 C 205.179688 97.148438 209.0625 102.511719 210.347656 109.375 C 211.671875 116.460938 209.742188 122.8125 206.117188 128.839844 C 203.054688 133.945312 198.6875 137.550781 193.242188 139.699219 C 186.410156 142.398438 179.601562 141.558594 172.984375 138.722656 C 165.648438 135.589844 159.277344 130.902344 153.148438 125.882812 C 143.789062 118.199219 134.589844 110.300781 125.082031 102.804688 C 114.800781 94.710938 103.832031 87.6875 91.351562 83.339844 C 72.359375 76.722656 53.285156 76.976562 34.382812 83.402344 C 24.796875 86.652344 15.511719 90.804688 6.09375 94.558594 C -1.5 97.582031 -9.140625 100.449219 -17.5 100.039062 C -19.886719 99.914062 -22.289062 99.339844 -24.609375 98.722656 C -26.214844 98.292969 -27.722656 97.464844 -29.304688 96.785156 C -27.492188 94.554688 -27.003906 94.242188 -24.46875 95.269531 C -17.28125 98.175781 -10.058594 97.570312 -3.019531 95.269531 C 5.808594 92.382812 14.445312 88.914062 23.15625 85.621094 C 34.648438 81.273438 46.367188 78.039062 58.730469 77.503906 C 78.578125 76.652344 96.472656 82.527344 113.03125 93.179688 C 124.523438 100.570312 134.980469 109.296875 145.476562 117.976562 C 153.011719 124.207031 160.507812 130.507812 169.339844 134.882812 C 175.726562 138.046875 182.390625 139.757812 189.464844 137.792969 C 194.394531 136.421875 198.527344 133.695312 201.527344 129.5 C 202.992188 127.4375 204.632812 125.335938 205.425781 122.996094 C 207.144531 117.933594 207.492188 112.703125 205.65625 107.492188 C 203.097656 100.234375 197.976562 94.929688 191.988281 90.546875 C 178.070312 80.324219 163.902344 70.429688 149.957031 60.246094 C 138.386719 51.789062 126.847656 43.25 115.53125 34.445312 C 110.292969 30.375 105.628906 25.566406 102.855469 19.347656 C 100.316406 13.65625 100.246094 7.824219 102.039062 1.921875 C 102.300781 1.054688 102.566406 0.167969 102.722656 -0.738281 C 103.269531 -3.65625 104.515625 -6.03125 107.339844 -7.171875 Z M 107.339844 -7.171875 " fill-opacity="1" fill-rule="nonzero"/></g></g></g><g clip-path="url(#4af9b77e44)"><g clip-path="url(#45ba026e6a)"><g clip-path="url(#223e01b513)"><path fill="#b4aaa0" d="M 98.6875 -0.460938 C 98.339844 1.179688 97.992188 2.816406 97.632812 4.464844 C 96.203125 11.070312 97.046875 17.273438 100.847656 22.984375 C 104.960938 29.1875 110.476562 33.980469 116.347656 38.359375 C 128.832031 47.671875 141.519531 56.722656 154.03125 66.015625 C 165.230469 74.335938 176.375 82.734375 187.378906 91.296875 C 191.699219 94.664062 195.460938 98.703125 198.3125 103.488281 C 202.765625 110.976562 203.023438 118.601562 198.34375 125.941406 C 194.148438 132.53125 187.8125 135.449219 179.953125 134.890625 C 173.613281 134.445312 167.941406 131.945312 162.867188 128.417969 C 154.996094 122.9375 147.347656 117.117188 139.8125 111.191406 C 128.878906 102.59375 117.972656 93.976562 105.703125 87.304688 C 83.539062 75.25 60.21875 72.671875 36.019531 79.398438 C 26.066406 82.160156 16.398438 85.910156 6.609375 89.195312 C -0.113281 91.449219 -6.898438 93.402344 -14.082031 93.101562 C -16.800781 92.996094 -19.492188 92.621094 -22.082031 91.191406 C -20.914062 89.777344 -19.867188 89.367188 -18.070312 89.824219 C -12.152344 91.332031 -6.164062 90.882812 -0.390625 89.214844 C 7.957031 86.804688 16.214844 84.023438 24.488281 81.363281 C 36.785156 77.402344 49.285156 74.667969 62.289062 74.855469 C 80.390625 75.109375 96.8125 80.722656 112.125 90.136719 C 124.011719 97.441406 134.839844 106.15625 145.785156 114.722656 C 152.789062 120.191406 159.839844 125.625 167.96875 129.402344 C 171.648438 131.109375 175.492188 132.375 179.570312 132.386719 C 186.242188 132.410156 191.761719 130.132812 195.386719 124.125 C 199.378906 117.496094 198.53125 110.988281 195.019531 104.597656 C 191.617188 98.398438 186.421875 93.722656 181.113281 89.230469 C 162.953125 73.878906 143.542969 60.179688 124.355469 46.222656 C 116.917969 40.8125 109.34375 35.566406 102.957031 28.886719 C 98.460938 24.179688 94.628906 19.027344 94.546875 12.167969 C 94.511719 8.910156 94.9375 5.605469 95.601562 2.410156 C 95.839844 1.234375 97.339844 0.308594 98.269531 -0.734375 C 98.402344 -0.664062 98.539062 -0.558594 98.6875 -0.460938 Z M 98.6875 -0.460938 " fill-opacity="1" fill-rule="nonzero"/></g></g></g></g></g></g></g></svg>