<svg xmlns="http://www.w3.org/2000/svg" xmlns:xlink="http://www.w3.org/1999/xlink" width="1080" zoomAndPan="magnify" viewBox="0 0 810 1439.999935" height="1920" preserveAspectRatio="xMidYMid meet" version="1.0"><defs><filter x="0%" y="0%" width="100%" height="100%" id="d88ea12e79"><feColorMatrix values="0 0 0 0 1 0 0 0 0 1 0 0 0 0 1 0 0 0 1 0" color-interpolation-filters="sRGB"/></filter><mask id="b295fbbc8c"><g filter="url(#d88ea12e79)"><rect x="-81" width="972" fill="#000000" y="-143.999994" height="1727.999922" fill-opacity="0.1"/></g></mask><clipPath id="d3f0de354c"><path d="M 2 1 L 576 1 L 576 448 L 2 448 Z M 2 1 " clip-rule="nonzero"/></clipPath><clipPath id="8bb2259847"><path d="M 46 29 L 576 29 L 576 448 L 46 448 Z M 46 29 " clip-rule="nonzero"/></clipPath><clipPath id="5761401988"><path d="M 97 56 L 576 56 L 576 448 L 97 448 Z M 97 56 " clip-rule="nonzero"/></clipPath><clipPath id="43599ac8a7"><path d="M 157 77 L 576 77 L 576 448 L 157 448 Z M 157 77 " clip-rule="nonzero"/></clipPath><clipPath id="c0fdb3aa43"><path d="M 224 95 L 576 95 L 576 448 L 224 448 Z M 224 95 " clip-rule="nonzero"/></clipPath><clipPath id="11d11e6a17"><path d="M 287 113 L 576 113 L 576 448 L 287 448 Z M 287 113 " clip-rule="nonzero"/></clipPath><clipPath id="0a0a99abec"><path d="M 323 128 L 576 128 L 576 448 L 323 448 Z M 323 128 " clip-rule="nonzero"/></clipPath><clipPath id="33f1a37f5c"><path d="M 347 143 L 576 143 L 576 448 L 347 448 Z M 347 143 " clip-rule="nonzero"/></clipPath><clipPath id="1ae7df0b92"><path d="M 371 157 L 576 157 L 576 448 L 371 448 Z M 371 157 " clip-rule="nonzero"/></clipPath><clipPath id="0261079a18"><path d="M 393 173 L 576 173 L 576 448 L 393 448 Z M 393 173 " clip-rule="nonzero"/></clipPath><clipPath id="c525c8984a"><path d="M 419 191 L 576 191 L 576 448 L 419 448 Z M 419 191 " clip-rule="nonzero"/></clipPath><clipPath id="c0c5c80042"><path d="M 437 208 L 576 208 L 576 448 L 437 448 Z M 437 208 " clip-rule="nonzero"/></clipPath><clipPath id="50f2cff93c"><rect x="0" width="576" y="0" height="448"/></clipPath><mask id="38268ccea4"><g filter="url(#d88ea12e79)"><rect x="-81" width="972" fill="#000000" y="-143.999994" height="1727.999922" fill-opacity="0.1"/></g></mask><clipPath id="a637564e34"><path d="M 0 0 L 802 0 L 802 440 L 0 440 Z M 0 0 " clip-rule="nonzero"/></clipPath><clipPath id="228cea8536"><path d="M 1041.511719 90.039062 L 191.855469 732.15625 L -151.359375 278.007812 L 698.292969 -364.109375 Z M 1041.511719 90.039062 " clip-rule="nonzero"/></clipPath><clipPath id="f9ebcd1423"><path d="M 1041.511719 90.039062 L 191.855469 732.15625 L -151.359375 278.007812 L 698.292969 -364.109375 Z M 1041.511719 90.039062 " clip-rule="nonzero"/></clipPath><clipPath id="9f4b8de3df"><path d="M 0 0 L 774 0 L 774 407 L 0 407 Z M 0 0 " clip-rule="nonzero"/></clipPath><clipPath id="16b56af16e"><path d="M 1041.511719 90.039062 L 191.855469 732.15625 L -151.359375 278.007812 L 698.292969 -364.109375 Z M 1041.511719 90.039062 " clip-rule="nonzero"/></clipPath><clipPath id="4f7b369358"><path d="M 1041.511719 90.039062 L 191.855469 732.15625 L -151.359375 278.007812 L 698.292969 -364.109375 Z M 1041.511719 90.039062 " clip-rule="nonzero"/></clipPath><clipPath id="c8889a6999"><path d="M 0 0 L 746 0 L 746 377 L 0 377 Z M 0 0 " clip-rule="nonzero"/></clipPath><clipPath id="f161acd470"><path d="M 1041.511719 90.039062 L 191.855469 732.15625 L -151.359375 278.007812 L 698.292969 -364.109375 Z M 1041.511719 90.039062 " clip-rule="nonzero"/></clipPath><clipPath id="1bda8c1f13"><path d="M 1041.511719 90.039062 L 191.855469 732.15625 L -151.359375 278.007812 L 698.292969 -364.109375 Z M 1041.511719 90.039062 " clip-rule="nonzero"/></clipPath><clipPath id="6ab4d73bd1"><path d="M 0 0 L 722 0 L 722 353 L 0 353 Z M 0 0 " clip-rule="nonzero"/></clipPath><clipPath id="d280b70be5"><path d="M 1041.511719 90.039062 L 191.855469 732.15625 L -151.359375 278.007812 L 698.292969 -364.109375 Z M 1041.511719 90.039062 " clip-rule="nonzero"/></clipPath><clipPath id="f1acf5abf2"><path d="M 1041.511719 90.039062 L 191.855469 732.15625 L -151.359375 278.007812 L 698.292969 -364.109375 Z M 1041.511719 90.039062 " clip-rule="nonzero"/></clipPath><clipPath id="fb84749812"><path d="M 0 0 L 700 0 L 700 334 L 0 334 Z M 0 0 " clip-rule="nonzero"/></clipPath><clipPath id="b61d6c035c"><path d="M 1041.511719 90.039062 L 191.855469 732.15625 L -151.359375 278.007812 L 698.292969 -364.109375 Z M 1041.511719 90.039062 " clip-rule="nonzero"/></clipPath><clipPath id="47d78228be"><path d="M 1041.511719 90.039062 L 191.855469 732.15625 L -151.359375 278.007812 L 698.292969 -364.109375 Z M 1041.511719 90.039062 " clip-rule="nonzero"/></clipPath><clipPath id="1a96d3b844"><path d="M 0 0 L 677 0 L 677 315 L 0 315 Z M 0 0 " clip-rule="nonzero"/></clipPath><clipPath id="b39b66ac78"><path d="M 1041.511719 90.039062 L 191.855469 732.15625 L -151.359375 278.007812 L 698.292969 -364.109375 Z M 1041.511719 90.039062 " clip-rule="nonzero"/></clipPath><clipPath id="38ed20b0fa"><path d="M 1041.511719 90.039062 L 191.855469 732.15625 L -151.359375 278.007812 L 698.292969 -364.109375 Z M 1041.511719 90.039062 " clip-rule="nonzero"/></clipPath><clipPath id="5158fb8b57"><path d="M 0 0 L 657 0 L 657 299 L 0 299 Z M 0 0 " clip-rule="nonzero"/></clipPath><clipPath id="303f973143"><path d="M 1041.511719 90.039062 L 191.855469 732.15625 L -151.359375 278.007812 L 698.292969 -364.109375 Z M 1041.511719 90.039062 " clip-rule="nonzero"/></clipPath><clipPath id="ff5b7fd63d"><path d="M 1041.511719 90.039062 L 191.855469 732.15625 L -151.359375 278.007812 L 698.292969 -364.109375 Z M 1041.511719 90.039062 " clip-rule="nonzero"/></clipPath><clipPath id="88e1497d1e"><path d="M 0 0 L 635 0 L 635 284 L 0 284 Z M 0 0 " clip-rule="nonzero"/></clipPath><clipPath id="c13976e8fe"><path d="M 1041.511719 90.039062 L 191.855469 732.15625 L -151.359375 278.007812 L 698.292969 -364.109375 Z M 1041.511719 90.039062 " clip-rule="nonzero"/></clipPath><clipPath id="aeccf5a17a"><path d="M 1041.511719 90.039062 L 191.855469 732.15625 L -151.359375 278.007812 L 698.292969 -364.109375 Z M 1041.511719 90.039062 " clip-rule="nonzero"/></clipPath><clipPath id="7bdceed62e"><path d="M 0 0 L 615 0 L 615 270 L 0 270 Z M 0 0 " clip-rule="nonzero"/></clipPath><clipPath id="acab5d9f2f"><path d="M 1041.511719 90.039062 L 191.855469 732.15625 L -151.359375 278.007812 L 698.292969 -364.109375 Z M 1041.511719 90.039062 " clip-rule="nonzero"/></clipPath><clipPath id="51a6b45e2f"><path d="M 1041.511719 90.039062 L 191.855469 732.15625 L -151.359375 278.007812 L 698.292969 -364.109375 Z M 1041.511719 90.039062 " clip-rule="nonzero"/></clipPath><clipPath id="97ac50fd17"><path d="M 17 0 L 594 0 L 594 255 L 17 255 Z M 17 0 " clip-rule="nonzero"/></clipPath><clipPath id="517f4603b2"><path d="M 1041.511719 90.039062 L 191.855469 732.15625 L -151.359375 278.007812 L 698.292969 -364.109375 Z M 1041.511719 90.039062 " clip-rule="nonzero"/></clipPath><clipPath id="68d7c7148c"><path d="M 1041.511719 90.039062 L 191.855469 732.15625 L -151.359375 278.007812 L 698.292969 -364.109375 Z M 1041.511719 90.039062 " clip-rule="nonzero"/></clipPath><clipPath id="2171a5e7c2"><path d="M 36 0 L 569 0 L 569 239 L 36 239 Z M 36 0 " clip-rule="nonzero"/></clipPath><clipPath id="9e8484ed3c"><path d="M 1041.511719 90.039062 L 191.855469 732.15625 L -151.359375 278.007812 L 698.292969 -364.109375 Z M 1041.511719 90.039062 " clip-rule="nonzero"/></clipPath><clipPath id="38c473630d"><path d="M 1041.511719 90.039062 L 191.855469 732.15625 L -151.359375 278.007812 L 698.292969 -364.109375 Z M 1041.511719 90.039062 " clip-rule="nonzero"/></clipPath><clipPath id="731efb2e7c"><path d="M 52 0 L 549 0 L 549 225 L 52 225 Z M 52 0 " clip-rule="nonzero"/></clipPath><clipPath id="70ea106d1a"><path d="M 1041.511719 90.039062 L 191.855469 732.15625 L -151.359375 278.007812 L 698.292969 -364.109375 Z M 1041.511719 90.039062 " clip-rule="nonzero"/></clipPath><clipPath id="a96e0c3e3e"><path d="M 1041.511719 90.039062 L 191.855469 732.15625 L -151.359375 278.007812 L 698.292969 -364.109375 Z M 1041.511719 90.039062 " clip-rule="nonzero"/></clipPath><clipPath id="cd0d1c2cd1"><rect x="0" width="810" y="0" height="733"/></clipPath></defs><rect x="-81" width="972" fill="#ffffff" y="-143.999994" height="1727.999922" fill-opacity="1"/><rect x="-81" width="972" fill="#e5e2dd" y="-143.999994" height="1727.999922" fill-opacity="1"/><g mask="url(#b295fbbc8c)"><g transform="matrix(1, 0, 0, 1, 234, 992)"><g clip-path="url(#50f2cff93c)"><g clip-path="url(#d3f0de354c)"><path fill="#b4aaa0" d="M 1045.8125 567.871094 C 1046.589844 561.71875 1047.402344 556.140625 1047.976562 550.558594 C 1048.753906 542.917969 1049.667969 535.277344 1050.003906 527.601562 C 1050.34375 519.925781 1050.34375 512.21875 1049.96875 504.542969 C 1049.429688 493.925781 1048.921875 483.242188 1047.503906 472.726562 C 1043.679688 444.394531 1034.585938 417.648438 1019.371094 393.472656 C 1012.035156 381.808594 1002.667969 371.363281 993.707031 360.8125 C 988.875 355.097656 982.992188 350.230469 977.445312 345.125 C 968.179688 336.605469 957.902344 329.503906 946.644531 323.824219 C 939.679688 320.304688 932.816406 316.484375 925.613281 313.542969 C 918.039062 310.46875 910.195312 307.660156 902.25 305.871094 C 889.367188 302.996094 876.382812 300.054688 863.300781 298.9375 C 836.25 296.605469 809.40625 299.140625 782.660156 303.910156 C 765.550781 306.953125 748.171875 308.8125 730.863281 310.398438 C 719.972656 311.378906 708.882812 310.535156 698.605469 306.273438 C 681.9375 299.378906 672.875 286.394531 670.40625 268.675781 C 667.128906 245.210938 668.816406 221.746094 669.96875 198.25 C 671.183594 173.703125 673.6875 149.15625 670.40625 124.539062 C 666.585938 95.902344 654.007812 72.878906 628.785156 57.492188 C 613.097656 47.925781 596.023438 41.667969 578.710938 35.886719 C 568.601562 32.507812 558.457031 29.191406 548.179688 26.421875 C 538.410156 23.785156 528.535156 21.519531 518.5625 19.828125 C 506.355469 17.730469 494.046875 15.804688 481.707031 14.855469 C 469.46875 13.910156 457.160156 14.519531 444.886719 14.011719 C 427.609375 13.300781 410.804688 16.886719 393.796875 18.949219 C 371.820312 21.621094 351.265625 29.058594 331.011719 37.070312 C 317.824219 42.3125 305.246094 49.582031 293.246094 57.257812 C 276.167969 68.109375 260.515625 80.925781 246.585938 95.800781 C 230.898438 112.539062 217.203125 130.761719 206.351562 150.878906 C 189.816406 181.375 179.742188 214.105469 176.121094 248.660156 C 173.824219 270.773438 173.621094 292.953125 176.121094 315.066406 C 178.082031 332.105469 180.347656 349.113281 182.410156 366.121094 C 183.867188 378.023438 185.792969 389.921875 184.238281 402.027344 C 182.683594 414.066406 176.324219 422.652344 164.796875 425.832031 C 153.570312 428.941406 141.871094 430.53125 130.34375 432.59375 C 116.414062 435.0625 102.277344 436.683594 88.519531 439.828125 C 75.570312 442.804688 64.140625 449.261719 53.761719 457.917969 C 45.511719 464.78125 39.253906 473.066406 34.625 482.296875 C 30.871094 489.800781 28.941406 498.289062 26.441406 506.402344 C 20.457031 525.710938 22.417969 545.351562 21.4375 564.894531 C 21.300781 567.871094 20.421875 568.988281 17.378906 568.816406 C 13.726562 568.582031 10.078125 568.648438 6.425781 568.816406 C 3.820312 568.917969 2.738281 568.039062 2.773438 565.371094 C 2.910156 548.464844 2.433594 531.523438 3.210938 514.652344 C 3.617188 506.199219 6.253906 497.847656 7.914062 489.464844 C 8.859375 484.765625 9.601562 479.996094 10.921875 475.398438 C 11.9375 471.847656 13.492188 468.46875 15.046875 465.121094 C 17.210938 460.554688 19.339844 455.921875 21.976562 451.628906 C 29.417969 439.558594 39.222656 429.957031 51.460938 422.519531 C 65.492188 413.964844 81.113281 410.683594 96.667969 406.964844 C 107.148438 404.460938 117.898438 403.109375 128.414062 400.675781 C 145.152344 396.855469 154.382812 385.628906 156.003906 368.960938 C 157.324219 355.300781 157.289062 341.472656 157.460938 327.675781 C 157.695312 305.699219 156.277344 283.722656 158.640625 261.710938 C 162.226562 228.476562 170.339844 196.523438 183.796875 165.992188 C 190.933594 149.796875 199.484375 134.246094 210.339844 120.179688 C 219.808594 107.90625 229.273438 95.53125 239.957031 84.371094 C 249.121094 74.769531 259.671875 66.351562 270.21875 58.269531 C 279.617188 51.070312 289.523438 44.40625 299.835938 38.625 C 310.148438 32.84375 321.136719 28.246094 332.027344 23.480469 C 365.871094 8.703125 401.914062 4.039062 438.261719 1.5 C 451.378906 0.589844 464.667969 1.839844 477.851562 2.515625 C 487.421875 2.988281 496.988281 3.734375 506.457031 5.121094 C 517.242188 6.675781 527.996094 8.703125 538.613281 11.207031 C 550.953125 14.113281 563.226562 17.359375 575.296875 21.179688 C 598.355469 28.449219 621.144531 36.664062 642.140625 48.804688 C 664.691406 61.855469 678.488281 81.703125 684.609375 106.992188 C 689.511719 127.210938 688.902344 147.734375 688.496094 168.292969 C 688.054688 188.949219 688.125 209.574219 687.988281 230.234375 C 687.921875 240.003906 688.96875 249.609375 692.214844 258.941406 C 695.222656 267.628906 701.210938 273.648438 708.816406 278.042969 C 722.847656 286.15625 738.433594 286.5625 753.953125 285.71875 C 774.308594 284.636719 794.628906 282.371094 814.984375 281.527344 C 838.582031 280.546875 862.117188 281.425781 885.480469 286.125 C 900.796875 289.199219 915.707031 293.292969 929.941406 299.445312 C 940.761719 304.144531 951.207031 309.925781 961.25 316.148438 C 970.480469 321.863281 979.507812 328.183594 987.691406 335.285156 C 995.398438 341.945312 1001.789062 350.128906 1008.957031 357.464844 C 1018.59375 367.339844 1024.816406 379.578125 1032.355469 390.90625 C 1042.5 406.152344 1048.753906 422.921875 1053.488281 440.234375 C 1057.136719 453.589844 1059.742188 467.417969 1061.195312 481.214844 C 1063.222656 500.285156 1063.5625 519.488281 1061.839844 538.660156 C 1061.027344 547.652344 1059.640625 556.613281 1058.355469 565.539062 C 1058.21875 566.417969 1057.003906 567.738281 1056.226562 567.769531 C 1052.878906 568.007812 1049.53125 567.871094 1045.8125 567.871094 Z M 1045.8125 567.871094 " fill-opacity="1" fill-rule="nonzero"/></g><g clip-path="url(#8bb2259847)"><path fill="#b4aaa0" d="M 1018.527344 567.871094 C 1019.371094 561.953125 1020.117188 556.613281 1020.859375 551.304688 C 1023.800781 530.171875 1024.003906 508.972656 1021.332031 487.839844 C 1020.117188 478.238281 1017.851562 468.703125 1015.484375 459.304688 C 1010.714844 440.402344 1002.871094 422.753906 991.882812 406.660156 C 980.21875 389.585938 966.085938 375.046875 948.910156 363.246094 C 930.480469 350.566406 910.398438 341.945312 888.65625 337.617188 C 869.011719 333.695312 848.996094 331.972656 829.046875 335.523438 C 811.5 338.632812 794.054688 342.183594 776.609375 345.765625 C 758.113281 349.585938 739.820312 354.558594 721.15625 357.363281 C 703.101562 360.101562 685.417969 357.53125 670.375 345.835938 C 659.046875 337.042969 651.777344 325.378906 647.449219 311.683594 C 643.359375 298.734375 642.140625 285.378906 642.140625 272.023438 C 642.175781 247.308594 642.886719 222.558594 643.527344 197.84375 C 644.035156 179.042969 645.21875 160.277344 642.714844 141.546875 C 639.199219 115.410156 629.257812 92.621094 606.605469 77.609375 C 597.238281 71.421875 586.691406 66.722656 576.140625 62.699219 C 556.566406 55.261719 536.515625 48.9375 515.753906 45.792969 C 500.167969 43.425781 484.414062 41.398438 468.691406 40.6875 C 453.375 39.980469 437.957031 40.757812 422.605469 41.464844 C 402.21875 42.445312 382.4375 47.550781 363.199219 53.636719 C 344.199219 59.625 325.738281 67.671875 309.136719 79.132812 C 301.359375 84.472656 293.277344 89.546875 286.246094 95.765625 C 276.472656 104.390625 267.175781 113.652344 258.285156 123.253906 C 246.652344 135.800781 237.21875 150 229.578125 165.28125 C 217.574219 189.253906 209.257812 214.34375 206.28125 241.1875 C 202.257812 277.46875 206.789062 312.734375 218.351562 347.085938 C 225.183594 367.4375 233.195312 387.355469 240.328125 407.605469 C 244.386719 419.070312 248.105469 430.667969 247.566406 443.140625 C 247.125 453.726562 238.300781 465.253906 228.53125 469.210938 C 215.546875 474.453125 201.820312 475.769531 188.261719 478.070312 C 172.707031 480.707031 156.953125 482.398438 141.464844 485.339844 C 124.460938 488.585938 107.789062 493.351562 94.300781 505.050781 C 87.605469 510.832031 81.722656 517.222656 77.15625 525.203125 C 70.292969 537.203125 68.875 550.425781 66 563.375 C 65.085938 567.433594 63.800781 569.257812 59.472656 568.75 C 56.398438 568.378906 53.253906 568.546875 50.140625 568.714844 C 47.503906 568.851562 46.289062 567.804688 46.660156 565.199219 C 48.554688 551.675781 49.058594 537.78125 52.710938 524.761719 C 58.492188 504.171875 71.140625 487.535156 90.308594 477.664062 C 100.554688 472.390625 112.355469 469.75 123.714844 467.011719 C 134.433594 464.441406 145.488281 463.191406 156.410156 461.570312 C 164.152344 460.417969 171.929688 459.742188 179.671875 458.59375 C 191.472656 456.871094 203.207031 454.707031 212.570312 446.488281 C 216.964844 442.636719 219.097656 437.496094 220.042969 431.714844 C 221.800781 421.402344 219.738281 411.597656 217.035156 401.757812 C 210.847656 379.375 204.390625 357.058594 198.808594 334.507812 C 191.371094 304.414062 190.054688 273.851562 193.703125 243.082031 C 197.625 209.847656 208.109375 178.671875 225.316406 150.066406 C 232.722656 137.761719 241.546875 126.097656 251.046875 115.308594 C 260.921875 104.117188 271.808594 93.671875 283.269531 84.101562 C 292.128906 76.730469 302.375 70.949219 312.3125 64.964844 C 342.8125 46.539062 376.621094 37.441406 411.414062 32.371094 C 434.371094 29.023438 457.601562 28.652344 480.894531 30.75 C 504.257812 32.84375 527.351562 36.496094 549.734375 43.15625 C 568.332031 48.703125 586.960938 54.890625 604.507812 63.105469 C 634.835938 77.273438 649.917969 102.832031 653.941406 135.699219 C 656.207031 154.363281 655.023438 172.957031 654.210938 191.585938 C 652.859375 222.898438 649.953125 254.273438 653.941406 285.550781 C 656.070312 302.117188 662.226562 317.332031 676.628906 327.507812 C 686.230469 334.304688 697.085938 337.550781 708.882812 337.921875 C 727.414062 338.496094 745.433594 335.285156 763.421875 331.296875 C 789.285156 325.546875 815.21875 320.476562 841.863281 319.699219 C 861.609375 319.125 881.015625 320.78125 899.984375 326.089844 C 916.925781 330.820312 932.949219 337.753906 947.960938 347.1875 C 966.625 358.953125 981.773438 374 995.09375 391.511719 C 1005.136719 404.699219 1013.488281 418.695312 1018.898438 434.148438 C 1024.105469 448.992188 1028.839844 464.070312 1031.136719 479.894531 C 1034.113281 500.382812 1034.011719 520.804688 1032.289062 541.328125 C 1031.679688 548.464844 1030.429688 555.53125 1029.785156 562.664062 C 1029.378906 566.925781 1027.484375 568.617188 1023.292969 567.9375 C 1022.007812 567.703125 1020.65625 567.871094 1018.527344 567.871094 Z M 1018.527344 567.871094 " fill-opacity="1" fill-rule="nonzero"/></g><g clip-path="url(#5761401988)"><path fill="#b4aaa0" d="M 993.605469 567.464844 C 994.589844 559.859375 995.804688 552.554688 996.414062 545.183594 C 997.699219 529.96875 997.867188 514.789062 995.5 499.539062 C 993.335938 485.746094 989.617188 472.523438 985.085938 459.304688 C 979.746094 443.582031 971.425781 429.785156 960.910156 417.511719 C 953.101562 408.382812 943.804688 400.167969 933.964844 393.269531 C 917.734375 381.945312 899.445312 375.386719 879.597656 372.207031 C 855.386719 368.351562 831.921875 370.988281 808.59375 376.636719 C 790.742188 380.964844 773.191406 386.441406 755.410156 390.972656 C 739.652344 394.996094 723.726562 397.800781 707.328125 396.347656 C 672.335938 393.238281 648.464844 374.910156 634.433594 343.164062 C 627.195312 326.832031 624.121094 309.453125 623.511719 291.871094 C 622.363281 258.09375 622.261719 224.28125 621.617188 190.507812 C 621.28125 173.160156 619.859375 155.949219 614.71875 139.25 C 607.246094 114.871094 591.761719 97.695312 568.566406 87.382812 C 550.816406 79.46875 532.152344 74.5 513.015625 71.492188 C 497.835938 69.089844 482.585938 66.992188 467.269531 66.011719 C 450.972656 64.964844 434.640625 66.011719 418.414062 68.347656 C 396.097656 71.523438 374.695312 77.507812 353.832031 86.132812 C 336.253906 93.367188 320.53125 103.476562 305.71875 114.902344 C 292.601562 125.015625 280.972656 137.117188 271.300781 150.675781 C 261.15625 164.878906 252.804688 179.992188 246.890625 196.59375 C 240.027344 215.863281 235.933594 235.542969 235.699219 255.964844 C 235.460938 278.449219 239.011719 300.359375 246.515625 321.625 C 254.765625 345.054688 265.957031 367 278.707031 388.300781 C 286.71875 401.722656 294.292969 415.484375 301.089844 429.585938 C 307.207031 442.261719 309.40625 455.890625 305.042969 469.785156 C 302.070312 479.253906 295.882812 486.488281 288.105469 492.472656 C 277.351562 500.757812 264.640625 504.644531 251.824219 507.957031 C 228.597656 514.011719 205.132812 519.25 181.9375 525.472656 C 171.894531 528.175781 161.988281 531.894531 152.589844 536.324219 C 146.707031 539.097656 142.210938 544.609375 136.53125 547.957031 C 129.089844 552.351562 126.589844 560.0625 122.160156 566.519531 C 121.484375 567.5 120.164062 568.582031 119.082031 568.613281 C 112.085938 568.785156 105.085938 568.714844 97.445312 568.714844 C 97.882812 567.058594 98.054688 565.773438 98.527344 564.625 C 101.0625 558.503906 103.328125 552.214844 106.4375 546.402344 C 108.398438 542.714844 111.375 539.402344 114.453125 536.527344 C 118.675781 532.539062 123.207031 528.75 128.042969 525.507812 C 137.171875 519.421875 147.347656 515.394531 157.964844 512.996094 C 181.90625 507.621094 206.046875 502.953125 230.019531 497.644531 C 241.714844 495.074219 253.550781 492.507812 264.066406 486.25 C 275.832031 479.285156 283.40625 469.277344 284.351562 455.449219 C 284.996094 446.082031 283.40625 436.71875 279.484375 428.128906 C 272.789062 413.523438 265.824219 399.050781 258.554688 384.714844 C 246.789062 361.554688 235.425781 338.292969 229.511719 312.734375 C 222.78125 283.789062 221.328125 254.679688 227.074219 225.433594 C 231.101562 204.910156 237.894531 185.332031 248.308594 167.109375 C 258.554688 149.1875 270.960938 133.160156 285.90625 118.792969 C 311.605469 94.144531 342.136719 78.386719 375.574219 67.667969 C 396.132812 61.078125 417.332031 58.167969 438.835938 56.75 C 460.644531 55.296875 482.316406 56.410156 503.820312 59.824219 C 529.347656 63.882812 554.46875 70.003906 578.136719 80.550781 C 605.996094 92.996094 621.484375 115.308594 626.960938 144.960938 C 631.015625 166.9375 630.410156 189.121094 629.933594 211.265625 C 629.257812 244.636719 627.601562 278.109375 633.621094 311.210938 C 637.949219 335.046875 648.328125 355.640625 669.15625 369.433594 C 682.476562 378.257812 697.421875 381.84375 713.382812 381.605469 C 728.257812 381.402344 742.59375 378.226562 756.828125 374.472656 C 770.421875 370.886719 783.910156 366.933594 797.535156 363.515625 C 821.238281 357.566406 845.246094 354.050781 869.757812 356.28125 C 883.855469 357.566406 897.652344 360.542969 910.972656 365.78125 C 925.140625 371.363281 938.328125 378.460938 949.449219 388.875 C 956.210938 395.199219 962.230469 402.296875 968.992188 408.621094 C 977.511719 416.53125 983.5 426.304688 987.960938 436.617188 C 993.640625 449.667969 998.003906 463.328125 1002.058594 476.988281 C 1004.527344 485.339844 1005.980469 494.128906 1006.691406 502.820312 C 1007.539062 513.265625 1007.46875 523.847656 1007.132812 534.363281 C 1006.894531 542.582031 1005.847656 550.796875 1004.800781 558.945312 C 1003.445312 569.222656 1004.019531 568.34375 993.605469 567.464844 Z M 993.605469 567.464844 " fill-opacity="1" fill-rule="nonzero"/></g><g clip-path="url(#43599ac8a7)"><path fill="#b4aaa0" d="M 157.324219 567.398438 C 160.097656 565.03125 162.765625 562.496094 165.675781 560.332031 C 168.988281 557.863281 172.371094 555.464844 176.019531 553.535156 C 182.886719 549.917969 189.714844 546.132812 196.949219 543.425781 C 207.296875 539.539062 217.980469 536.5625 228.53125 533.179688 C 246.28125 527.535156 264.097656 522.058594 281.816406 516.207031 C 298.25 510.765625 312.347656 501.769531 322.523438 487.46875 C 331.585938 474.722656 333.785156 460.519531 330.46875 445.375 C 327.292969 430.734375 320.226562 417.886719 312.109375 405.511719 C 301.867188 389.921875 291.453125 374.472656 281.476562 358.714844 C 266.398438 334.878906 256.1875 308.980469 252.367188 281.050781 C 247.902344 248.492188 251.894531 216.980469 266.128906 186.921875 C 273.972656 170.386719 283.777344 155.375 296.21875 142.089844 C 318.027344 118.859375 344.636719 102.765625 374.253906 91.8125 C 393.527344 84.675781 413.613281 80.449219 434.269531 78.929688 C 455.402344 77.339844 476.433594 77.609375 497.328125 80.722656 C 519.542969 84 541.585938 88.296875 562.078125 98.066406 C 582.296875 107.703125 595.785156 123.425781 603.394531 144.285156 C 608.566406 158.519531 610.96875 173.363281 611.441406 188.410156 C 612.285156 213.800781 612.554688 239.226562 613.433594 264.652344 C 614.179688 286.292969 615.667969 307.898438 620.636719 329.0625 C 626.789062 355.199219 638.792969 377.921875 661.109375 394.082031 C 676.054688 404.902344 692.890625 410.414062 711.285156 411.765625 C 734.175781 413.457031 756.085938 408.351562 778.09375 403.179688 C 797.402344 398.648438 816.808594 394.351562 836.386719 391.140625 C 854.507812 388.164062 872.699219 389.28125 890.550781 394.421875 C 902.554688 397.871094 913.878906 402.703125 924.328125 409.5 C 928.285156 412.070312 932.207031 414.808594 935.554688 418.054688 C 946.8125 429.007812 957.835938 440.335938 964.699219 454.636719 C 972.003906 469.851562 978.191406 485.507812 980.625 502.515625 C 983.496094 522.597656 983.394531 542.613281 980.320312 562.632812 C 979.40625 568.582031 979.304688 568.546875 971.121094 567.398438 C 971.425781 563.914062 971.933594 560.367188 972.035156 556.816406 C 972.304688 543.191406 973.355469 529.53125 972.375 515.972656 C 971.460938 503.394531 968.214844 491.054688 963.785156 479.015625 C 959.019531 466.167969 952.796875 454.234375 943.9375 443.953125 C 937.953125 436.988281 930.753906 430.96875 923.652344 425.054688 C 909.722656 413.390625 893.085938 407.4375 875.503906 404.632812 C 861.101562 402.332031 846.394531 401.996094 831.921875 404.765625 C 807.140625 409.535156 782.457031 415.046875 757.640625 419.679688 C 734.582031 424.003906 711.417969 424.953125 688.632812 417.816406 C 656.949219 407.910156 635.988281 386.441406 623.140625 356.382812 C 615.464844 338.394531 611.878906 319.328125 610.492188 300.019531 C 608.5 271.71875 607.855469 243.320312 605.929688 214.984375 C 604.746094 197.777344 603.527344 180.363281 600.078125 163.492188 C 592.640625 127.347656 569.34375 105.605469 534.082031 96.308594 C 506.21875 88.972656 477.953125 84.777344 449.078125 86.0625 C 427.035156 87.078125 405.429688 90.425781 384.230469 97.152344 C 369.625 101.785156 355.964844 108.277344 343.015625 115.886719 C 329.253906 124 316.710938 134.109375 305.484375 145.875 C 292.535156 159.46875 282.492188 174.816406 274.851562 191.757812 C 268.292969 206.328125 264.132812 221.613281 262.613281 237.742188 C 261.359375 251.195312 261.359375 264.382812 263.523438 277.707031 C 266.769531 297.519531 273.160156 316.214844 282.492188 333.933594 C 293.515625 354.792969 307.105469 373.898438 320.867188 393 C 328.339844 403.382812 335.238281 414.371094 340.917969 425.796875 C 349.472656 443.074219 352.480469 461.433594 344.265625 479.863281 C 337.164062 495.785156 325.601562 508.160156 309.84375 515.667969 C 295.710938 522.394531 281.171875 528.277344 266.566406 533.890625 C 252.976562 539.132812 238.976562 543.324219 225.316406 548.398438 C 216.660156 551.609375 208.175781 555.429688 199.789062 559.351562 C 194.582031 561.785156 189.75 564.964844 184.746094 567.769531 C 184.167969 568.109375 183.527344 568.480469 182.886719 568.480469 C 174.566406 568.515625 166.25 568.515625 157.933594 568.515625 C 157.761719 568.210938 157.558594 567.804688 157.324219 567.398438 Z M 157.324219 567.398438 " fill-opacity="1" fill-rule="nonzero"/></g><g clip-path="url(#c0fdb3aa43)"><path fill="#b4aaa0" d="M 224.335938 567.363281 C 236.105469 562.292969 247.902344 557.222656 259.667969 552.117188 C 279.449219 543.492188 299.566406 535.546875 318.90625 526.011719 C 334.054688 518.574219 346.902344 507.753906 356.234375 493.214844 C 367.425781 475.835938 369.386719 457.308594 363.808594 437.664062 C 358.972656 420.589844 349.84375 405.847656 339.464844 391.75 C 326.414062 374.03125 312.585938 356.789062 300.714844 338.292969 C 280.496094 306.78125 271.234375 272.058594 275.695312 234.394531 C 277.320312 220.664062 281.171875 207.511719 286.855469 194.832031 C 293.445312 180.160156 302.304688 167.210938 312.957031 155.207031 C 330.199219 135.800781 351.332031 121.835938 374.796875 111.761719 C 397.71875 101.886719 421.996094 96.816406 447.117188 95.765625 C 477.378906 94.480469 507 97.695312 535.90625 106.621094 C 562.921875 114.972656 581.042969 132.824219 590.34375 159.601562 C 595.347656 174.039062 597.542969 189.019531 598.558594 204.132812 C 600.214844 228.8125 601.027344 253.53125 602.820312 278.179688 C 604.710938 304.3125 607.417969 330.417969 616.578125 355.265625 C 629.460938 390.261719 652.589844 415.25 688.5625 426.980469 C 708.277344 433.40625 728.699219 434.453125 749.121094 431.578125 C 770.894531 428.503906 792.601562 424.648438 814.308594 421.0625 C 833.308594 417.917969 852.414062 416.332031 871.550781 419.304688 C 884.871094 421.367188 897.582031 425.324219 909.148438 432.898438 C 917.328125 438.273438 924.429688 444.527344 931.292969 451.460938 C 937.886719 458.121094 943.464844 465.390625 947.285156 473.675781 C 953.238281 486.625 958.410156 499.84375 960.640625 514.214844 C 963.144531 530.238281 962.972656 546.097656 961.386719 562.089844 C 960.8125 568.007812 960.40625 568.3125 951.683594 567.636719 C 951.683594 566.28125 951.546875 564.828125 951.714844 563.441406 C 953.371094 549.445312 953.507812 535.515625 951.207031 521.515625 C 947.828125 501.0625 941.199219 481.925781 927.8125 465.898438 C 921.148438 457.917969 913.273438 450.988281 904.175781 445.476562 C 880.78125 431.308594 855.21875 429.042969 828.914062 431.511719 C 812.921875 433.03125 797.0625 435.703125 781.136719 437.867188 C 756.457031 441.25 731.808594 444.222656 706.921875 439.929688 C 669.496094 433.507812 641.5 413.726562 622.5625 380.929688 C 612.082031 362.773438 606.808594 342.890625 603.257812 322.402344 C 598.253906 293.730469 596.835938 264.722656 594.972656 235.746094 C 593.554688 213.632812 592.132812 191.554688 585.644531 170.082031 C 576.546875 139.890625 556.972656 120.550781 526.8125 111.792969 C 510.277344 106.992188 493.304688 104.792969 476.164062 103.542969 C 457.601562 102.191406 439.140625 103.105469 420.949219 106.519531 C 410.535156 108.480469 400.359375 111.929688 390.148438 114.871094 C 375.167969 119.164062 361.710938 126.976562 349.101562 135.597656 C 337.636719 143.40625 326.617188 152.367188 318.332031 163.996094 C 315.050781 168.597656 311.265625 172.824219 308.085938 177.523438 C 297.402344 193.246094 290.980469 210.554688 287.800781 229.386719 C 283.8125 252.851562 286.753906 275.40625 294.699219 297.519531 C 300.210938 312.867188 307.953125 327.136719 317.519531 340.324219 C 328.203125 355.0625 339.53125 369.332031 350.417969 383.9375 C 363.910156 402.0625 375.4375 421.164062 379.699219 443.851562 C 383.992188 466.742188 378.820312 486.996094 363.402344 504.542969 C 350.890625 518.777344 335.609375 529.328125 318.703125 537.578125 C 303.554688 544.949219 288.171875 551.8125 272.921875 558.980469 C 266.972656 561.785156 261.125 564.863281 255.242188 567.769531 C 254.53125 568.109375 253.753906 568.582031 253.007812 568.582031 C 243.609375 568.648438 234.175781 568.617188 224.777344 568.617188 C 224.539062 568.210938 224.4375 567.804688 224.335938 567.363281 Z M 224.335938 567.363281 " fill-opacity="1" fill-rule="nonzero"/></g><g clip-path="url(#11d11e6a17)"><path fill="#b4aaa0" d="M 287.867188 568.683594 C 305.789062 558.675781 323.4375 549.308594 340.546875 539.0625 C 357.28125 529.023438 372.835938 517.324219 384.398438 501.128906 C 394.136719 487.570312 397.890625 472.253906 396.503906 455.890625 C 393.96875 425.796875 380.613281 400.03125 362.828125 376.296875 C 349.539062 358.582031 335 341.675781 323.03125 323.113281 C 301.933594 290.417969 293.886719 254.679688 304.707031 216.234375 C 309.203125 200.242188 316.945312 185.90625 327.425781 172.824219 C 340.851562 156.019531 357.417969 143.171875 376.148438 133.261719 C 398.5 121.429688 422.640625 115.308594 447.929688 113.621094 C 470.210938 112.132812 492.1875 113.789062 513.964844 118.589844 C 548.042969 126.128906 570.15625 146.71875 579.117188 180.328125 C 583.175781 195.511719 585.40625 211.332031 587.0625 226.988281 C 590.816406 262.589844 592.066406 298.429688 599.402344 333.628906 C 605.015625 360.574219 614.484375 385.796875 632.574219 407.101562 C 655.460938 434.082031 685.148438 447.742188 719.90625 451.59375 C 743.472656 454.199219 766.871094 451.527344 790.265625 449.398438 C 809.507812 447.640625 828.710938 445.644531 848.117188 447.199219 C 863.703125 448.417969 878.546875 452.472656 892.105469 459.914062 C 899.171875 463.765625 905.429688 469.550781 911.109375 475.363281 C 916.621094 481.011719 921.792969 487.332031 925.511719 494.230469 C 933.085938 508.195312 938.125 523.171875 938.527344 539.300781 C 938.730469 547.113281 938.257812 554.957031 938.527344 562.730469 C 938.664062 567.128906 937.007812 568.617188 932.882812 567.9375 C 931.96875 567.804688 931.023438 567.835938 929.875 567.804688 C 929.875 563.511719 929.839844 559.351562 929.875 555.226562 C 929.976562 541.632812 927.878906 528.480469 923.484375 515.53125 C 920.371094 506.367188 915.941406 498.085938 910.027344 490.78125 C 904.3125 483.714844 897.449219 477.664062 889.535156 472.726562 C 878.617188 465.898438 866.816406 461.433594 854.304688 459.167969 C 836.691406 455.957031 818.835938 456.292969 800.984375 457.410156 C 777.113281 458.898438 753.3125 461.128906 729.339844 459.609375 C 669.191406 455.753906 623.78125 421.636719 603.902344 364.699219 C 596.765625 344.3125 592.742188 323.214844 590.171875 301.878906 C 586.621094 272.496094 583.917969 243.046875 580.234375 213.667969 C 578.949219 203.386719 576.511719 193.144531 573.46875 183.238281 C 563.15625 149.492188 539.996094 129.917969 505.542969 123.492188 C 480.488281 118.828125 455.335938 118.117188 430.210938 122.851562 C 416.28125 125.453125 402.421875 128.765625 389.773438 135.496094 C 379.429688 141.007812 368.644531 146.113281 359.480469 153.246094 C 350.113281 160.550781 342 169.679688 334.257812 178.773438 C 322.695312 192.398438 316.03125 208.730469 312.582031 226.109375 C 307.003906 254.035156 312.582031 280.445312 325.738281 305.292969 C 336.015625 324.734375 349.539062 341.980469 363.300781 359.054688 C 378.886719 378.460938 391.734375 399.558594 399.953125 423.195312 C 405.96875 440.503906 409.316406 458.121094 406.476562 476.582031 C 404.449219 489.769531 398.394531 500.859375 389.707031 510.628906 C 376.824219 525.132812 361 536.019531 344.636719 546.132812 C 332.703125 553.5 320.53125 560.5 308.457031 567.632812 C 307.546875 568.175781 306.464844 568.648438 305.484375 568.683594 C 299.734375 568.71875 293.953125 568.683594 287.867188 568.683594 Z M 287.867188 568.683594 " fill-opacity="1" fill-rule="nonzero"/></g><g clip-path="url(#0a0a99abec)"><path fill="#b4aaa0" d="M 330.402344 567.804688 C 334.492188 565.066406 338.585938 562.292969 342.675781 559.554688 C 360.933594 547.3125 379.734375 535.886719 395.996094 520.941406 C 416.789062 501.839844 423.179688 478.171875 418.515625 450.953125 C 412.96875 418.492188 399.582031 389.316406 380.746094 362.570312 C 370.332031 347.761719 358.835938 333.730469 348.390625 318.988281 C 338.246094 304.652344 330.539062 288.964844 326.480469 271.820312 C 321.746094 251.871094 322.152344 231.992188 329.253906 212.484375 C 333.242188 201.527344 338.992188 191.65625 346.058594 182.324219 C 357.6875 167.007812 372.429688 155.476562 389.03125 146.652344 C 410.230469 135.394531 433.15625 129.542969 457.261719 128.328125 C 474.910156 127.414062 492.324219 128.394531 509.5 132.585938 C 537.394531 139.417969 555.921875 156.726562 566.234375 183.304688 C 572.390625 199.160156 575.296875 215.761719 577.425781 232.53125 C 581.890625 267.695312 584.324219 303.128906 592.03125 337.820312 C 598.457031 366.761719 608.667969 393.945312 628.175781 416.871094 C 648.226562 440.371094 673.449219 455.144531 703.472656 462.347656 C 729.035156 468.46875 754.902344 468.195312 780.835938 467.417969 C 804.46875 466.675781 828.136719 465.625 851.433594 471.070312 C 865.734375 474.417969 878.886719 480.097656 889.976562 490.207031 C 897.921875 497.441406 905.226562 505.21875 909.585938 515.023438 C 915.164062 527.601562 919.289062 540.6875 919.257812 554.71875 C 919.257812 558.066406 919.492188 561.414062 919.695312 564.761719 C 919.832031 566.957031 919.019531 567.871094 916.722656 567.972656 C 910.027344 568.277344 910.296875 568.039062 909.824219 561.175781 C 909.316406 553.703125 907.996094 546.230469 906.375 538.929688 C 905.226562 533.722656 903.5 528.515625 901.132812 523.746094 C 889.976562 501.128906 871.550781 487.636719 847.40625 481.042969 C 828.136719 475.804688 808.527344 475.433594 788.8125 475.195312 C 771.671875 474.957031 754.460938 475.027344 737.386719 473.808594 C 694.109375 470.730469 656.140625 455.789062 627.128906 422.113281 C 612.183594 404.765625 601.90625 384.816406 595.175781 363.042969 C 587.300781 337.484375 582.9375 311.175781 579.488281 284.703125 C 576.039062 258.363281 574.078125 231.789062 567.351562 205.957031 C 563.226562 190.167969 557.308594 175.15625 546.386719 162.578125 C 533.066406 147.195312 515.722656 139.417969 496.042969 136.507812 C 474.203125 133.261719 452.527344 134.175781 430.957031 139.382812 C 412.9375 143.746094 396.367188 150.914062 380.917969 161.292969 C 371.789062 167.414062 364.011719 174.851562 357.214844 183.066406 C 344.804688 198.011719 336.929688 215.1875 334.867188 234.933594 C 332.027344 262.183594 340.578125 286.191406 355.085938 308.40625 C 365.328125 324.128906 376.757812 339.070312 387.171875 354.691406 C 407.085938 384.582031 421.660156 416.804688 427.777344 452.472656 C 430.144531 466.304688 430.414062 480.132812 426.121094 493.824219 C 422.265625 506.097656 414.863281 516.003906 405.394531 524.253906 C 397.078125 531.492188 388.152344 538.050781 379.191406 544.507812 C 368.371094 552.285156 357.25 559.6875 346.160156 567.09375 C 344.601562 568.140625 342.472656 568.582031 340.578125 568.714844 C 337.367188 568.988281 334.121094 568.785156 330.875 568.785156 C 330.707031 568.414062 330.539062 568.109375 330.402344 567.804688 Z M 330.402344 567.804688 " fill-opacity="1" fill-rule="nonzero"/></g><g clip-path="url(#33f1a37f5c)"><path fill="#b4aaa0" d="M 363.605469 567.667969 C 368.574219 564.085938 373.613281 560.535156 378.550781 556.949219 C 390.957031 547.890625 403.738281 539.265625 415.707031 529.664062 C 437.582031 512.082031 443.667969 488.550781 439.613281 461.671875 C 433.796875 423.125 419.527344 387.625 399.683594 354.386719 C 389.503906 337.347656 377.671875 321.320312 367.054688 304.550781 C 353.902344 283.757812 345.71875 261.339844 348.324219 236.253906 C 350.011719 219.988281 355.761719 205.246094 365.835938 192.0625 C 375.8125 179.011719 388.085938 168.765625 402.183594 160.921875 C 421.828125 149.964844 443.296875 144.929688 465.75 143.675781 C 480.589844 142.832031 495.230469 143.777344 509.398438 148.445312 C 534.183594 156.59375 548.992188 174.683594 557.882812 198.382812 C 563.902344 214.410156 566.707031 231.214844 569.449219 248.019531 C 574.519531 279.160156 578.980469 310.433594 585.066406 341.40625 C 590.34375 368.183594 600.046875 393.542969 616.175781 415.992188 C 640.753906 450.207031 674.464844 469.921875 715.273438 478.304688 C 738.808594 483.140625 762.746094 483.683594 786.648438 484.863281 C 802.84375 485.675781 819.039062 486.859375 834.761719 491.152344 C 850.351562 495.378906 864.789062 502.175781 875.742188 514.316406 C 883.113281 522.496094 889.738281 531.492188 892.003906 542.851562 C 893.121094 548.394531 894.777344 553.804688 895.894531 559.351562 C 896.402344 561.921875 896.230469 564.660156 896.402344 567.601562 C 894.742188 567.734375 893.558594 567.734375 892.410156 567.90625 C 888.21875 568.613281 887.339844 566.382812 886.898438 562.664062 C 885.410156 549.917969 881.558594 538.152344 873.644531 527.570312 C 860.222656 509.582031 841.796875 500.28125 820.5625 496.496094 C 803.183594 493.417969 785.535156 491.761719 767.917969 490.171875 C 742.1875 487.839844 716.523438 485.542969 691.910156 476.816406 C 644.8125 460.117188 612.859375 427.792969 594.296875 381.808594 C 585.066406 358.917969 579.792969 334.945312 575.566406 310.738281 C 570.597656 282.304688 566.101562 253.765625 560.824219 225.363281 C 558.289062 211.773438 553.523438 198.789062 546.457031 186.785156 C 534.351562 166.230469 516.464844 154.429688 492.898438 150.8125 C 473.019531 147.769531 453.679688 150.269531 434.40625 155.34375 C 418.851562 159.433594 404.753906 166.566406 392.3125 176.339844 C 381.523438 184.824219 372.53125 195.136719 366.410156 207.953125 C 358.769531 223.910156 356.097656 240.378906 358.9375 257.585938 C 361.476562 272.972656 368 286.902344 376.046875 300.222656 C 390.351562 323.789062 405.9375 346.613281 417.464844 371.765625 C 430.484375 400.132812 441.335938 429.179688 446.511719 460.117188 C 448.335938 470.96875 449.148438 481.855469 447.457031 492.8125 C 444.988281 508.601562 437.550781 521.785156 425.109375 531.59375 C 412.867188 541.261719 399.882812 550.019531 387.207031 559.183594 C 384.027344 561.480469 380.644531 563.511719 377.671875 566.011719 C 373.445312 569.628906 368.675781 568.445312 364.042969 568.613281 C 363.910156 568.34375 363.742188 568.007812 363.605469 567.667969 Z M 363.605469 567.667969 " fill-opacity="1" fill-rule="nonzero"/></g><g clip-path="url(#1ae7df0b92)"><path fill="#b4aaa0" d="M 390.417969 568.210938 C 398.363281 562.933594 405.902344 558.03125 413.339844 552.996094 C 426.695312 543.933594 440.085938 534.871094 449.078125 520.941406 C 456.449219 509.511719 458.445312 496.800781 458.105469 483.445312 C 457.667969 465.59375 453.375 448.484375 448.4375 431.511719 C 439.410156 400.335938 427.574219 370.246094 412.394531 341.539062 C 405.464844 328.421875 397.652344 315.777344 390.417969 302.792969 C 382.707031 288.996094 375.304688 275.035156 372.429688 259.210938 C 368.980469 240.105469 371.71875 222.152344 381.828125 205.28125 C 390.519531 190.777344 403.027344 180.394531 417.433594 172.519531 C 438.800781 160.785156 462.097656 155.949219 486.339844 158.082031 C 515.28125 160.617188 535.433594 176.070312 547.335938 202.507812 C 554.097656 217.589844 558.054688 233.480469 561.097656 249.574219 C 564.613281 268.171875 567.757812 286.800781 570.800781 305.464844 C 574.652344 329.234375 580.132812 352.597656 588.007812 375.316406 C 597.339844 402.230469 611.644531 426.136719 632.371094 445.882812 C 654.957031 467.417969 681.9375 480.773438 712.097656 488.109375 C 734.277344 493.519531 756.964844 495.378906 779.550781 497.949219 C 795.847656 499.777344 812.144531 501.941406 827.628906 507.621094 C 839.664062 512.050781 850.6875 518.136719 859.410156 527.972656 C 865.566406 534.90625 870.804688 542.308594 873.644531 551.136719 C 875.335938 556.308594 876.25 561.75 877.667969 567.835938 C 874.59375 567.835938 871.953125 568.007812 869.351562 567.734375 C 868.609375 567.632812 867.558594 566.25 867.425781 565.335938 C 865.566406 553.230469 859.917969 543.089844 851.769531 534.160156 C 835.640625 516.410156 814.070312 510.390625 791.6875 506.300781 C 764.707031 501.363281 737.21875 499.503906 710.609375 492.472656 C 675.140625 483.074219 644.507812 465.726562 620.332031 437.832031 C 601.566406 416.230469 589.597656 390.9375 581.382812 363.71875 C 573.707031 338.261719 568.703125 312.191406 564.070312 286.023438 C 560.082031 263.402344 556.566406 240.648438 548.6875 218.941406 C 542.734375 202.441406 534.519531 187.429688 519.8125 176.949219 C 508.925781 169.171875 496.617188 165.351562 483.296875 164.574219 C 465.140625 163.523438 447.761719 166.636719 431.363281 174.546875 C 424.601562 177.792969 417.464844 180.835938 411.71875 185.5 C 389.335938 203.726562 375.640625 228.507812 383.859375 262.285156 C 387.441406 277.027344 394.40625 290.28125 401.339844 303.503906 C 419.628906 338.464844 436.097656 374.203125 448.300781 411.800781 C 454.996094 432.457031 461.25 453.21875 464.328125 474.753906 C 466.527344 490.242188 466.492188 505.761719 459.085938 520.230469 C 453.507812 531.152344 444.886719 539.402344 435.046875 546.367188 C 426.832031 552.183594 417.972656 557.121094 410.027344 563.308594 C 404.28125 567.90625 398.328125 569.832031 390.417969 568.210938 Z M 390.417969 568.210938 " fill-opacity="1" fill-rule="nonzero"/></g><g clip-path="url(#0261079a18)"><path fill="#b4aaa0" d="M 418.242188 568.515625 C 425.480469 563.710938 431.902344 559.585938 438.191406 555.226562 C 448.539062 548.058594 458.648438 540.6875 465.445312 529.699219 C 473.558594 516.546875 475.183594 502.109375 473.695312 487.164062 C 471.160156 461.703125 463.515625 437.460938 455.773438 413.289062 C 444.515625 378.125 430.820312 343.90625 415.167969 310.433594 C 409.148438 297.621094 403.46875 284.570312 398.601562 271.28125 C 391.601562 252.074219 391.769531 232.835938 401.675781 214.410156 C 406.34375 205.722656 413.035156 198.824219 420.8125 192.804688 C 439.171875 178.535156 460.035156 172.011719 483.160156 173.226562 C 508.351562 174.546875 526.136719 187.496094 537.902344 209.371094 C 546.488281 225.363281 551.054688 242.710938 554.738281 260.324219 C 560.046875 285.480469 564.644531 310.773438 570.328125 335.824219 C 576.140625 361.625 583.882812 386.878906 596.765625 410.210938 C 622.394531 456.597656 661.71875 485.40625 712.503906 498.523438 C 733.734375 504.003906 755.542969 507.417969 777.082031 511.710938 C 793.917969 515.058594 810.589844 518.945312 825.566406 527.90625 C 834.964844 533.519531 842.777344 540.550781 848.390625 550.222656 C 851.535156 555.664062 854.070312 561.109375 855.625 567.128906 C 849.03125 569.089844 847.882812 568.546875 845.683594 562.867188 C 839.496094 546.839844 827.390625 536.527344 812.582031 529.023438 C 798.585938 521.921875 783.472656 518.441406 768.257812 515.296875 C 742.796875 509.988281 717.101562 505.523438 692.65625 496.191406 C 636.832031 474.855469 600.382812 434.960938 580.539062 379.136719 C 570.628906 351.277344 564.441406 322.472656 558.558594 293.597656 C 554.164062 272.09375 550.277344 250.417969 542.332031 229.828125 C 536.71875 215.289062 529.484375 201.730469 516.769531 192.027344 C 503.855469 182.1875 489.214844 178.773438 473.019531 179.855469 C 457.261719 180.902344 442.960938 185.941406 430.484375 194.902344 C 410.46875 209.269531 399.378906 231.484375 404.789062 259.445312 C 408.609375 279.125 417.0625 297.214844 424.632812 315.539062 C 445.902344 367.035156 464.9375 419.304688 477.144531 473.808594 C 480.691406 489.699219 482.351562 505.863281 477.210938 521.886719 C 473.59375 533.214844 466.59375 542.175781 457.296875 549.277344 C 450.027344 554.820312 442.082031 559.519531 434.945312 565.269531 C 430.011719 569.019531 424.871094 568.851562 418.242188 568.515625 Z M 418.242188 568.515625 " fill-opacity="1" fill-rule="nonzero"/></g><g clip-path="url(#c525c8984a)"><path fill="#b4aaa0" d="M 451.445312 568.378906 C 458.613281 562.664062 466.085938 557.121094 473.050781 551 C 487.488281 538.320312 492.054688 521.71875 490.734375 503.191406 C 489.011719 478.609375 481.875 455.210938 474.402344 431.984375 C 461.386719 391.546875 447.660156 351.3125 434.4375 310.941406 C 429.738281 296.605469 424.871094 282.234375 421.355469 267.5625 C 417.839844 253.054688 418.140625 238.382812 425.039062 224.519531 C 432.175781 210.21875 444.074219 201.5625 458.546875 195.746094 C 470.785156 190.808594 483.332031 190.269531 495.839844 193.75 C 511.527344 198.113281 522.449219 208.695312 530.363281 222.558594 C 539.152344 237.910156 544.15625 254.714844 548.28125 271.789062 C 554.570312 297.890625 560.285156 324.160156 567.082031 350.128906 C 574.449219 378.191406 584.460938 405.273438 600.722656 429.652344 C 625.472656 466.742188 659.554688 491.796875 701.582031 505.691406 C 722.882812 512.757812 744.859375 517.832031 766.53125 523.78125 C 784.011719 528.582031 801.355469 533.722656 815.59375 545.625 C 819.648438 549.039062 823.132812 553.265625 826.410156 557.457031 C 828.675781 560.367188 830.230469 563.847656 832.125 567.160156 C 825.9375 568.683594 824.652344 568.582031 821.542969 563.375 C 812.71875 548.632812 799.125 540.042969 783.605469 534.703125 C 764.132812 528.007812 744.214844 522.597656 724.402344 516.78125 C 698.265625 509.109375 673.214844 499.167969 650.628906 483.582031 C 614.382812 458.558594 590.578125 424.242188 575.53125 383.261719 C 565.085938 354.828125 558.253906 325.410156 551.289062 296.03125 C 546.285156 274.933594 541.453125 253.765625 531.679688 234.222656 C 524.613281 220.089844 515.113281 208.15625 499.964844 202.171875 C 489.417969 198.011719 478.460938 197.300781 467.539062 200.714844 C 462.199219 202.40625 456.484375 203.929688 451.953125 207.003906 C 442.148438 213.667969 434.539062 222.457031 430.820312 234.121094 C 425.648438 250.386719 427.609375 266.613281 432.34375 282.371094 C 443.296875 319.054688 455.132812 355.503906 466.1875 392.15625 C 475.351562 422.585938 484.34375 453.117188 492.59375 483.816406 C 496.414062 498.019531 498.242188 512.757812 494.824219 527.46875 C 491.714844 540.925781 484.039062 551.335938 472.984375 559.386719 C 471.359375 560.566406 469.703125 561.785156 468.214844 563.171875 C 463.347656 567.601562 457.972656 570.136719 451.445312 568.378906 Z M 451.445312 568.378906 " fill-opacity="1" fill-rule="nonzero"/></g><g clip-path="url(#c0c5c80042)"><path fill="#b4aaa0" d="M 475.722656 568.074219 C 478.527344 565.640625 481.335938 563.207031 484.175781 560.769531 C 495.535156 551 502.332031 538.894531 503.246094 523.714844 C 504.257812 507.25 500.910156 491.390625 496.382812 475.804688 C 486.746094 442.636719 476.398438 409.667969 466.695312 376.5 C 458.003906 346.816406 449.519531 317.0625 441.507812 287.207031 C 438.363281 275.472656 437.109375 263.300781 438.464844 251.027344 C 440.59375 231.824219 450.332031 217.996094 468.417969 211.265625 C 484.648438 205.214844 499.761719 208.527344 512.914062 220.023438 C 523.53125 229.289062 530.226562 241.289062 534.488281 254.308594 C 541.078125 274.527344 546.828125 295.050781 552.238281 315.605469 C 560.082031 345.429688 567.859375 375.25 580.636719 403.449219 C 603.730469 454.402344 641.53125 490.140625 693.332031 510.59375 C 714.632812 519.015625 736.746094 525.304688 758.453125 532.574219 C 773.363281 537.578125 787.96875 543.191406 800.277344 553.332031 C 804.941406 557.152344 809.203125 561.414062 811.871094 567.398438 C 807.917969 568.34375 805.515625 567.667969 802.945312 564.457031 C 794.492188 553.875 783.300781 546.671875 770.859375 541.90625 C 752.871094 535.007812 734.546875 528.886719 716.355469 522.53125 C 689.308594 513.097656 663.542969 501.230469 640.789062 483.511719 C 609.109375 458.863281 587.570312 426.980469 573.066406 389.855469 C 561.804688 361.050781 554.300781 331.160156 546.386719 301.371094 C 541.316406 282.335938 536.109375 263.300781 526.777344 245.753906 C 522.550781 237.808594 517.445312 230.4375 510.242188 224.960938 C 498.476562 216 485.664062 212.652344 471.226562 218.433594 C 455.300781 224.824219 448.097656 237.46875 445.765625 253.460938 C 443.5 268.980469 446.441406 284.195312 449.824219 299.242188 C 461.421875 350.667969 477.445312 400.84375 492.730469 451.1875 C 498.648438 470.699219 505.035156 490.105469 507.402344 510.460938 C 509.058594 524.796875 508.960938 539.03125 499.929688 551.269531 C 495.636719 557.085938 490.464844 562.359375 485.019531 567.128906 C 483.027344 568.886719 479.136719 568.515625 476.09375 569.121094 C 475.960938 568.816406 475.859375 568.445312 475.722656 568.074219 Z M 475.722656 568.074219 " fill-opacity="1" fill-rule="nonzero"/></g></g></g></g><g mask="url(#38268ccea4)"><g transform="matrix(1, 0, 0, 1, 0, -0.000000000000101068)"><g clip-path="url(#cd0d1c2cd1)"><g clip-path="url(#a637564e34)"><g clip-path="url(#228cea8536)"><g clip-path="url(#f9ebcd1423)"><path fill="#b4aaa0" d="M -134.570312 267.828125 C -131.480469 273.207031 -128.765625 278.148438 -125.859375 282.945312 C -121.871094 289.511719 -117.992188 296.15625 -113.636719 302.484375 C -109.277344 308.8125 -104.628906 314.960938 -99.707031 320.859375 C -92.875 329.003906 -86.027344 337.222656 -78.554688 344.753906 C -58.421875 365.054688 -35.042969 380.910156 -8.328125 391.023438 C 4.558594 395.90625 18.332031 398.59375 31.839844 401.605469 C 39.140625 403.25 46.769531 403.585938 54.273438 404.316406 C 66.800781 405.527344 79.28125 404.996094 91.6875 402.738281 C 99.367188 401.347656 107.144531 400.253906 114.664062 398.261719 C 122.5625 396.148438 130.511719 393.65625 137.929688 390.296875 C 149.941406 384.824219 162.074219 379.339844 173.183594 372.34375 C 196.171875 357.894531 216.058594 339.6875 234.523438 319.757812 C 246.335938 307.015625 259.078125 295.054688 271.933594 283.347656 C 280.027344 276 289.382812 269.988281 300.152344 267.191406 C 317.609375 262.644531 332.667969 267.539062 345.320312 280.183594 C 362.082031 296.925781 374.882812 316.667969 388.132812 336.105469 C 401.960938 356.425781 414.765625 377.515625 432.222656 395.175781 C 452.539062 415.71875 476.453125 426.507812 505.851562 423.570312 C 524.136719 421.746094 541.53125 416.441406 558.828125 410.617188 C 568.933594 407.21875 579.023438 403.746094 588.894531 399.761719 C 598.28125 395.976562 607.523438 391.828125 616.5 387.164062 C 627.5 381.476562 638.480469 375.59375 648.898438 368.910156 C 659.234375 362.285156 668.683594 354.378906 678.78125 347.382812 C 692.992188 337.535156 704.238281 324.542969 716.5625 312.644531 C 732.488281 297.261719 744.402344 278.933594 755.730469 260.328125 C 763.089844 248.195312 768.742188 234.8125 773.6875 221.453125 C 780.765625 202.5 785.53125 182.839844 787.675781 162.570312 C 790.097656 139.761719 790.035156 116.964844 786.566406 94.371094 C 781.367188 60.070312 769.671875 27.886719 751.726562 -1.863281 C 740.226562 -20.890625 727.015625 -38.707031 711.6875 -54.839844 C 699.847656 -67.253906 687.789062 -79.457031 675.886719 -91.78125 C 667.554688 -100.398438 658.839844 -108.730469 652.78125 -119.328125 C 646.765625 -129.867188 646.660156 -140.550781 653.941406 -150.039062 C 661.019531 -159.289062 669.394531 -167.609375 677.351562 -176.207031 C 686.976562 -186.574219 697.273438 -196.390625 706.355469 -207.195312 C 714.894531 -217.378906 720.117188 -229.417969 723.179688 -242.582031 C 725.621094 -253.035156 725.617188 -263.414062 723.75 -273.570312 C 722.21875 -281.820312 718.636719 -289.753906 715.742188 -297.738281 C 708.875 -316.746094 695.46875 -331.238281 684.464844 -347.417969 C 682.78125 -349.875 682.808594 -351.292969 685.339844 -352.996094 C 688.394531 -355.007812 691.265625 -357.261719 694.078125 -359.597656 C 696.09375 -361.25 697.488281 -361.199219 699.070312 -359.050781 C 709.15625 -345.480469 719.746094 -332.253906 729.296875 -318.324219 C 734.070312 -311.335938 737.003906 -303.082031 740.738281 -295.394531 C 742.816406 -291.074219 745.097656 -286.820312 746.816406 -282.359375 C 748.148438 -278.914062 748.945312 -275.277344 749.722656 -271.671875 C 750.75 -266.722656 751.839844 -261.746094 752.328125 -256.730469 C 753.671875 -242.613281 751.636719 -229.042969 746.355469 -215.726562 C 740.320312 -200.441406 729.835938 -188.410156 719.667969 -176.0625 C 712.816406 -167.75 705.054688 -160.1875 698.132812 -151.90625 C 687.082031 -138.765625 686.488281 -124.246094 695.242188 -109.96875 C 702.425781 -98.273438 710.792969 -87.261719 718.972656 -76.15625 C 732.035156 -58.480469 746.417969 -41.800781 757.800781 -22.816406 C 774.980469 5.863281 787.773438 36.246094 795.445312 68.714844 C 799.519531 85.9375 802.070312 103.503906 801.890625 121.269531 C 801.738281 136.769531 801.648438 152.347656 799.851562 167.691406 C 798.332031 180.878906 794.992188 193.953125 791.445312 206.761719 C 788.289062 218.175781 784.402344 229.460938 779.660156 240.292969 C 774.921875 251.121094 768.925781 261.417969 763.113281 271.785156 C 745.023438 303.976562 719.082031 329.429688 691.613281 353.367188 C 681.695312 362.007812 670.339844 369.019531 659.414062 376.429688 C 651.492188 381.824219 643.410156 387 635.023438 391.601562 C 625.480469 396.863281 615.679688 401.726562 605.699219 406.132812 C 594.101562 411.253906 582.351562 416.0625 570.421875 420.292969 C 547.640625 428.394531 524.507812 435.582031 500.4375 438.554688 C 474.574219 441.742188 451.605469 434.226562 431.472656 417.738281 C 415.371094 404.5625 403.484375 387.824219 391.410156 371.179688 C 379.308594 354.429688 366.816406 338.019531 354.46875 321.453125 C 348.632812 313.617188 342.007812 306.589844 333.789062 301.101562 C 326.152344 295.984375 317.746094 294.789062 309.027344 295.871094 C 292.941406 297.855469 280.261719 306.929688 268.390625 316.960938 C 252.804688 330.097656 237.957031 344.15625 222.230469 357.101562 C 203.992188 372.113281 184.6875 385.601562 163.214844 395.9375 C 149.140625 402.71875 134.777344 408.445312 119.710938 412.117188 C 108.246094 414.890625 96.425781 416.578125 84.664062 417.667969 C 73.855469 418.675781 62.839844 419.074219 52.03125 418.34375 C 41.863281 417.675781 31.832031 415.003906 21.691406 413.472656 C 8.050781 411.402344 -4.292969 405.390625 -17.136719 400.898438 C -34.421875 394.851562 -49.523438 385.242188 -63.738281 374.285156 C -74.703125 365.832031 -85.117188 356.371094 -94.59375 346.242188 C -107.710938 332.25 -119.558594 317.132812 -129.742188 300.796875 C -134.519531 293.132812 -138.816406 285.148438 -143.171875 277.253906 C -143.59375 276.472656 -143.417969 274.683594 -142.816406 274.1875 C -140.289062 271.980469 -137.539062 270.070312 -134.570312 267.828125 Z M -134.570312 267.828125 " fill-opacity="1" fill-rule="nonzero"/></g></g></g><g clip-path="url(#9f4b8de3df)"><g clip-path="url(#16b56af16e)"><g clip-path="url(#4f7b369358)"><path fill="#b4aaa0" d="M -112.800781 251.378906 C -109.910156 256.609375 -107.28125 261.320312 -104.675781 266.003906 C -94.28125 284.636719 -81.660156 301.671875 -66.789062 316.917969 C -60.027344 323.847656 -52.472656 330.085938 -44.917969 336.160156 C -29.71875 348.363281 -12.816406 357.714844 5.652344 363.929688 C 25.253906 370.515625 45.292969 373.59375 66.113281 372.652344 C 88.457031 371.660156 109.679688 366.429688 129.632812 356.773438 C 147.667969 348.058594 164.679688 337.367188 178.453125 322.503906 C 190.578125 309.445312 202.355469 296.09375 214.113281 282.714844 C 226.5625 268.515625 238.160156 253.519531 251.359375 240.03125 C 264.113281 226.957031 279.769531 218.347656 298.824219 218.609375 C 313.164062 218.792969 325.996094 223.714844 337.703125 232.03125 C 348.773438 239.894531 357.796875 249.816406 365.851562 260.472656 C 380.726562 280.210938 395.082031 300.382812 409.472656 320.488281 C 420.402344 335.792969 430.769531 351.476562 444.058594 364.914062 C 462.625 383.644531 484.292969 395.832031 511.417969 394.148438 C 522.621094 393.4375 533.871094 390.828125 544.710938 387.675781 C 564.816406 381.808594 584.625 374.765625 603.082031 364.757812 C 616.945312 357.246094 630.738281 349.367188 643.707031 340.453125 C 656.355469 331.785156 668.1875 321.867188 680.003906 312.046875 C 695.679688 298.972656 708.382812 282.972656 720.058594 266.519531 C 731.613281 250.285156 741.488281 232.738281 747.820312 213.582031 C 750.804688 204.632812 754.195312 195.714844 756.054688 186.511719 C 758.652344 173.742188 760.484375 160.742188 761.789062 147.722656 C 763.503906 130.699219 762.46875 113.683594 759.351562 96.882812 C 754.472656 70.523438 745.980469 45.492188 732.167969 22.28125 C 713.503906 -9.085938 688.628906 -34.492188 658.691406 -54.925781 C 640.972656 -67.046875 622.570312 -78.101562 604.667969 -89.957031 C 594.519531 -96.65625 584.5625 -103.664062 577.46875 -113.945312 C 571.441406 -122.652344 571.527344 -137.171875 576.941406 -146.21875 C 584.136719 -158.230469 594.292969 -167.558594 603.726562 -177.566406 C 614.542969 -189.046875 626.09375 -199.894531 636.675781 -211.578125 C 648.285156 -224.421875 658.710938 -238.277344 662.417969 -255.742188 C 664.273438 -264.390625 665.113281 -273.039062 663.945312 -282.15625 C 662.183594 -295.871094 655.347656 -307.273438 649.832031 -319.335938 C 648.113281 -323.125 648.039062 -325.355469 651.796875 -327.558594 C 654.476562 -329.117188 656.882812 -331.148438 659.261719 -333.160156 C 661.285156 -334.859375 662.886719 -334.753906 664.160156 -332.453125 C 670.804688 -320.523438 678.777344 -309.128906 683.714844 -296.542969 C 691.515625 -276.628906 691.457031 -255.734375 682.113281 -236.300781 C 677.121094 -225.914062 669.296875 -216.695312 661.886719 -207.660156 C 654.882812 -199.148438 646.816406 -191.484375 639.082031 -183.605469 C 633.597656 -178.019531 627.804688 -172.792969 622.320312 -167.207031 C 613.945312 -158.71875 605.890625 -149.917969 603.371094 -137.714844 C 602.1875 -131.988281 603.585938 -126.605469 606.316406 -121.421875 C 611.132812 -112.136719 618.691406 -105.554688 626.78125 -99.335938 C 645.210938 -85.210938 663.820312 -71.300781 681.867188 -56.671875 C 705.945312 -37.152344 725.425781 -13.5625 741.0625 13.1875 C 757.972656 42.066406 768.40625 73.257812 771.921875 106.453125 C 773.433594 120.738281 773.425781 135.363281 772.351562 149.699219 C 771.222656 164.578125 768.835938 179.476562 765.460938 194.023438 C 762.835938 205.242188 758.148438 216.035156 753.828125 226.800781 C 740.605469 259.890625 719.117188 287.53125 694.417969 312.554688 C 678.121094 329.066406 659.8125 343.367188 639.964844 355.742188 C 620.058594 368.15625 599.433594 379.167969 577.5625 387.347656 C 559.382812 394.136719 540.789062 400.433594 521.835938 404.457031 C 489.097656 411.441406 461.65625 400.140625 438.632812 376.347656 C 425.570312 362.824219 415.304688 347.273438 404.71875 331.921875 C 386.921875 306.128906 370.324219 279.34375 348.28125 256.796875 C 336.59375 244.863281 322.511719 236.433594 304.882812 237 C 293.125 237.367188 282.511719 241.320312 272.871094 248.140625 C 257.742188 258.851562 245.300781 272.28125 233.359375 286.308594 C 216.1875 306.488281 198.554688 326.171875 177.769531 342.855469 C 162.363281 355.21875 145.878906 365.597656 127.546875 372.800781 C 111.179688 379.238281 94.214844 383.371094 76.550781 384.894531 C 54.566406 386.761719 33.410156 383.890625 12.222656 377.949219 C -3.738281 373.484375 -18.839844 367.351562 -32.472656 358.285156 C -45.578125 349.585938 -58.445312 340.40625 -69.820312 329.167969 C -84.546875 314.617188 -96.78125 298.261719 -107.777344 280.851562 C -111.59375 274.792969 -114.855469 268.398438 -118.644531 262.320312 C -120.890625 258.675781 -120.398438 256.1875 -116.644531 254.199219 C -115.476562 253.613281 -114.5 252.664062 -112.800781 251.378906 Z M -112.800781 251.378906 " fill-opacity="1" fill-rule="nonzero"/></g></g></g><g clip-path="url(#c8889a6999)"><g clip-path="url(#f161acd470)"><g clip-path="url(#1bda8c1f13)"><path fill="#b4aaa0" d="M -92.675781 236.679688 C -88.871094 243.339844 -85.441406 249.898438 -81.480469 256.144531 C -73.332031 269.058594 -64.316406 281.273438 -53.234375 292.011719 C -43.1875 301.710938 -32.25 310.015625 -20.667969 317.832031 C -6.925781 327.152344 8.027344 333.144531 23.816406 336.597656 C 35.550781 339.171875 47.925781 340.121094 59.933594 339.691406 C 79.710938 338.941406 98.257812 333.144531 116.007812 323.714844 C 137.644531 312.195312 154.773438 295.941406 169.984375 277.371094 C 181.617188 263.15625 192.3125 248.207031 203.769531 233.867188 C 213.914062 221.15625 224.925781 209.316406 238.886719 200.589844 C 268.679688 181.972656 298.773438 182.199219 329.109375 199.070312 C 344.730469 207.734375 357.660156 219.746094 368.746094 233.40625 C 390.03125 259.660156 410.496094 286.574219 431.375 313.132812 C 442.101562 326.765625 453.609375 339.640625 467.78125 349.867188 C 488.441406 364.8125 511.152344 369.175781 535.871094 363.417969 C 554.804688 359.03125 572.691406 351.742188 589.773438 342.605469 C 603.332031 335.367188 616.761719 327.84375 629.570312 319.390625 C 643.207031 310.402344 655.601562 299.71875 667.144531 288.074219 C 683.03125 272.082031 696.496094 254.40625 707.941406 234.949219 C 717.605469 218.574219 724.054688 201.03125 728.976562 182.984375 C 733.347656 167.011719 735.328125 150.339844 734.871094 133.695312 C 734.398438 116.25 731.949219 99.15625 726.660156 82.34375 C 720.519531 62.832031 711.917969 44.664062 699.792969 28.230469 C 686.425781 10.148438 670.382812 -5.191406 651.574219 -17.632812 C 630.863281 -31.351562 608.703125 -42.109375 585.691406 -51.417969 C 571.207031 -57.296875 556.867188 -63.707031 542.945312 -70.859375 C 530.417969 -77.285156 520.449219 -86.828125 515.550781 -100.546875 C 512.214844 -109.890625 512.789062 -119.394531 515.386719 -128.859375 C 518.96875 -141.949219 526.765625 -152.71875 534.992188 -163.085938 C 549.875 -181.921875 565.433594 -200.25 580.1875 -219.195312 C 586.570312 -227.410156 592.230469 -236.347656 597.058594 -245.550781 C 600.082031 -251.308594 600.34375 -258.417969 602.859375 -264.511719 C 606.144531 -272.503906 603.492188 -280.164062 603.132812 -287.984375 C 603.078125 -289.175781 603.480469 -290.832031 604.320312 -291.511719 C 609.804688 -295.867188 615.429688 -300.03125 621.523438 -304.640625 C 622.171875 -303.054688 622.8125 -301.925781 623.128906 -300.722656 C 624.792969 -294.3125 626.777344 -287.929688 627.804688 -281.414062 C 628.460938 -277.292969 628.085938 -272.855469 627.363281 -268.707031 C 626.398438 -262.976562 625.066406 -257.222656 623.164062 -251.71875 C 619.550781 -241.359375 613.859375 -232.011719 606.835938 -223.695312 C 590.980469 -204.972656 574.53125 -186.695312 558.609375 -168.007812 C 550.824219 -158.90625 542.933594 -149.71875 538.316406 -138.390625 C 533.128906 -125.738281 533.121094 -113.1875 540.703125 -101.585938 C 545.835938 -93.726562 552.75 -87.210938 561.058594 -82.726562 C 575.207031 -75.109375 589.488281 -67.761719 603.929688 -60.707031 C 627.28125 -49.324219 650.371094 -37.617188 670.503906 -20.792969 C 693.320312 -1.757812 712.03125 20.589844 725.078125 47.390625 C 734.242188 66.1875 740.625 85.902344 743.304688 106.722656 C 745.9375 127.195312 745.699219 147.460938 742.441406 167.9375 C 736.800781 203.09375 721.941406 234.074219 701.726562 262.785156 C 689.300781 280.441406 674.144531 295.542969 657.84375 309.640625 C 641.320312 323.949219 623.359375 336.125 604.144531 346.367188 C 581.332031 358.519531 557.597656 368.785156 532.355469 374.636719 C 502.628906 381.507812 476.820312 373.042969 454.570312 352.6875 C 438.082031 337.601562 425.195312 319.539062 412.222656 301.585938 C 392.640625 274.554688 373.78125 246.851562 349.023438 224.070312 C 331.195312 207.664062 310.5 197.496094 285.566406 199.046875 C 269.617188 200.039062 255.535156 206.191406 242.945312 216 C 231.199219 225.132812 221.679688 236.3125 212.585938 247.886719 C 203.902344 258.941406 195.523438 270.230469 186.714844 281.171875 C 171.390625 300.210938 154.359375 317.488281 133.457031 330.488281 C 121.433594 337.964844 108.636719 343.90625 94.847656 347.757812 C 80.183594 351.847656 65.382812 354.132812 50.226562 352.535156 C 41.019531 351.566406 31.9375 349.53125 22.730469 348.5625 C 11.164062 347.386719 0.496094 343.199219 -9.28125 337.664062 C -21.679688 330.675781 -33.394531 322.410156 -44.867188 313.957031 C -51.875 308.785156 -58.332031 302.648438 -64.140625 296.140625 C -71.113281 288.316406 -77.4375 279.832031 -83.507812 271.242188 C -88.273438 264.542969 -92.390625 257.355469 -96.46875 250.222656 C -101.585938 241.207031 -101.515625 242.253906 -92.675781 236.679688 Z M -92.675781 236.679688 " fill-opacity="1" fill-rule="nonzero"/></g></g></g><g clip-path="url(#6ab4d73bd1)"><g clip-path="url(#d280b70be5)"><g clip-path="url(#f1acf5abf2)"><path fill="#b4aaa0" d="M 574.546875 -267.484375 C 573.761719 -263.925781 573.160156 -260.292969 572.144531 -256.8125 C 570.992188 -252.847656 569.742188 -248.890625 567.988281 -245.152344 C 564.695312 -238.128906 561.527344 -230.988281 557.386719 -224.46875 C 551.476562 -215.128906 544.746094 -206.3125 538.371094 -197.253906 C 527.613281 -182.046875 516.699219 -166.933594 506.09375 -151.585938 C 496.265625 -137.335938 490.4375 -121.660156 490.941406 -104.113281 C 491.398438 -88.480469 498.207031 -75.828125 509.984375 -65.742188 C 521.347656 -55.976562 534.730469 -49.988281 548.664062 -45.007812 C 566.238281 -38.75 583.859375 -32.699219 601.316406 -26.144531 C 627.71875 -16.21875 651.480469 -1.714844 671.367188 18.265625 C 694.5625 41.550781 710.378906 69.09375 717.144531 101.65625 C 720.855469 119.578125 722.082031 137.464844 720.167969 155.570312 C 716.773438 187.25 705.25 216.132812 688.222656 242.730469 C 677.148438 260.042969 663.675781 275.523438 648.113281 289.191406 C 632.210938 303.199219 615.269531 315.664062 596.722656 325.78125 C 577.023438 336.558594 556.847656 346.421875 534.609375 350.980469 C 512.667969 355.484375 492.425781 351.074219 473.78125 339.019531 C 461.070312 330.78125 450.207031 320.386719 440.757812 308.667969 C 424.773438 288.921875 409.226562 268.800781 393.195312 249.042969 C 379.554688 232.230469 365.34375 215.890625 348.617188 202 C 327.949219 184.859375 304.671875 173.96875 277.125 174.53125 C 258.679688 174.910156 241.925781 180.664062 226.433594 190.675781 C 207.152344 203.128906 192.753906 220.410156 178.3125 237.808594 C 165.640625 253.0625 152.746094 268.191406 139.0625 282.554688 C 126.398438 295.855469 111.214844 305.933594 93.875 312.597656 C 82.21875 317.082031 70.265625 320.054688 57.835938 320.933594 C 53.128906 321.265625 48.347656 321.445312 43.722656 320.875 C 28.132812 318.925781 12.511719 316.535156 -1.585938 309.261719 C -16.585938 301.527344 -30.960938 292.769531 -43.160156 280.667969 C -57.558594 266.378906 -69.546875 250.347656 -79.160156 232.523438 C -82.019531 227.226562 -81.917969 227.191406 -74.699219 223.175781 C -72.839844 226.136719 -71.105469 229.273438 -69.046875 232.167969 C -61.046875 243.203125 -53.648438 254.730469 -44.691406 264.957031 C -36.378906 274.441406 -26.347656 282.332031 -15.558594 289.261719 C -4.007812 296.636719 8.152344 302.410156 21.417969 305.269531 C 30.390625 307.21875 39.765625 307.675781 48.996094 308.117188 C 67.144531 309.023438 84.003906 303.742188 99.722656 295.378906 C 112.597656 288.53125 124.535156 279.929688 134.410156 268.996094 C 151.308594 250.25 167.675781 230.96875 184.683594 212.3125 C 200.46875 194.957031 218.375 180.238281 240.859375 172.1875 C 272.105469 160.992188 301.773438 165.480469 330.148438 181.714844 C 347.117188 191.4375 361.472656 204.488281 374.21875 219.054688 C 392.875 240.429688 410.511719 262.703125 429.132812 284.144531 C 440.453125 297.160156 451.921875 310.320312 464.84375 321.699219 C 492.570312 346.050781 524.265625 349.347656 558.003906 335.503906 C 584.65625 324.5625 609.734375 310.863281 631.996094 292.429688 C 648.972656 278.328125 664.191406 262.632812 677.046875 244.480469 C 685.90625 231.980469 692.890625 218.566406 698.632812 204.6875 C 704.71875 189.917969 708.632812 174.289062 710.492188 158.132812 C 712.628906 139.480469 711.386719 121.179688 707.269531 103.058594 C 703.714844 87.480469 697.820312 72.777344 689.308594 58.996094 C 682.195312 47.503906 674.242188 36.984375 664.484375 27.660156 C 649.949219 13.8125 633.578125 2.746094 615.453125 -5.761719 C 594.078125 -15.757812 571.71875 -22.804688 549.222656 -29.746094 C 537 -33.523438 524.875 -38.132812 513.453125 -43.824219 C 496.210938 -52.449219 482.738281 -65.28125 478.183594 -84.9375 C 474.246094 -101.921875 476.011719 -118.769531 484.054688 -134.253906 C 491.273438 -148.144531 499.328125 -161.605469 507.59375 -174.886719 C 515.28125 -187.265625 523.917969 -199.050781 531.757812 -211.332031 C 536.726562 -219.113281 541.195312 -227.277344 545.519531 -235.460938 C 548.207031 -240.542969 550.148438 -245.992188 552.449219 -251.25 C 552.703125 -251.867188 552.992188 -252.550781 553.503906 -252.9375 C 560.117188 -257.980469 566.753906 -262.996094 573.390625 -268.007812 C 573.707031 -267.867188 574.113281 -267.667969 574.546875 -267.484375 Z M 574.546875 -267.484375 " fill-opacity="1" fill-rule="nonzero"/></g></g></g><g clip-path="url(#fb84749812)"><g clip-path="url(#b61d6c035c)"><g clip-path="url(#47d78228be)"><path fill="#b4aaa0" d="M 521.105469 -227.054688 C 514.777344 -215.914062 508.417969 -204.753906 502.109375 -193.585938 C 491.527344 -174.78125 480.269531 -156.3125 470.589844 -137.046875 C 462.988281 -121.980469 459.261719 -105.601562 460.582031 -88.375 C 462.132812 -67.761719 471.738281 -51.796875 488.035156 -39.488281 C 502.1875 -28.78125 518.359375 -22.527344 535.140625 -17.535156 C 556.234375 -11.269531 577.664062 -5.851562 598.28125 1.75 C 633.414062 14.699219 661.738281 36.816406 680.886719 69.554688 C 687.871094 81.484375 692.726562 94.300781 695.839844 107.84375 C 699.425781 123.523438 700.164062 139.195312 698.90625 155.195312 C 696.851562 181.074219 688.410156 204.957031 675.765625 227.140625 C 663.429688 248.839844 647.121094 267.523438 627.710938 283.503906 C 604.34375 302.773438 578.777344 318.070312 550.332031 328.378906 C 523.742188 338.003906 498.519531 334.6875 474.957031 318.929688 C 462.261719 310.429688 451.476562 299.804688 441.554688 288.359375 C 425.351562 269.667969 409.800781 250.4375 393.511719 231.855469 C 376.242188 212.144531 358.347656 192.949219 336.054688 178.648438 C 304.679688 158.496094 271.164062 152.507812 235.386719 164.835938 C 215.789062 171.597656 198.863281 183.074219 184.304688 197.679688 C 168.789062 213.261719 153.792969 229.425781 138.636719 245.371094 C 125.375 259.335938 111.089844 272.125 94.03125 281.289062 C 82.160156 287.675781 69.632812 292.183594 55.839844 293.113281 C 46.070312 293.757812 36.632812 293.046875 26.980469 291.65625 C 17.703125 290.316406 8.871094 287.882812 0.828125 283.578125 C -11.726562 276.832031 -23.824219 269.40625 -34.269531 259.285156 C -45.929688 248.007812 -55.355469 235.257812 -63.730469 221.539062 C -66.839844 216.472656 -66.699219 215.984375 -59.332031 211.265625 C -58.515625 212.34375 -57.53125 213.421875 -56.832031 214.628906 C -49.710938 226.796875 -41.421875 237.992188 -31.148438 247.773438 C -16.117188 262.054688 0.707031 273.324219 21.054688 278.039062 C 31.179688 280.386719 41.640625 281.167969 52.222656 280.082031 C 79.429688 277.277344 101.1875 263.671875 120.683594 245.84375 C 132.527344 234.988281 143.566406 223.296875 154.96875 211.96875 C 172.621094 194.390625 190.492188 177.152344 212.933594 165.574219 C 246.667969 148.132812 280.925781 147.035156 315.808594 161.785156 C 335.117188 169.949219 351.3125 182.628906 366.496094 196.835938 C 387.777344 216.695312 406.398438 238.980469 425.355469 260.976562 C 439.820312 277.761719 454.265625 294.519531 472.386719 307.734375 C 497.847656 326.339844 525.128906 329.964844 554.46875 318.769531 C 570.554688 312.628906 585.417969 304.148438 599.851562 294.8125 C 615.472656 284.699219 629.652344 272.839844 642.105469 259.148438 C 649.230469 251.304688 655.269531 242.417969 661.644531 233.914062 C 671.003906 221.457031 677.03125 207.113281 681.894531 192.632812 C 686.328125 179.488281 689.71875 165.695312 689.316406 151.421875 C 689.160156 145.777344 689.632812 140.121094 689.335938 134.457031 C 688.378906 115.46875 683.066406 97.785156 674.25 80.84375 C 663.285156 59.71875 647.339844 43.5 627.667969 30.652344 C 614.015625 21.726562 599.238281 15.011719 583.652344 10.261719 C 566.242188 4.941406 548.601562 0.386719 531.109375 -4.699219 C 509.421875 -11.023438 488.703125 -19.3125 471.625 -34.84375 C 454.398438 -50.519531 446.316406 -69.792969 448.035156 -93.089844 C 449.433594 -111.988281 455.265625 -129.621094 463.78125 -146.394531 C 471.417969 -161.40625 479.554688 -176.15625 487.398438 -191.070312 C 490.453125 -196.898438 493.265625 -202.878906 496.207031 -208.746094 C 496.570312 -209.445312 496.902344 -210.289062 497.496094 -210.738281 C 504.957031 -216.460938 512.5 -222.121094 520 -227.789062 C 520.433594 -227.605469 520.757812 -227.34375 521.105469 -227.054688 Z M 521.105469 -227.054688 " fill-opacity="1" fill-rule="nonzero"/></g></g></g><g clip-path="url(#1a96d3b844)"><g clip-path="url(#b39b66ac78)"><g clip-path="url(#38ed20b0fa)"><path fill="#b4aaa0" d="M 469.625 -189.800781 C 461.363281 -171.011719 452.929688 -152.898438 445.457031 -134.410156 C 438.160156 -116.308594 432.804688 -97.597656 433.34375 -77.707031 C 433.75 -61.019531 439.992188 -46.535156 450.964844 -34.316406 C 471.128906 -11.839844 497.316406 0.664062 525.816406 8.878906 C 547.101562 15 568.890625 19.722656 589.632812 27.3125 C 626.175781 40.679688 654.144531 64.339844 668.691406 101.53125 C 674.746094 117 677.210938 133.105469 676.738281 149.867188 C 676.164062 171.363281 670.691406 191.605469 661.722656 210.800781 C 651.027344 233.71875 635.457031 253.15625 616.296875 269.75 C 599.417969 284.371094 580.886719 296.300781 560.621094 305.601562 C 528.882812 320.132812 498.828125 317.039062 471.417969 295.628906 C 459.027344 285.960938 447.707031 274.683594 436.945312 263.195312 C 412.484375 237.050781 389.878906 209.214844 362.804688 185.558594 C 342.078125 167.441406 319.320312 153.027344 292.042969 146.941406 C 257.515625 139.214844 225.59375 146.214844 195.542969 164.097656 C 175.171875 176.230469 158.117188 192.46875 140.734375 208.273438 C 126.445312 221.277344 112.328125 234.445312 95.90625 244.90625 C 82.734375 253.332031 68.449219 259.046875 53.148438 261.285156 C 45.183594 262.472656 36.707031 261.628906 28.671875 260.414062 C 20.871094 259.234375 12.929688 257.308594 5.804688 254.046875 C -8.65625 247.472656 -21.707031 238.5625 -31.753906 225.941406 C -36.625 219.832031 -40.976562 213.289062 -45.882812 207.246094 C -48.640625 203.820312 -48.214844 201.636719 -44.515625 199.6875 C -43.707031 199.246094 -42.972656 198.648438 -42.035156 197.980469 C -39.445312 201.40625 -36.910156 204.703125 -34.449219 208.015625 C -26.335938 218.921875 -16.734375 228.148438 -5.417969 235.832031 C 2.585938 241.265625 11.113281 245.203125 20.238281 247.460938 C 29.058594 249.65625 38.183594 250.34375 47.46875 249.511719 C 60.300781 248.378906 72.40625 244.824219 83.753906 239.089844 C 99.742188 231.03125 113.78125 219.996094 127.351562 208.34375 C 145.5 192.761719 163.144531 176.632812 183.183594 163.390625 C 233.496094 130.203125 290.292969 130.039062 340.480469 163.480469 C 358.464844 175.441406 374.398438 189.847656 389.308594 205.320312 C 409.859375 226.621094 429.773438 248.484375 450.425781 269.703125 C 457.648438 277.128906 465.769531 283.835938 474.167969 289.902344 C 502.742188 310.605469 533.023438 312.261719 564.382812 296.613281 C 587.183594 285.230469 607.679688 270.628906 624.867188 251.707031 C 634.410156 241.230469 643.472656 230.226562 649.503906 217.234375 C 654.4375 206.601562 659.964844 196.023438 662.972656 184.808594 C 666.039062 173.335938 667.011719 161.160156 667.703125 149.234375 C 668.714844 131.394531 664.179688 114.347656 656.453125 98.40625 C 644.066406 72.761719 623.695312 55.054688 598.21875 43.160156 C 578.296875 33.847656 557.109375 28.246094 535.835938 22.917969 C 511.699219 16.832031 488.730469 7.75 467.925781 -6.152344 C 452.6875 -16.335938 439.394531 -28.371094 430.53125 -44.8125 C 424.199219 -56.554688 422.339844 -69.050781 423.378906 -82.085938 C 424.914062 -101.425781 430.972656 -119.652344 437.933594 -137.582031 C 443.011719 -150.660156 448.5 -163.582031 453.832031 -176.550781 C 454.230469 -177.53125 454.808594 -178.5625 455.570312 -179.179688 C 460.136719 -182.671875 464.769531 -186.132812 469.625 -189.800781 Z M 469.625 -189.800781 " fill-opacity="1" fill-rule="nonzero"/></g></g></g><g clip-path="url(#5158fb8b57)"><g clip-path="url(#303f973143)"><g clip-path="url(#ff5b7fd63d)"><path fill="#b4aaa0" d="M 436.222656 -163.457031 C 434.609375 -158.804688 433.015625 -154.125 431.402344 -149.472656 C 424.21875 -128.699219 416.109375 -108.25 412.144531 -86.519531 C 407.074219 -58.742188 416.246094 -36.007812 436.378906 -17.105469 C 460.371094 5.445312 488.648438 20.652344 519.796875 30.632812 C 537.035156 36.167969 554.664062 40.433594 571.890625 45.894531 C 588.625 51.214844 604.234375 59.082031 617.804688 70.3125 C 633.609375 83.375 645.273438 99.480469 651.371094 119.324219 C 654.792969 130.46875 656.160156 141.8125 656.148438 153.519531 C 656.105469 172.75 651.292969 190.835938 643.371094 207.886719 C 633.246094 229.652344 618.484375 248.136719 599.984375 263.644531 C 586.457031 275.015625 571.972656 284.730469 555.742188 291.742188 C 529.371094 303.109375 504.152344 300.472656 479.898438 285.488281 C 465.429688 276.546875 453.101562 265.054688 441.289062 252.960938 C 416.527344 227.597656 393.222656 200.796875 366.15625 177.769531 C 343.582031 158.550781 319.046875 143.019531 289.660156 136.496094 C 259.496094 129.835938 230.464844 133.253906 202.167969 145.613281 C 178.085938 156.140625 157.613281 171.953125 137.394531 188.207031 C 118.988281 203.050781 100.738281 218.15625 78.871094 227.859375 C 65.441406 233.8125 51.523438 237.210938 36.582031 235.832031 C 25.878906 234.851562 15.363281 233.050781 5.972656 227.855469 C -6.0625 221.1875 -17.242188 213.234375 -25.675781 202.019531 C -27.691406 199.347656 -29.898438 196.820312 -32.082031 194.273438 C -33.511719 192.601562 -33.417969 191.382812 -31.644531 189.917969 C -26.484375 185.636719 -26.558594 185.988281 -22.042969 191.179688 C -17.132812 196.835938 -11.574219 202 -5.878906 206.847656 C -1.820312 210.3125 2.695312 213.425781 7.457031 215.800781 C 29.996094 227.121094 52.832031 226.773438 76.066406 217.476562 C 94.601562 210.039062 110.46875 198.511719 126.339844 186.816406 C 140.15625 176.667969 153.847656 166.238281 168.203125 156.914062 C 204.585938 133.277344 243.886719 122.304688 287.335938 131.679688 C 309.714844 136.507812 329.945312 146.226562 348.441406 159.542969 C 370.136719 175.183594 389.476562 193.539062 408.191406 212.582031 C 426.820312 231.515625 444.410156 251.535156 465.351562 268.085938 C 478.164062 278.195312 491.933594 286.605469 508.230469 290.054688 C 528.132812 294.296875 546.660156 290.042969 564.113281 280.5 C 583.496094 269.917969 600.234375 256.125 614.304688 238.964844 C 626.054688 224.617188 634.949219 208.910156 641.019531 191.3125 C 644.609375 180.925781 646.332031 170.304688 646.796875 159.652344 C 647.6875 140.246094 643.617188 121.796875 633.355469 104.796875 C 619.191406 81.34375 597.894531 67.351562 572.929688 58.375 C 555.277344 52.007812 537.148438 46.976562 519.421875 40.792969 C 485.511719 28.953125 454.460938 12.03125 428.070312 -12.734375 C 417.84375 -22.339844 409.292969 -33.210938 404.460938 -46.722656 C 400.136719 -58.839844 400.070312 -71.207031 402.648438 -83.496094 C 404.921875 -94.285156 408.089844 -104.898438 411.34375 -115.453125 C 415.285156 -128.179688 419.695312 -140.796875 424.078125 -153.390625 C 424.6875 -155.164062 426.121094 -156.796875 427.550781 -158.046875 C 429.953125 -160.199219 432.664062 -161.996094 435.253906 -163.953125 C 435.613281 -163.757812 435.929688 -163.617188 436.222656 -163.457031 Z M 436.222656 -163.457031 " fill-opacity="1" fill-rule="nonzero"/></g></g></g><g clip-path="url(#88e1497d1e)"><g clip-path="url(#c13976e8fe)"><g clip-path="url(#aeccf5a17a)"><path fill="#b4aaa0" d="M 409.8125 -143.328125 C 408.011719 -137.472656 406.132812 -131.601562 404.355469 -125.765625 C 399.917969 -111.058594 394.917969 -96.472656 391.160156 -81.59375 C 384.308594 -54.378906 393.640625 -31.9375 413.085938 -12.9375 C 440.964844 14.308594 473.75 34.027344 509.625 48.578125 C 528.019531 56.035156 547.121094 61.6875 565.703125 68.664062 C 588.734375 77.324219 608.777344 90.273438 621.828125 111.859375 C 630.28125 125.855469 634.585938 141.082031 634.496094 157.675781 C 634.410156 174.101562 630.792969 189.675781 624.273438 204.433594 C 615.207031 225.015625 601.117188 241.980469 583.960938 256.515625 C 572.628906 266.136719 560.378906 274.210938 546.261719 279.03125 C 521.578125 287.472656 498.855469 281.96875 477.472656 268.421875 C 463.007812 259.265625 450.636719 247.550781 438.320312 235.792969 C 415.5 214.007812 393.082031 191.75 369.550781 170.710938 C 349.199219 152.527344 326.167969 138.144531 299.765625 129.957031 C 259.523438 117.480469 220.746094 122.078125 183.132812 139.996094 C 161.445312 150.328125 142.019531 164.328125 122.234375 177.796875 C 108.824219 186.914062 95.191406 195.734375 80.058594 201.789062 C 65.074219 207.8125 49.460938 211.097656 33.402344 208.019531 C 22.589844 205.933594 11.878906 202.753906 3.222656 195.058594 C -1.011719 191.304688 -5.59375 187.988281 -9.828125 184.238281 C -11.78125 182.492188 -13.300781 180.207031 -15.207031 177.960938 C -13.96875 176.855469 -13.023438 176.140625 -12.207031 175.3125 C -9.292969 172.21875 -7.246094 173.46875 -4.652344 176.171875 C 4.222656 185.445312 14.390625 192.507812 27.082031 196.179688 C 48.636719 202.4375 68.945312 198.746094 88.167969 188.964844 C 103.886719 180.941406 118.964844 171.621094 133.976562 162.269531 C 155.914062 148.617188 177.773438 134.976562 202.667969 127.09375 C 250.316406 112.023438 295.292969 118.546875 337.828125 144.039062 C 358.992188 156.738281 377.652344 172.679688 395.621094 189.445312 C 416.730469 209.136719 437.523438 229.191406 458.855469 248.667969 C 469.074219 257.984375 480.707031 265.46875 493.582031 270.78125 C 515.632812 279.886719 537.015625 278.515625 558 267.191406 C 575.695312 257.632812 589.613281 243.976562 601.933594 228.3125 C 611.875 215.671875 618.820312 201.476562 622.855469 186.179688 C 626.34375 172.90625 627.300781 159.257812 624.457031 145.34375 C 620.933594 128.003906 613.136719 113.257812 600.492188 101.238281 C 589.195312 90.496094 575.589844 83.316406 561.136719 77.539062 C 535.519531 67.363281 509.324219 58.550781 484.957031 45.433594 C 457.46875 30.652344 431.300781 14.023438 408.519531 -7.539062 C 400.519531 -15.09375 393.308594 -23.292969 388.050781 -33.050781 C 380.5 -47.136719 378.484375 -62.140625 382.5 -77.464844 C 386.433594 -92.558594 391.511719 -107.375 396.101562 -122.328125 C 397.253906 -126.078125 398.726562 -129.738281 399.59375 -133.527344 C 400.78125 -138.960938 405.300781 -140.890625 408.894531 -143.820312 C 409.164062 -143.683594 409.503906 -143.515625 409.8125 -143.328125 Z M 409.8125 -143.328125 " fill-opacity="1" fill-rule="nonzero"/></g></g></g><g clip-path="url(#7bdceed62e)"><g clip-path="url(#acab5d9f2f)"><g clip-path="url(#51a6b45e2f)"><path fill="#b4aaa0" d="M 388.097656 -127.59375 C 384.9375 -118.597656 381.878906 -110.140625 378.980469 -101.636719 C 373.789062 -86.351562 368.570312 -71.050781 369.796875 -54.515625 C 370.804688 -40.953125 376.878906 -29.609375 385.203125 -19.15625 C 396.316406 -5.179688 410.054688 5.878906 424.226562 16.445312 C 450.226562 35.871094 477.808594 52.742188 507.230469 66.492188 C 520.667969 72.777344 534.523438 78.160156 548.125 84.152344 C 562.589844 90.511719 576.917969 97.1875 588.75 108.078125 C 603.019531 121.238281 611.660156 137.214844 613.769531 156.769531 C 615.582031 173.582031 611.859375 189.40625 605.117188 204.375 C 595.144531 226.617188 579.472656 244.519531 558.847656 257.4375 C 534.230469 272.867188 508.835938 272.6875 483.398438 258.769531 C 468.914062 250.816406 456.175781 240.523438 444.042969 229.519531 C 430.027344 216.800781 416.285156 203.835938 402.605469 190.78125 C 385.199219 174.140625 366.742188 158.804688 346.757812 145.425781 C 323.085938 129.582031 297.265625 119.132812 268.824219 115.878906 C 237.820312 112.3125 208.242188 117.925781 179.757812 130.257812 C 158.800781 139.3125 139.578125 151.507812 120.011719 163.074219 C 105.90625 171.445312 91.601562 179.542969 75.824219 184.351562 C 63.550781 188.074219 51.085938 189.863281 38.195312 187.273438 C 29.105469 185.453125 20.460938 182.707031 12.875 177.378906 C 8.40625 174.269531 4.394531 170.476562 -0.40625 166.480469 C 2.046875 164.625 4.050781 162.898438 6.289062 161.546875 C 6.945312 161.175781 8.617188 161.652344 9.277344 162.296875 C 18.058594 170.832031 28.675781 175.523438 40.558594 177.730469 C 64.128906 182.167969 84.96875 173.964844 105.292969 163.730469 C 129.792969 151.402344 152.84375 136.3125 178.3125 125.878906 C 212.277344 111.992188 247.171875 107.363281 283.277344 115.039062 C 311.277344 120.964844 336.074219 133.921875 359.039062 150.683594 C 380.511719 166.367188 400.222656 184.148438 419.695312 202.234375 C 436.515625 217.875 453.042969 233.90625 472.414062 246.476562 C 487.109375 256.050781 502.714844 263.074219 520.769531 262.570312 C 534.144531 262.207031 546.265625 257.835938 557.363281 250.425781 C 572.480469 240.3125 584.46875 227.355469 592.78125 211.15625 C 596.21875 204.488281 600.074219 197.757812 601.847656 190.570312 C 608.71875 162.535156 604.699219 134.507812 577.78125 112.515625 C 566.03125 102.914062 552.484375 96.539062 538.984375 90.171875 C 503.3125 73.308594 468.628906 54.726562 436.222656 32.089844 C 418.425781 19.644531 400.917969 6.851562 385.476562 -8.472656 C 374.386719 -19.503906 365.058594 -31.90625 362.238281 -47.914062 C 360.105469 -59.992188 362.011719 -71.769531 365.660156 -83.261719 C 368.707031 -92.851562 372.800781 -102.132812 375.40625 -111.859375 C 377.222656 -118.992188 380.808594 -124.121094 388.097656 -127.59375 Z M 388.097656 -127.59375 " fill-opacity="1" fill-rule="nonzero"/></g></g></g><g clip-path="url(#97ac50fd17)"><g clip-path="url(#517f4603b2)"><g clip-path="url(#68d7c7148c)"><path fill="#b4aaa0" d="M 365.714844 -111.058594 C 362.835938 -102.867188 360.199219 -95.703125 357.8125 -88.433594 C 353.878906 -76.476562 350.257812 -64.5 351.460938 -51.636719 C 352.917969 -36.25 360.328125 -23.753906 370.523438 -12.726562 C 387.898438 6.054688 408.609375 20.789062 429.363281 35.40625 C 459.546875 56.671875 491.101562 75.714844 523.773438 92.980469 C 536.300781 99.574219 548.699219 106.5625 560.597656 114.226562 C 577.757812 125.328125 589.222656 140.78125 592.429688 161.453125 C 593.945312 171.199219 592.765625 180.738281 590.1875 190.230469 C 584.144531 212.679688 571.433594 230.464844 552.25 243.4375 C 531.359375 257.574219 509.363281 257.964844 486.789062 247.605469 C 470.292969 240.027344 456.195312 228.941406 442.632812 217.109375 C 423.230469 200.238281 404.3125 182.835938 384.675781 166.273438 C 364.484375 149.195312 343.078125 133.714844 318.734375 122.871094 C 270.320312 101.3125 221.578125 102.039062 173.152344 122.191406 C 152.910156 130.625 133.453125 141.050781 113.683594 150.609375 C 98.230469 158.089844 82.589844 165.039062 65.238281 166.921875 C 54.351562 168.109375 43.882812 167.210938 33.574219 162.878906 C 27.785156 160.433594 22.476562 157.617188 17.609375 153.753906 C 21.6875 148.214844 22.929688 147.953125 28.109375 151.160156 C 42.707031 160.214844 58.582031 161.144531 74.921875 158.203125 C 90.371094 155.429688 104.527344 149.09375 118.5625 142.429688 C 142.074219 131.3125 165.265625 119.382812 190.394531 112.085938 C 247.792969 95.453125 300.925781 105.304688 350.417969 137.875 C 375.117188 154.128906 397.421875 173.378906 419.523438 192.867188 C 435.996094 207.375 452.167969 222.320312 470.921875 233.957031 C 484.164062 242.171875 498.109375 248.625 514.105469 248.703125 C 530.339844 248.765625 544.078125 242.664062 556.347656 232.035156 C 568.285156 221.699219 576.660156 209.058594 581.210938 194.386719 C 588.515625 170.855469 583.96875 146.445312 562.792969 127.398438 C 547.882812 114.003906 530.230469 104.667969 513.140625 94.613281 C 465.125 66.355469 418.425781 36.128906 375.824219 0.0078125 C 363.410156 -10.53125 352.34375 -22.425781 346.78125 -38.308594 C 342.839844 -49.527344 343.019531 -60.894531 346.15625 -72.167969 C 348.613281 -80.972656 352.121094 -89.511719 354.34375 -98.398438 C 356.019531 -104.371094 360.222656 -107.335938 365.714844 -111.058594 Z M 365.714844 -111.058594 " fill-opacity="1" fill-rule="nonzero"/></g></g></g><g clip-path="url(#2171a5e7c2)"><g clip-path="url(#9e8484ed3c)"><g clip-path="url(#38c473630d)"><path fill="#b4aaa0" d="M 339.304688 -90.933594 C 337.035156 -82.054688 334.414062 -73.125 332.546875 -64.042969 C 328.675781 -45.222656 335.042969 -29.226562 347.265625 -15.238281 C 363.460938 3.332031 383.261719 17.695312 403.226562 31.722656 C 437.992188 56.136719 473.203125 79.957031 508.089844 104.195312 C 520.484375 112.800781 533.03125 121.328125 544.683594 130.914062 C 556.234375 140.367188 564.839844 152.257812 567.695312 167.476562 C 570.625 183.1875 566.351562 197.265625 558.3125 210.632812 C 551.523438 221.949219 541.84375 229.945312 529.761719 234.710938 C 514.617188 240.6875 499.523438 238.828125 484.851562 232.539062 C 468.585938 225.59375 454.460938 215.207031 440.875 204.070312 C 420.121094 187.039062 399.722656 169.523438 378.644531 152.90625 C 355.84375 134.960938 331.53125 119.386719 303.855469 109.746094 C 261.75 95.078125 219.453125 95.636719 177.546875 109.890625 C 156.289062 117.09375 135.699219 126.300781 114.820312 134.621094 C 97.980469 141.328125 81.042969 147.6875 62.511719 146.773438 C 57.214844 146.496094 51.890625 145.222656 46.746094 143.855469 C 43.183594 142.902344 39.84375 141.0625 36.335938 139.558594 C 40.355469 134.613281 41.441406 133.921875 47.0625 136.199219 C 62.992188 142.640625 79.011719 141.296875 94.613281 136.203125 C 114.1875 129.800781 133.335938 122.109375 152.652344 114.800781 C 178.128906 105.167969 204.109375 97.992188 231.527344 96.808594 C 275.53125 94.917969 315.210938 107.945312 351.921875 131.566406 C 377.402344 147.953125 400.585938 167.304688 423.859375 186.542969 C 440.570312 200.359375 457.1875 214.328125 476.765625 224.03125 C 490.925781 231.042969 505.703125 234.835938 521.394531 230.480469 C 532.320312 227.4375 541.484375 221.398438 548.140625 212.089844 C 551.382812 207.519531 555.023438 202.859375 556.785156 197.675781 C 560.589844 186.449219 561.359375 174.847656 557.292969 163.300781 C 551.613281 147.207031 540.265625 135.441406 526.988281 125.726562 C 496.132812 103.0625 464.714844 81.121094 433.796875 58.546875 C 408.136719 39.792969 382.554688 20.855469 357.464844 1.339844 C 345.851562 -7.6875 335.507812 -18.347656 329.363281 -32.140625 C 323.734375 -44.75 323.578125 -57.6875 327.546875 -70.773438 C 328.128906 -72.695312 328.714844 -74.664062 329.066406 -76.667969 C 330.28125 -83.136719 333.039062 -88.402344 339.304688 -90.933594 Z M 339.304688 -90.933594 " fill-opacity="1" fill-rule="nonzero"/></g></g></g><g clip-path="url(#731efb2e7c)"><g clip-path="url(#70ea106d1a)"><g clip-path="url(#a96e0c3e3e)"><path fill="#b4aaa0" d="M 320.121094 -76.054688 C 319.351562 -72.417969 318.582031 -68.785156 317.78125 -65.132812 C 314.609375 -50.484375 316.488281 -36.730469 324.910156 -24.070312 C 334.03125 -10.320312 346.261719 0.3125 359.273438 10.015625 C 386.960938 30.667969 415.089844 50.730469 442.828125 71.339844 C 467.660156 89.785156 492.371094 108.40625 516.765625 127.390625 C 526.347656 134.855469 534.683594 143.8125 541.003906 154.421875 C 550.882812 171.027344 551.453125 187.929688 541.078125 204.203125 C 531.78125 218.816406 517.722656 225.285156 500.300781 224.042969 C 486.246094 223.054688 473.667969 217.515625 462.417969 209.699219 C 444.96875 197.542969 428.007812 184.636719 411.296875 171.496094 C 387.0625 152.433594 362.875 133.332031 335.679688 118.539062 C 286.535156 91.8125 234.828125 86.09375 181.171875 101.003906 C 159.101562 107.128906 137.667969 115.445312 115.96875 122.734375 C 101.054688 127.730469 86.019531 132.058594 70.082031 131.386719 C 64.058594 131.152344 58.089844 130.324219 52.351562 127.160156 C 54.9375 124.019531 57.257812 123.109375 61.246094 124.125 C 74.371094 127.472656 87.640625 126.46875 100.441406 122.769531 C 118.949219 117.429688 137.261719 111.261719 155.605469 105.363281 C 182.871094 96.582031 210.582031 90.515625 239.417969 90.929688 C 279.554688 91.496094 315.960938 103.945312 349.914062 124.816406 C 376.265625 141.011719 400.277344 160.332031 424.546875 179.324219 C 440.070312 191.453125 455.703125 203.5 473.726562 211.875 C 481.890625 215.664062 490.40625 218.46875 499.453125 218.496094 C 514.242188 218.550781 526.484375 213.496094 534.519531 200.175781 C 543.371094 185.476562 541.492188 171.046875 533.710938 156.882812 C 526.160156 143.132812 514.640625 132.769531 502.871094 122.804688 C 462.613281 88.769531 419.574219 58.402344 377.027344 27.449219 C 360.542969 15.453125 343.746094 3.824219 329.585938 -10.988281 C 319.621094 -21.425781 311.117188 -32.84375 310.941406 -48.050781 C 310.859375 -55.28125 311.808594 -62.605469 313.277344 -69.691406 C 313.808594 -72.296875 317.132812 -74.34375 319.195312 -76.664062 C 319.484375 -76.503906 319.789062 -76.269531 320.121094 -76.054688 Z M 320.121094 -76.054688 " fill-opacity="1" fill-rule="nonzero"/></g></g></g></g></g></g></svg>