<?xml version="1.0" encoding="UTF-8"?>
<svg id="Layer_2" xmlns="http://www.w3.org/2000/svg" viewBox="0 0 2185.83 562.49">
  <defs>
    <style>
      .cls-1 {
        fill: #fff;
      }

      .cls-2 {
        fill: #8dd8f8;
      }
    </style>
  </defs>
  <g id="Layer_1-2" data-name="Layer_1">
    <path class="cls-2" d="M.33,317.43l211.42-99.92-.41,39.94-167.68,75.95v.89s166.07,79.83,166.07,79.83l-.41,39.5L0,349.38l.33-31.96Z"/>
    <path class="cls-2" d="M2185.83,349.38l-209.32,104.24-.41-39.5,166.08-79.83v-.89s-167.69-75.95-167.69-75.95l-.41-39.94,211.42,99.92.33,31.95Z"/>
    <path class="cls-2" d="M1306.24,79.52c-14.78-.15-31.21-.32-51.77,1.93-111.83,11.99-166.75,80.43-180.65,154.21l2.46.03c26.6-30.12,67.06-51.06,120.45-50.51,91.98.95,162.76,67.38,161.65,175.79-1.05,101.84-76.7,189.77-190.04,188.61-129.76-1.33-200.2-100.62-198.85-232.03,1.06-102.66,38.88-186.05,95.27-238.87,49.75-45.49,114.08-71.11,190.53-76.89,22.2-2.24,38.63-2.07,50.94-1.12v78.85ZM1255.66,365.66c.63-61.6-32.58-106.29-91.72-106.9-37.78-.39-71.69,22.26-87.62,54.13-4.19,8.17-6.76,18-6.9,31.96.92,70.65,34,128.48,98.88,129.15,52.56.54,86.7-44.28,87.36-108.34Z"/>
    <path class="cls-1" d="M368.31,238.94c-23.55,0-42.06,8.34-55.54,25.03-13.49,16.69-20.23,39.72-20.23,69.09s6.49,54,19.46,69.78c12.97,15.77,31.74,23.66,56.32,23.66,10.63,0,20.92-1.06,30.86-3.17,9.94-2.12,20.29-4.83,31.03-8.14v35.14c-19.66,7.43-41.95,11.14-66.86,11.14-36.69,0-64.86-11.11-84.52-33.34-19.66-22.23-29.49-54.03-29.49-95.4,0-26.06,4.77-48.86,14.32-68.4,9.54-19.54,23.34-34.52,41.4-44.92,18.06-10.4,39.26-15.6,63.6-15.6,25.6,0,49.26,5.37,70.98,16.11l-14.74,34.12c-8.46-4-17.4-7.51-26.83-10.54-9.43-3.03-19.35-4.54-29.75-4.54Z"/>
    <path class="cls-1" d="M681.86,458.04h-41.15v-112.98h-115.55v112.98h-40.97v-250.64h40.97v102.52h115.55v-102.52h41.15v250.64Z"/>
    <path class="cls-1" d="M903.36,458.04l-25.03-69.6h-95.83l-24.52,69.6h-43.2l93.78-251.67h44.57l93.78,251.67h-43.54ZM867.53,353.12l-23.49-68.23c-1.71-4.57-4.09-11.77-7.11-21.6-3.03-9.83-5.12-17.03-6.26-21.6-3.09,14.06-7.6,29.43-13.54,46.12l-22.63,65.32h73.03Z"/>
    <path class="cls-1" d="M1641.51,234.66c-7.36-8.46-12.36-12.18-21.47-18.22l-19.47,49.73,1.17,1.57c15.53,20.86,23.3,51.46,23.3,91.82s-7.84,71.8-23.52,92.5c-15.68,20.71-38.91,31.06-69.69,31.06-5.3,0-10.37-.31-15.22-.93l-16.53,44.42c9.98,1.61,20.56,2.42,31.75,2.42,47.25,0,83.78-14.85,109.58-44.56,25.79-29.71,38.69-71.34,38.69-124.91s-12.86-95.34-38.59-124.9ZM1532.26,236.46c3.37,0,6.65.13,9.83.39l16.7-44.81c-8.43-1.15-17.27-1.72-26.53-1.72-47.83,0-84.65,14.55-110.44,43.66-25.8,29.11-38.7,70.82-38.7,125.13s12.83,96.22,38.48,125.7c6.31,7.25,13.29,13.61,20.94,19.08l19.39-52.01c-.04-.05-.08-.1-.12-.15-15.75-20.93-23.62-51.65-23.62-92.17s7.91-70.96,23.73-91.82c15.83-20.85,39.27-31.28,70.34-31.28Z"/>
    <path class="cls-2" d="M1754.57,207.4l2.57,3.77c-6.06,23.89-16.11,51.26-30.17,82.12h-29.15c7.89-33.03,13.6-61.66,17.14-85.89h39.6Z"/>
    <path class="cls-1" d="M1938.86,389.98c0,22.29-8.06,39.77-24.17,52.46-16.11,12.69-38.35,19.03-66.69,19.03s-51.55-4.4-69.6-13.2v-38.75c11.43,5.37,23.57,9.6,36.43,12.69,12.86,3.09,24.83,4.63,35.92,4.63,16.23,0,28.2-3.09,35.92-9.26,7.71-6.17,11.57-14.46,11.57-24.86,0-9.37-3.54-17.31-10.63-23.83-7.09-6.52-21.72-14.23-43.89-23.14-22.86-9.26-38.97-19.83-48.34-31.72-9.37-11.89-14.06-26.17-14.06-42.86,0-20.91,7.43-37.37,22.29-49.37,14.86-12,34.8-18,59.83-18s47.89,5.26,71.66,15.77l-13.03,33.43c-22.29-9.37-42.17-14.06-59.66-14.06-13.26,0-23.31,2.89-30.17,8.66-6.86,5.77-10.29,13.4-10.29,22.89,0,6.52,1.37,12.09,4.11,16.72,2.74,4.63,7.26,9,13.55,13.11,6.28,4.11,17.6,9.54,33.94,16.29,18.4,7.66,31.89,14.8,40.46,21.43,8.57,6.63,14.85,14.12,18.86,22.46,4,8.34,6,18.17,6,29.49Z"/>
    <g>
      <path class="cls-2" d="M1358.39,58.76c0-11.42,2.02-21.48,6.07-30.19,4.05-8.7,9.85-15.41,17.42-20.13,7.57-4.71,16.31-7.07,26.24-7.07,13.36,0,24.12,3.63,32.27,10.89,8.15,7.26,12.89,17.52,14.22,30.77h-20.96c-1-8.7-3.53-14.98-7.61-18.84-4.07-3.85-10.05-5.78-17.92-5.78-9.15,0-16.18,3.34-21.08,10.02-4.91,6.68-7.42,16.48-7.53,29.4v10.73c0,13.09,2.34,23.07,7.03,29.94,4.68,6.88,11.54,10.31,20.58,10.31,8.26,0,14.47-1.86,18.63-5.57,4.16-3.71,6.79-9.9,7.9-18.54h20.96c-1.22,12.92-5.99,22.99-14.3,30.23-8.32,7.24-19.38,10.85-33.18,10.85-9.65,0-18.14-2.29-25.49-6.86-7.35-4.57-13.01-11.07-17.01-19.5-3.99-8.43-6.07-18.21-6.24-29.36v-11.31Z"/>
      <path class="cls-2" d="M1467.26,87.53h21.04c0,6.88,2.27,12.2,6.82,15.97,4.54,3.77,11.06,5.66,19.54,5.66,7.32,0,12.82-1.48,16.51-4.45,3.69-2.97,5.53-6.89,5.53-11.77,0-5.32-1.87-9.43-5.61-12.31-3.74-2.88-10.49-5.79-20.25-8.73-9.76-2.94-17.52-6.21-23.28-9.81-11.03-6.93-16.55-15.97-16.55-27.11,0-9.76,3.98-17.8,11.94-24.12,7.96-6.32,18.28-9.48,30.98-9.48,8.43,0,15.94,1.55,22.54,4.66,6.6,3.11,11.78,7.53,15.55,13.26,3.77,5.74,5.65,12.1,5.65,19.09h-20.96c0-6.32-1.98-11.27-5.95-14.84-3.97-3.58-9.63-5.36-17.01-5.36-6.87,0-12.21,1.47-16.01,4.41-3.8,2.94-5.7,7.04-5.7,12.31,0,4.44,2.05,8.14,6.15,11.1,4.1,2.97,10.87,5.85,20.29,8.65,9.43,2.8,16.99,5.99,22.7,9.56,5.71,3.58,9.9,7.68,12.56,12.31,2.66,4.63,3.99,10.05,3.99,16.26,0,10.09-3.87,18.12-11.6,24.08-7.73,5.96-18.23,8.94-31.48,8.94-8.76,0-16.81-1.62-24.16-4.86-7.35-3.24-13.06-7.72-17.13-13.43-4.07-5.71-6.11-12.36-6.11-19.96Z"/>
      <path class="cls-2" d="M1654.79,3.04v16.96h-57.55v33.43h49.73v16.63h-49.73v37.26h58.13v16.8h-79.17V3.04h78.59Z"/>
    </g>
    <path class="cls-2" d="M1629.55,165.84l-156.47,396.65-42.58-3.39,152.37-396.72,46.69,3.47Z"/>
  </g>
</svg>