<?xml version="1.0" encoding="UTF-8"?>
<svg id="Layer_2" xmlns="http://www.w3.org/2000/svg" xmlns:xlink="http://www.w3.org/1999/xlink" viewBox="0 0 6256.82 1610.09">
  <defs>
    <style>
      .cls-1 {
        fill: #fff;
      }

      .cls-2 {
        filter: url(#drop-shadow-1);
      }

      .cls-3 {
        fill: #8dd8f8;
      }
    </style>
    <filter id="drop-shadow-1" filterUnits="userSpaceOnUse">
      <feOffset dx="20.04" dy="20.04"/>
      <feGaussianBlur result="blur" stdDeviation="14.31"/>
      <feFlood flood-color="#000" flood-opacity=".75"/>
      <feComposite in2="blur" operator="in"/>
      <feComposite in="SourceGraphic"/>
    </filter>
  </defs>
  <g id="Layer_1-2" data-name="Layer_1">
    <g class="cls-2">
      <path class="cls-3" d="M.94,908.62l605.18-286.01-1.17,114.34-479.96,217.41-.03,2.54,475.38,228.51-1.16,113.06L0,1000.09l.94-91.47Z"/>
      <path class="cls-3" d="M6256.82,1000.09l-599.17,298.39-1.16-113.07,475.38-228.5-.03-2.54-479.96-217.41-1.17-114.34,605.17,286.01.94,91.46Z"/>
      <path class="cls-3" d="M3739.04,227.61c-42.32-.43-89.33-.92-148.18,5.53-320.11,34.33-477.31,230.22-517.1,441.41l7.05.07c76.13-86.21,191.95-146.15,344.77-144.58,263.29,2.71,465.9,192.88,462.71,503.2-3,291.51-219.54,543.21-543.97,539.87-371.44-3.82-573.08-288.03-569.21-664.17,3.02-293.86,111.28-532.57,272.71-683.74,142.41-130.2,326.55-203.55,545.39-220.11,63.55-6.4,110.56-5.92,145.81-3.2l.03,225.71ZM3594.25,1046.68c1.81-176.32-93.27-304.26-262.54-306-108.15-1.11-205.21,63.72-250.82,154.95-12,23.39-19.34,51.53-19.75,91.49,2.62,202.23,97.32,367.78,283.04,369.69,150.46,1.55,248.18-126.76,250.06-310.13Z"/>
      <path class="cls-1" d="M1054.26,683.96c-67.4,0-120.4,23.89-158.99,71.65-38.61,47.77-57.91,113.69-57.91,197.76s18.56,154.58,55.7,199.73c37.13,45.15,90.86,67.72,161.2,67.72,30.43,0,59.87-3.02,88.33-9.08,28.46-6.05,58.07-13.82,88.82-23.31v100.6c-56.27,21.27-120.07,31.9-191.38,31.9-105.02,0-185.66-31.81-241.93-95.44-56.27-63.63-84.41-154.66-84.41-273.09,0-74.59,13.66-139.86,40.98-195.8,27.31-55.94,66.82-98.8,118.51-128.57,51.69-29.77,112.38-44.66,182.06-44.66,73.28,0,141,15.38,203.16,46.13l-42.2,97.66c-24.21-11.45-49.81-21.51-76.8-30.18-26.99-8.66-55.38-13.01-85.14-13.01Z"/>
      <path class="cls-1" d="M1951.8,1311.11h-117.78v-323.39h-330.75v323.39h-117.28v-717.44h117.28v293.46h330.75v-293.46h117.78v717.44Z"/>
      <path class="cls-1" d="M2585.82,1311.11l-71.65-199.23h-274.32l-70.17,199.23h-123.66l268.43-720.39h127.59l268.43,720.39h-124.64ZM2483.25,1010.79l-67.23-195.31c-4.91-13.08-11.7-33.69-20.37-61.83-8.67-28.13-14.64-48.74-17.91-61.83-8.83,40.24-21.76,84.24-38.77,132l-64.77,186.97h209.05Z"/>
      <path class="cls-1" d="M4698.73,671.71c-21.07-24.22-35.39-34.87-61.46-52.16l-55.73,142.35,3.35,4.49c44.45,59.71,66.69,147.3,66.69,262.83s-22.44,205.52-67.32,264.78c-44.88,59.28-111.38,88.91-199.48,88.91-15.17,0-29.68-.89-43.57-2.66l-47.32,127.15c28.57,4.61,58.85,6.93,90.88,6.93,135.25,0,239.81-42.51,313.67-127.55,73.82-85.04,110.75-204.21,110.75-357.55s-36.81-272.91-110.46-357.52ZM4386.01,676.87c9.65,0,19.03.37,28.14,1.12l47.8-128.27c-24.13-3.29-49.43-4.92-75.94-4.92-136.91,0-242.31,41.65-316.13,124.97-73.85,83.33-110.78,202.72-110.78,358.18s36.73,275.42,110.15,359.81c18.06,20.75,38.04,38.96,59.94,54.62l55.5-148.88c-.11-.14-.23-.29-.34-.43-45.08-59.91-67.61-147.85-67.61-263.83s22.64-203.12,67.93-262.83c45.31-59.68,112.41-89.54,201.35-89.54Z"/>
      <path class="cls-3" d="M5022.35,593.67l7.36,10.8c-17.34,68.38-46.13,146.73-86.37,235.06h-83.43c22.57-94.54,38.93-176.49,49.07-245.86h113.36Z"/>
      <path class="cls-1" d="M5549.89,1116.29c0,63.8-23.07,113.85-69.2,150.16-46.13,36.31-109.76,54.47-190.89,54.47s-147.55-12.59-199.24-37.79v-110.91c32.71,15.38,67.47,27.48,104.28,36.31,36.81,8.84,71.07,13.25,102.81,13.25,46.45,0,80.73-8.84,102.81-26.5,22.08-17.67,33.13-41.39,33.13-71.16,0-26.82-10.14-49.56-30.42-68.21-20.29-18.65-62.16-40.73-125.63-66.25-65.44-26.5-111.56-56.75-138.38-90.78-26.83-34.02-40.24-74.91-40.24-122.68,0-59.87,21.26-106.98,63.79-141.33,42.53-34.35,99.62-51.53,171.27-51.53s137.08,15.05,205.12,45.15l-37.29,95.69c-63.79-26.82-120.72-40.24-170.77-40.24-37.96,0-66.74,8.27-86.37,24.78-19.63,16.52-29.44,38.36-29.44,65.51,0,18.65,3.92,34.6,11.77,47.85,7.86,13.25,20.77,25.76,38.77,37.54,17.99,11.78,50.37,27.32,97.16,46.62,52.67,21.92,91.28,42.37,115.82,61.34,24.53,18.98,42.52,40.41,53.98,64.28,11.44,23.89,17.18,52.02,17.18,84.4Z"/>
      <g>
        <path class="cls-3" d="M3888.33,168.19c0-32.69,5.79-61.49,17.37-86.41,11.58-24.91,28.21-44.12,49.88-57.61,21.66-13.49,46.69-20.23,75.11-20.23,38.24,0,69.03,10.4,92.36,31.19,23.33,20.79,36.9,50.15,40.7,88.08h-59.99c-2.86-24.91-10.12-42.89-21.79-53.92-11.66-11.03-28.77-16.55-51.3-16.55-26.19,0-46.31,9.56-60.35,28.69-14.05,19.12-21.23,47.17-21.54,84.15v30.71c0,37.46,6.7,66.02,20.12,85.7,13.4,19.68,33.05,29.52,58.91,29.52,23.65,0,41.42-5.31,53.33-15.95,11.9-10.63,19.44-28.33,22.61-53.08h59.99c-3.49,36.98-17.14,65.82-40.94,86.53-23.8,20.71-55.47,31.06-94.98,31.06-27.62,0-51.93-6.54-72.96-19.64-21.03-13.09-37.25-31.7-48.68-55.82-11.43-24.12-17.38-52.13-17.85-84.03v-32.38Z"/>
        <path class="cls-3" d="M4199.94,250.56h60.22c0,19.68,6.51,34.92,19.52,45.71,13.01,10.79,31.66,16.19,55.94,16.19,20.94,0,36.69-4.25,47.25-12.74,10.55-8.49,15.83-19.72,15.83-33.68,0-15.23-5.36-26.98-16.07-35.23-10.72-8.25-30.04-16.58-57.97-25-27.93-8.41-50.15-17.77-66.65-28.09-31.59-19.84-47.38-45.7-47.38-77.6,0-27.93,11.39-50.94,34.16-69.03,22.77-18.09,52.33-27.14,88.67-27.14,24.12,0,45.62,4.45,64.51,13.33,18.89,8.89,33.72,21.55,44.52,37.97,10.79,16.42,16.18,34.64,16.18,54.63h-59.99c0-18.09-5.67-32.25-17.02-42.49-11.35-10.24-27.58-15.35-48.69-15.35-19.68,0-34.95,4.21-45.82,12.62-10.87,8.41-16.31,20.16-16.31,35.23,0,12.7,5.87,23.29,17.62,31.78,11.74,8.49,31.1,16.75,58.08,24.76,26.98,8.02,48.65,17.14,64.99,27.38,16.35,10.24,28.33,21.98,35.95,35.23,7.62,13.25,11.43,28.77,11.43,46.54,0,28.89-11.07,51.86-33.21,68.92-22.14,17.06-52.18,25.59-90.1,25.59-25.08,0-48.13-4.64-69.16-13.92-21.03-9.29-37.37-22.1-49.04-38.45-11.66-16.34-17.49-35.39-17.49-57.13Z"/>
        <path class="cls-3" d="M4736.74,8.7v48.56h-164.73v95.7h142.35v47.61h-142.35v106.65h166.4v48.09h-226.63V8.7h224.96Z"/>
      </g>
      <path class="cls-3" d="M4664.5,474.71l-447.9,1135.39-121.89-9.72,436.14-1135.6,133.65,9.93Z"/>
    </g>
  </g>
</svg>